SplineFontDB: 3.2
FontName: Atari-825-Prop-Elongated-UL
FullName: Atari 825 Proportional Elongated UL Regular
FamilyName: Atari 825 Prop Elongated UL
Weight: Book
Copyright: Copyright jeffpiep 2020\n"Atari 825 Proportional UL, which is based on "Atari 825 Proportional
Version: 1.0
ItalicAngle: 0
UnderlinePosition: 74
UnderlineWidth: 49
Ascent: 800
Descent: 200
InvalidEm: 0
sfntRevision: 0x00010000
LayerCount: 2
Layer: 0 1 "Back" 1
Layer: 1 1 "Fore" 0
XUID: [1021 376 -1330786101 6138]
StyleMap: 0x0040
FSType: 4
OS2Version: 2
OS2_WeightWidthSlopeOnly: 0
OS2_UseTypoMetrics: 0
CreationTime: 1592619836
ModificationTime: 1592623230
PfmFamily: 81
TTFWeight: 400
TTFWidth: 5
LineGap: 0
VLineGap: 0
Panose: 0 0 4 0 0 0 0 0 0 0
OS2TypoAscent: 810
OS2TypoAOffset: 0
OS2TypoDescent: -231
OS2TypoDOffset: 0
OS2TypoLinegap: 0
OS2WinAscent: 810
OS2WinAOffset: 0
OS2WinDescent: 231
OS2WinDOffset: 0
HheadAscent: 810
HheadAOffset: 0
HheadDescent: -231
HheadDOffset: 0
OS2SubXSize: 500
OS2SubYSize: 500
OS2SubXOff: 0
OS2SubYOff: -116
OS2SupXSize: 500
OS2SupYSize: 500
OS2SupXOff: 0
OS2SupYOff: 500
OS2StrikeYSize: 50
OS2StrikeYPos: 200
OS2CapHeight: 1053
OS2XHeight: 821
OS2Vendor: 'FSTR'
OS2CodePages: 00000001.00000000
OS2UnicodeRanges: 80000001.00000000.00000000.00000000
MarkAttachClasses: 1
DEI: 91125
ShortTable: maxp 16
  1
  0
  102
  360
  8
  0
  0
  2
  0
  0
  0
  0
  0
  0
  0
  0
EndShort

StartChar: space
Encoding: 32 32 0
Width: 560
VWidth: 750
Flags: W
LayerCount: 2
Fore
SplineSet
-41 -173 m 2,0,1
 -58 -173 -58 -173 -71 -160 c 0,2,3
 -83 -146 -83 -146 -83 -125 c 256,4,5
 -83 -105 -83 -105 -71 -92 c 0,6,7
 -58 -78 -58 -78 -41 -78 c 2,8,-1
 542 -78 l 2,9,10
 559 -78 559 -78 571 -92 c 256,11,12
 583 -106 583 -106 583 -125 c 256,13,14
 583 -145 583 -145 571 -160 c 0,15,16
 560.733333333 -173.066666667 560.733333333 -173.066666667 544.368888889 -173.066666667 c 0,17,18
 543.2 -173.066666667 543.2 -173.066666667 542 -173 c 2,19,-1
 -41 -173 l 2,0,1
EndSplineSet
Validated: 524289
EndChar

StartChar: exclam
Encoding: 33 33 1
Width: 560
VWidth: 750
Flags: W
LayerCount: 2
Fore
SplineSet
-41 -173 m 2,0,1
 -58 -173 -58 -173 -71 -160 c 0,2,3
 -83 -146 -83 -146 -83 -125 c 256,4,5
 -83 -105 -83 -105 -71 -92 c 0,6,7
 -58 -78 -58 -78 -41 -78 c 2,8,-1
 542 -78 l 2,9,10
 559 -78 559 -78 571 -92 c 256,11,12
 583 -106 583 -106 583 -125 c 256,13,14
 583 -145 583 -145 571 -160 c 0,15,16
 560.733333333 -173.066666667 560.733333333 -173.066666667 544.368888889 -173.066666667 c 0,17,18
 543.2 -173.066666667 543.2 -173.066666667 542 -173 c 2,19,-1
 -41 -173 l 2,0,1
208 0 m 2,20,21
 190 0 190 0 178 14 c 256,22,23
 166 28 166 28 166 47 c 256,24,25
 166 67 166 67 178 81 c 256,26,27
 190 95 190 95 208 95 c 2,28,-1
 292 95 l 2,29,30
 309 95 309 95 321 81 c 0,31,32
 333.071428571 68 333.071428571 68 333.071428571 49.8265306122 c 0,33,34
 333.071428571 27.0773809524 333.071428571 27.0773809524 321 14 c 0,35,36
 309 0 309 0 292 0 c 2,37,-1
 208 0 l 2,20,21
208 260 m 2,38,39
 190 260 190 260 178 274 c 256,40,41
 166 288 166 288 166 308 c 256,42,43
 166 328 166 328 178 342 c 0,44,45
 182 348 182 348 190 352 c 1,46,-1
 190 352 l 1,47,48
 184 355 184 355 178 361 c 0,49,50
 166 374 166 374 166 394 c 256,51,52
 166 414 166 414 178 428 c 0,53,54
 182 434 182 434 190 438 c 1,55,-1
 190 438 l 1,56,57
 184 441 184 441 178 448 c 0,58,59
 166 462 166 462 166 482 c 256,60,61
 166 502 166 502 178 515 c 0,62,63
 182 521 182 521 190 525 c 1,64,-1
 190 525 l 1,65,66
 184 528 184 528 178 535 c 0,67,68
 166 548 166 548 166 568 c 256,69,70
 166 588 166 588 178 602 c 256,71,72
 190 616 190 616 208 616 c 2,73,-1
 292 616 l 2,74,75
 309 616 309 616 321 602 c 0,76,77
 333.071428571 589 333.071428571 589 333.071428571 570.826530612 c 0,78,79
 333.071428571 548.077380952 333.071428571 548.077380952 321 535 c 0,80,81
 316 529 316 529 309 525 c 1,82,-1
 309 525 l 1,83,84
 316 521 316 521 321 515 c 0,85,86
 333.071428571 502.928571429 333.071428571 502.928571429 333.071428571 484.821428571 c 0,87,88
 333.071428571 462.083333333 333.071428571 462.083333333 321 448 c 0,89,90
 316 442 316 442 309 438 c 1,91,-1
 309 438 l 1,92,93
 316 434 316 434 321 428 c 0,94,95
 333.071428571 415 333.071428571 415 333.071428571 396.826530612 c 0,96,97
 333.071428571 374.077380952 333.071428571 374.077380952 321 361 c 0,98,99
 316 355 316 355 309 352 c 1,100,-1
 309 352 l 1,101,102
 316 348 316 348 321 342 c 0,103,104
 333.071428571 329 333.071428571 329 333.071428571 310.826530612 c 0,105,106
 333.071428571 288.083333333 333.071428571 288.083333333 321 274 c 128,-1,107
 309 260 309 260 292 260 c 2,108,-1
 208 260 l 2,38,39
EndSplineSet
Validated: 524293
EndChar

StartChar: quotedbl
Encoding: 34 34 2
Width: 800
VWidth: 750
Flags: W
LayerCount: 2
Fore
SplineSet
-41 -173 m 2,0,1
 -58 -173 -58 -173 -71 -160 c 0,2,3
 -83 -146 -83 -146 -83 -125 c 256,4,5
 -83 -105 -83 -105 -71 -92 c 0,6,7
 -58 -78 -58 -78 -41 -78 c 2,8,-1
 791 -78 l 2,9,10
 808 -78 808 -78 821 -92 c 0,11,12
 833 -106 833 -106 833 -125 c 256,13,14
 833 -145 833 -145 821 -160 c 0,15,16
 808.866666667 -173.066666667 808.866666667 -173.066666667 793.248888889 -173.066666667 c 0,17,18
 792.133333333 -173.066666667 792.133333333 -173.066666667 791 -173 c 2,19,-1
 -41 -173 l 2,0,1
41 347 m 2,20,21
 24 347 24 347 12 361 c 256,22,23
 0 374 0 374 0 394 c 256,24,25
 0 414 0 414 12 428 c 0,26,27
 17 434 17 434 24 438 c 1,28,-1
 24 438 l 1,29,30
 18 441 18 441 12 448 c 0,31,32
 0 462 0 462 0 482 c 256,33,34
 0 502 0 502 12 515 c 0,35,36
 17 521 17 521 24 525 c 1,37,-1
 24 525 l 1,38,39
 18 528 18 528 12 535 c 0,40,41
 0 548 0 548 0 568 c 256,42,43
 0 588 0 588 12 602 c 256,44,45
 24 616 24 616 41 616 c 2,46,-1
 125 616 l 2,47,48
 142 616 142 616 154 602 c 128,-1,49
 166 588 166 588 166 568 c 256,50,51
 166 548 166 548 154 535 c 0,52,53
 148 529 148 529 142 525 c 1,54,-1
 142 525 l 1,55,56
 148 521 148 521 154 515 c 0,57,58
 166 502 166 502 166 482 c 256,59,60
 166 462 166 462 154 448 c 0,61,62
 148 442 148 442 142 438 c 1,63,-1
 142 438 l 1,64,65
 148 434 148 434 154 428 c 0,66,67
 166 414 166 414 166 394 c 256,68,69
 166 374 166 374 154 361 c 0,70,71
 142 347 142 347 125 347 c 2,72,-1
 41 347 l 2,20,21
375 347 m 2,73,74
 358 347 358 347 345 361 c 256,75,76
 333 374 333 374 333 394 c 256,77,78
 333 414 333 414 345 428 c 0,79,80
 350 434 350 434 357 438 c 1,81,-1
 357 438 l 1,82,83
 351 441 351 441 345 448 c 0,84,85
 333 462 333 462 333 482 c 256,86,87
 333 502 333 502 345 515 c 0,88,89
 350 521 350 521 357 525 c 1,90,-1
 357 525 l 1,91,92
 351 528 351 528 345 535 c 0,93,94
 333 548 333 548 333 568 c 256,95,96
 333 588 333 588 345 602 c 256,97,98
 357 616 357 616 375 616 c 2,99,-1
 458 616 l 2,100,101
 476 616 476 616 488 602 c 128,-1,102
 500 588 500 588 500 568 c 256,103,104
 500 548 500 548 488 535 c 0,105,106
 484 529 484 529 476 525 c 1,107,-1
 476 525 l 1,108,109
 484 521 484 521 488 515 c 0,110,111
 500 502 500 502 500 482 c 256,112,113
 500 462 500 462 488 448 c 0,114,115
 484 442 484 442 476 438 c 1,116,-1
 476 438 l 1,117,118
 484 434 484 434 488 428 c 0,119,120
 500 414 500 414 500 394 c 256,121,122
 500 374 500 374 488 361 c 0,123,124
 475 347 475 347 458 347 c 2,125,-1
 375 347 l 2,73,74
EndSplineSet
Validated: 524293
EndChar

StartChar: numbersign
Encoding: 35 35 3
Width: 1200
VWidth: 750
Flags: W
LayerCount: 2
Fore
SplineSet
-41 -173 m 2,0,1
 -58 -173 -58 -173 -71 -160 c 0,2,3
 -83 -146 -83 -146 -83 -125 c 256,4,5
 -83 -105 -83 -105 -71 -92 c 0,6,7
 -58 -78 -58 -78 -41 -78 c 2,8,-1
 1208 -78 l 2,9,10
 1226 -78 1226 -78 1238 -92 c 128,-1,11
 1250 -106 1250 -106 1250 -125 c 256,12,13
 1250 -145 1250 -145 1238 -160 c 0,14,15
 1225.86666667 -173.066666667 1225.86666667 -173.066666667 1210.24888889 -173.066666667 c 0,16,17
 1209.13333333 -173.066666667 1209.13333333 -173.066666667 1208 -173 c 2,18,-1
 -41 -173 l 2,0,1
518 268 m 1,19,20
 515 270 515 270 512 274 c 0,21,22
 500 288 500 288 500 308 c 256,23,24
 500 328 500 328 512 342 c 0,25,26
 514 345 514 345 518 347 c 1,27,-1
 316 347 l 1,28,29
 318 345 318 345 321 342 c 0,30,31
 333.071428571 329 333.071428571 329 333.071428571 310.826530612 c 0,32,33
 333.071428571 288.083333333 333.071428571 288.083333333 321 274 c 0,34,35
 319 270 319 270 316 268 c 1,36,-1
 518 268 l 1,19,20
208 0 m 2,37,38
 190 0 190 0 178 14 c 256,39,40
 166 28 166 28 166 47 c 256,41,42
 166 67 166 67 178 81 c 0,43,44
 182 87 182 87 190 91 c 1,45,-1
 190 91 l 1,46,47
 184 94 184 94 178 100 c 0,48,49
 166 114 166 114 166 134 c 256,50,51
 166 154 166 154 178 168 c 0,52,53
 180 171 180 171 184 173 c 1,54,-1
 41 173 l 2,55,56
 24 174 24 174 12 188 c 256,57,58
 0 202 0 202 0 221 c 256,59,60
 0 241 0 241 12 255 c 256,61,62
 24 268 24 268 41 268 c 2,63,-1
 184 268 l 1,64,65
 180 270 180 270 178 274 c 0,66,67
 166 288 166 288 166 308 c 256,68,69
 166 328 166 328 178 342 c 0,70,71
 180 345 180 345 184 347 c 1,72,-1
 41 347 l 2,73,74
 24 347 24 347 12 361 c 256,75,76
 0 374 0 374 0 394 c 256,77,78
 0 414 0 414 12 428 c 256,79,80
 24 442 24 442 41 442 c 2,81,-1
 184 442 l 1,82,83
 180 444 180 444 178 448 c 0,84,85
 166 462 166 462 166 482 c 256,86,87
 166 502 166 502 178 515 c 0,88,89
 182 521 182 521 190 525 c 1,90,-1
 190 525 l 1,91,92
 184 528 184 528 178 535 c 0,93,94
 166 548 166 548 166 568 c 256,95,96
 166 588 166 588 178 602 c 256,97,98
 190 616 190 616 208 616 c 2,99,-1
 292 616 l 2,100,101
 309 616 309 616 321 602 c 0,102,103
 333.071428571 589 333.071428571 589 333.071428571 570.826530612 c 0,104,105
 333.071428571 548.077380952 333.071428571 548.077380952 321 535 c 0,106,107
 316 529 316 529 309 525 c 1,108,-1
 309 525 l 1,109,110
 316 521 316 521 321 515 c 0,111,112
 333.071428571 502.928571429 333.071428571 502.928571429 333.071428571 484.821428571 c 0,113,114
 333.071428571 462.083333333 333.071428571 462.083333333 321 448 c 0,115,116
 319 444 319 444 316 442 c 1,117,-1
 518 442 l 1,118,119
 515 444 515 444 512 448 c 0,120,121
 500 462 500 462 500 482 c 256,122,123
 500 502 500 502 512 515 c 0,124,125
 518 521 518 521 524 525 c 1,126,-1
 524 525 l 1,127,128
 518 528 518 528 512 535 c 0,129,130
 500 548 500 548 500 568 c 256,131,132
 500 588 500 588 512 602 c 0,133,134
 526 616 526 616 542 616 c 2,135,-1
 625 616 l 2,136,137
 642 616 642 616 655 602 c 0,138,139
 667 588 667 588 667 568 c 256,140,141
 667 548 667 548 655 535 c 0,142,143
 650 529 650 529 642 525 c 1,144,-1
 642 525 l 1,145,146
 649 521 649 521 655 515 c 0,147,148
 667 502 667 502 667 482 c 256,149,150
 667 462 667 462 655 448 c 0,151,152
 653 444 653 444 649 442 c 1,153,-1
 791 442 l 2,154,155
 808 442 808 442 821 428 c 0,156,157
 833 414 833 414 833 394 c 256,158,159
 833 374 833 374 821 361 c 0,160,161
 808 347 808 347 791 347 c 2,162,-1
 649 347 l 1,163,164
 652 345 652 345 655 342 c 0,165,166
 667 328 667 328 667 308 c 256,167,168
 667 288 667 288 655 274 c 0,169,170
 653 270 653 270 649 268 c 1,171,-1
 791 268 l 2,172,173
 808 268 808 268 821 255 c 0,174,175
 833 241 833 241 833 221 c 256,176,177
 833 202 833 202 821 188 c 0,178,179
 808 174 808 174 791 173 c 2,180,-1
 649 173 l 1,181,182
 652 171 652 171 655 168 c 0,183,184
 667 154 667 154 667 134 c 256,185,186
 667 114 667 114 655 100 c 0,187,188
 650 94 650 94 642 91 c 1,189,-1
 642 91 l 1,190,191
 649 88 649 88 655 81 c 0,192,193
 667 67 667 67 667 47 c 256,194,195
 667 27 667 27 655 14 c 0,196,197
 642 0 642 0 625 0 c 2,198,-1
 542 0 l 2,199,200
 525 0 525 0 512 14 c 0,201,202
 500 28 500 28 500 47 c 256,203,204
 500 67 500 67 512 81 c 0,205,206
 518 87 518 87 524 91 c 1,207,-1
 524 91 l 1,208,209
 518 94 518 94 512 100 c 0,210,211
 500 114 500 114 500 134 c 256,212,213
 500 154 500 154 512 168 c 0,214,215
 514 171 514 171 518 173 c 1,216,-1
 316 173 l 1,217,218
 318 171 318 171 321 168 c 0,219,220
 333.071428571 155 333.071428571 155 333.071428571 136.826530612 c 0,221,222
 333.071428571 114.083333333 333.071428571 114.083333333 321 100 c 0,223,224
 316 94 316 94 309 91 c 1,225,-1
 309 91 l 1,226,227
 316 88 316 88 321 81 c 0,228,229
 333.071428571 68 333.071428571 68 333.071428571 49.8265306122 c 0,230,231
 333.071428571 27.0773809524 333.071428571 27.0773809524 321 14 c 0,232,233
 309 0 309 0 292 0 c 2,234,-1
 208 0 l 2,37,38
EndSplineSet
Validated: 524293
EndChar

StartChar: dollar
Encoding: 36 36 4
Width: 960
VWidth: 750
Flags: W
LayerCount: 2
Fore
SplineSet
-41 -173 m 2,0,1
 -58 -173 -58 -173 -71 -160 c 0,2,3
 -83 -146 -83 -146 -83 -125 c 256,4,5
 -83 -105 -83 -105 -71 -92 c 0,6,7
 -58 -78 -58 -78 -41 -78 c 2,8,-1
 958 -78 l 2,9,10
 975 -78 975 -78 988 -92 c 0,11,12
 1000 -106 1000 -106 1000 -125 c 256,13,14
 1000 -145 1000 -145 988 -160 c 0,15,16
 975.866666667 -173.066666667 975.866666667 -173.066666667 960.248888889 -173.066666667 c 0,17,18
 959.133333333 -173.066666667 959.133333333 -173.066666667 958 -173 c 2,19,-1
 -41 -173 l 2,0,1
684 182 m 1,20,21
 681 184 681 184 679 188 c 0,22,23
 667 202 667 202 667 221 c 256,24,25
 667 241 667 241 679 255 c 0,26,27
 681 258 681 258 684 260 c 1,28,-1
 482 260 l 1,29,30
 486 258 486 258 488 255 c 0,31,32
 500 241 500 241 500 221 c 256,33,34
 500 202 500 202 488 188 c 0,35,36
 486 185 486 185 482 182 c 1,37,-1
 684 182 l 1,20,21
351 356 m 1,38,39
 348 358 348 358 345 361 c 0,40,41
 333 374 333 374 333 394 c 256,42,43
 333 414 333 414 345 428 c 0,44,45
 347 431 347 431 351 434 c 1,46,-1
 149 434 l 1,47,48
 150 432 150 432 154 428 c 0,49,50
 166 414 166 414 166 394 c 256,51,52
 166 374 166 374 154 361 c 0,53,54
 152 358 152 358 149 356 c 1,55,-1
 351 356 l 1,38,39
375 0 m 2,56,57
 358 0 358 0 345 14 c 256,58,59
 333 28 333 28 333 47 c 256,60,61
 333 67 333 67 345 81 c 0,62,63
 347 84 347 84 351 87 c 1,64,-1
 125 87 l 2,65,66
 123.866666667 86.9333333333 123.866666667 86.9333333333 122.751111111 86.9333333333 c 0,67,68
 107.133333333 86.9333333333 107.133333333 86.9333333333 95 100 c 0,69,70
 83 114 83 114 83 134 c 256,71,72
 83 154 83 154 95 168 c 0,73,74
 108 182 108 182 125 182 c 2,75,-1
 351 182 l 1,76,77
 348 184 348 184 345 188 c 0,78,79
 333 202 333 202 333 221 c 256,80,81
 333 241 333 241 345 255 c 0,82,83
 347 258 347 258 351 260 c 1,84,-1
 125 260 l 2,85,86
 108 260 108 260 95 274 c 0,87,88
 83 288 83 288 83 308 c 256,89,90
 83 328 83 328 95 342 c 0,91,92
 96 345 96 345 100 347 c 1,93,-1
 41 347 l 2,94,95
 24 347 24 347 12 361 c 256,96,97
 0 374 0 374 0 394 c 256,98,99
 0 414 0 414 12 428 c 256,100,101
 24 442 24 442 41 442 c 2,102,-1
 100 442 l 1,103,104
 97 444 97 444 95 448 c 0,105,106
 83 462 83 462 83 482 c 256,107,108
 83 502 83 502 95 515 c 0,109,110
 108 530 108 530 125 530 c 2,111,-1
 351 530 l 1,112,113
 348 532 348 532 345 535 c 0,114,115
 333 548 333 548 333 568 c 256,116,117
 333 588 333 588 345 602 c 256,118,119
 357 616 357 616 375 616 c 2,120,-1
 458 616 l 2,121,122
 476 616 476 616 488 602 c 128,-1,123
 500 588 500 588 500 568 c 256,124,125
 500 548 500 548 488 535 c 0,126,127
 486 532 486 532 482 530 c 1,128,-1
 708 530 l 2,129,130
 725 530 725 530 737 515 c 0,131,132
 750 502 750 502 750 482 c 256,133,134
 750 462 750 462 737 448 c 0,135,136
 725 434 725 434 708 434 c 2,137,-1
 482 434 l 1,138,139
 486 432 486 432 488 428 c 0,140,141
 500 414 500 414 500 394 c 256,142,143
 500 374 500 374 488 361 c 0,144,145
 486 358 486 358 482 356 c 1,146,-1
 708 356 l 2,147,148
 725 356 725 356 737 342 c 0,149,150
 750 328 750 328 750 308 c 256,151,152
 750 288 750 288 737 274 c 0,153,154
 735 270 735 270 733 268 c 1,155,-1
 791 268 l 2,156,157
 808 268 808 268 821 255 c 0,158,159
 833 241 833 241 833 221 c 256,160,161
 833 202 833 202 821 188 c 0,162,163
 808 174 808 174 791 173 c 2,164,-1
 733 173 l 1,165,166
 735 171 735 171 737 168 c 0,167,168
 750 154 750 154 750 134 c 256,169,170
 750 114 750 114 737 100 c 0,171,172
 725.8 86.9333333333 725.8 86.9333333333 710.244444444 86.9333333333 c 0,173,174
 709.133333333 86.9333333333 709.133333333 86.9333333333 708 87 c 2,175,-1
 482 87 l 1,176,177
 486 85 486 85 488 81 c 0,178,179
 500 67 500 67 500 47 c 256,180,181
 500 27 500 27 488 14 c 0,182,183
 475 0 475 0 458 0 c 2,184,-1
 375 0 l 2,56,57
EndSplineSet
Validated: 524289
EndChar

StartChar: percent
Encoding: 37 37 5
Width: 1280
VWidth: 750
Flags: W
LayerCount: 2
Fore
SplineSet
-41 -173 m 2,0,1
 -58 -173 -58 -173 -71 -160 c 0,2,3
 -83 -146 -83 -146 -83 -125 c 256,4,5
 -83 -105 -83 -105 -71 -92 c 0,6,7
 -58 -78 -58 -78 -41 -78 c 2,8,-1
 1292 -78 l 2,9,10
 1309 -78 1309 -78 1321 -92 c 256,11,12
 1333 -106 1333 -106 1333 -125 c 256,13,14
 1333 -145 1333 -145 1321 -160 c 0,15,16
 1310.73333333 -173.066666667 1310.73333333 -173.066666667 1294.36888889 -173.066666667 c 0,17,18
 1293.2 -173.066666667 1293.2 -173.066666667 1292 -173 c 2,19,-1
 -41 -173 l 2,0,1
934 95 m 1,20,21
 930 96 930 96 928 100 c 0,22,23
 916 114 916 114 916 134 c 256,24,25
 916 154 916 154 928 168 c 0,26,27
 930 171 930 171 934 173 c 1,28,-1
 733 173 l 1,29,30
 735 171 735 171 737 168 c 0,31,32
 750 154 750 154 750 134 c 256,33,34
 750 114 750 114 737 100 c 0,35,36
 735 97 735 97 733 95 c 1,37,-1
 934 95 l 1,20,21
708 0 m 2,38,39
 691 0 691 0 679 14 c 128,-1,40
 667 28 667 28 667 47 c 256,41,42
 667 67 667 67 679 81 c 0,43,44
 681 84 681 84 684 87 c 1,45,-1
 625 87 l 2,46,47
 623.866666667 86.9333333333 623.866666667 86.9333333333 622.755555556 86.9333333333 c 0,48,49
 607.2 86.9333333333 607.2 86.9333333333 596 100 c 0,50,51
 583 114 583 114 583 134 c 256,52,53
 584 154 584 154 596 168 c 128,-1,54
 608 182 608 182 625 182 c 2,55,-1
 684 182 l 1,56,57
 681 184 681 184 679 188 c 0,58,59
 667 202 667 202 667 221 c 256,60,61
 667 241 667 241 679 255 c 0,62,63
 692 268 692 268 708 268 c 2,64,-1
 958 268 l 2,65,66
 975 268 975 268 988 255 c 0,67,68
 1000 241 1000 241 1000 221 c 256,69,70
 1000 202 1000 202 988 188 c 0,71,72
 986 185 986 185 982 182 c 1,73,-1
 1042 182 l 2,74,75
 1059 182 1059 182 1071 168 c 0,76,77
 1083.07142857 155 1083.07142857 155 1083.07142857 136.826530612 c 0,78,79
 1083.07142857 114.083333333 1083.07142857 114.083333333 1071 100 c 0,80,81
 1059.8 86.9333333333 1059.8 86.9333333333 1044.24444444 86.9333333333 c 0,82,83
 1043.13333333 86.9333333333 1043.13333333 86.9333333333 1042 87 c 2,84,-1
 982 87 l 1,85,86
 985 85 985 85 988 81 c 0,87,88
 1000 67 1000 67 1000 47 c 256,89,90
 1000 27 1000 27 988 14 c 0,91,92
 975 0 975 0 958 0 c 2,93,-1
 708 0 l 2,38,39
267 442 m 1,94,95
 264 444 264 444 262 448 c 0,96,97
 250 462 250 462 250 482 c 256,98,99
 250 502 250 502 262 515 c 0,100,101
 264 518 264 518 267 520 c 1,102,-1
 65 520 l 1,103,104
 68 518 68 518 71 515 c 0,105,106
 83 502 83 502 83 482 c 256,107,108
 83 462 83 462 71 448 c 0,109,110
 69 444 69 444 65 442 c 1,111,-1
 267 442 l 1,94,95
292 87 m 2,112,113
 290.866666667 86.9333333333 290.866666667 86.9333333333 289.751111111 86.9333333333 c 0,114,115
 274.133333333 86.9333333333 274.133333333 86.9333333333 262 100 c 0,116,117
 250 114 250 114 250 134 c 256,118,119
 250 154 250 154 262 168 c 0,120,121
 275 182 275 182 292 182 c 2,122,-1
 351 182 l 1,123,124
 348 184 348 184 345 188 c 0,125,126
 333 202 333 202 333 221 c 256,127,128
 333 241 333 241 345 255 c 256,129,130
 357 268 357 268 375 268 c 2,131,-1
 434 268 l 1,132,133
 432 270 432 270 429 274 c 0,134,135
 416 288 416 288 416 308 c 256,136,137
 416 328 416 328 429 342 c 0,138,139
 441 356 441 356 458 356 c 2,140,-1
 518 356 l 1,141,142
 515 358 515 358 512 361 c 0,143,144
 500 374 500 374 500 394 c 256,145,146
 500 414 500 414 512 428 c 0,147,148
 526 442 526 442 542 442 c 2,149,-1
 601 442 l 1,150,151
 600 444 600 444 596 448 c 0,152,153
 583 462 583 462 583 482 c 256,154,155
 584 502 584 502 596 515 c 0,156,157
 608 530 608 530 625 530 c 2,158,-1
 708 530 l 2,159,160
 725 530 725 530 737 515 c 0,161,162
 750 502 750 502 750 482 c 256,163,164
 750 462 750 462 737 448 c 0,165,166
 725 434 725 434 708 434 c 2,167,-1
 649 434 l 1,168,169
 652 432 652 432 655 428 c 0,170,171
 667 414 667 414 667 394 c 256,172,173
 667 374 667 374 655 361 c 0,174,175
 642 347 642 347 625 347 c 2,176,-1
 566 347 l 1,177,178
 569 345 569 345 571 342 c 0,179,180
 583 328 583 328 583 308 c 256,181,182
 583 288 583 288 571 274 c 256,183,184
 560 260 560 260 542 260 c 2,185,-1
 482 260 l 1,186,187
 486 258 486 258 488 255 c 0,188,189
 500 241 500 241 500 221 c 256,190,191
 500 202 500 202 488 188 c 0,192,193
 475 174 475 174 458 173 c 2,194,-1
 399 173 l 1,195,196
 402 171 402 171 404 168 c 0,197,198
 416 154 416 154 416 134 c 256,199,200
 416 114 416 114 404 100 c 256,201,202
 392.8 86.9333333333 392.8 86.9333333333 377.244444444 86.9333333333 c 0,203,204
 376.133333333 86.9333333333 376.133333333 86.9333333333 375 87 c 2,205,-1
 292 87 l 2,112,113
41 347 m 2,206,207
 24 347 24 347 12 361 c 256,208,209
 0 374 0 374 0 394 c 256,210,211
 0 414 0 414 12 428 c 0,212,213
 14 431 14 431 17 434 c 1,214,-1
 -41 434 l 2,215,216
 -58 434 -58 434 -71 448 c 0,217,218
 -83 462 -83 462 -83 482 c 256,219,220
 -83 502 -83 502 -71 515 c 0,221,222
 -58 530 -58 530 -41 530 c 2,223,-1
 17 530 l 1,224,225
 15 532 15 532 12 535 c 0,226,227
 0 548 0 548 0 568 c 256,228,229
 0 588 0 588 12 602 c 256,230,231
 24 616 24 616 41 616 c 2,232,-1
 292 616 l 2,233,234
 309 616 309 616 321 602 c 0,235,236
 333.071428571 589 333.071428571 589 333.071428571 570.826530612 c 0,237,238
 333.071428571 548.077380952 333.071428571 548.077380952 321 535 c 0,239,240
 319 532 319 532 316 530 c 1,241,-1
 375 530 l 2,242,243
 392 530 392 530 404 515 c 256,244,245
 416 502 416 502 416 482 c 256,246,247
 416 462 416 462 404 448 c 256,248,249
 392 434 392 434 375 434 c 2,250,-1
 316 434 l 1,251,252
 318 432 318 432 321 428 c 0,253,254
 333.071428571 415 333.071428571 415 333.071428571 396.826530612 c 0,255,256
 333.071428571 374.077380952 333.071428571 374.077380952 321 361 c 0,257,258
 309 347 309 347 292 347 c 2,259,-1
 41 347 l 2,206,207
EndSplineSet
Validated: 524289
EndChar

StartChar: ampersand
Encoding: 38 38 6
Width: 1120
VWidth: 750
Flags: W
LayerCount: 2
Fore
SplineSet
-41 -173 m 2,0,1
 -58 -173 -58 -173 -71 -160 c 0,2,3
 -83 -146 -83 -146 -83 -125 c 256,4,5
 -83 -105 -83 -105 -71 -92 c 0,6,7
 -58 -78 -58 -78 -41 -78 c 2,8,-1
 1125 -78 l 2,9,10
 1142 -78 1142 -78 1154 -92 c 256,11,12
 1166 -106 1166 -106 1166 -125 c 256,13,14
 1166 -145 1166 -145 1154 -160 c 0,15,16
 1142.8 -173.066666667 1142.8 -173.066666667 1127.24444444 -173.066666667 c 0,17,18
 1126.13333333 -173.066666667 1126.13333333 -173.066666667 1125 -173 c 2,19,-1
 -41 -173 l 2,0,1
791 0 m 2,20,21
 774 0 774 0 762 14 c 256,22,23
 750 28 750 28 750 47 c 256,24,25
 750 67 750 67 762 81 c 256,26,27
 774 95 774 95 791 95 c 2,28,-1
 875 95 l 2,29,30
 892 95 892 95 904 81 c 128,-1,31
 916 67 916 67 916 47 c 256,32,33
 916 27 916 27 904 14 c 0,34,35
 892 0 892 0 875 0 c 2,36,-1
 791 0 l 2,20,21
625 87 m 2,37,38
 623.866666667 86.9333333333 623.866666667 86.9333333333 622.755555556 86.9333333333 c 0,39,40
 607.2 86.9333333333 607.2 86.9333333333 596 100 c 0,41,42
 583 114 583 114 583 134 c 256,43,44
 584 154 584 154 596 168 c 128,-1,45
 608 182 608 182 625 182 c 2,46,-1
 708 182 l 2,47,48
 725 182 725 182 737 168 c 0,49,50
 750 154 750 154 750 134 c 256,51,52
 750 114 750 114 737 100 c 0,53,54
 725.8 86.9333333333 725.8 86.9333333333 710.244444444 86.9333333333 c 0,55,56
 709.133333333 86.9333333333 709.133333333 86.9333333333 708 87 c 2,57,-1
 625 87 l 2,37,38
125 0 m 2,58,59
 108 0 108 0 95 14 c 0,60,61
 83 28 83 28 83 47 c 256,62,63
 83 67 83 67 95 81 c 0,64,65
 96 84 96 84 100 87 c 1,66,-1
 41 87 l 2,67,68
 39.8666666667 86.9333333333 39.8666666667 86.9333333333 38.7555555556 86.9333333333 c 0,69,70
 23.2 86.9333333333 23.2 86.9333333333 12 100 c 256,71,72
 0 114 0 114 0 134 c 256,73,74
 0 154 0 154 12 168 c 256,75,76
 24 182 24 182 41 182 c 2,77,-1
 100 182 l 1,78,79
 97 184 97 184 95 188 c 0,80,81
 83 202 83 202 83 221 c 256,82,83
 83 241 83 241 95 255 c 0,84,85
 108 268 108 268 125 268 c 2,86,-1
 208 268 l 2,87,88
 225 268 225 268 238 255 c 0,89,90
 250 241 250 241 250 221 c 256,91,92
 250 202 250 202 238 188 c 0,93,94
 225 174 225 174 208 173 c 2,95,-1
 149 173 l 1,96,97
 150 171 150 171 154 168 c 0,98,99
 166 154 166 154 166 134 c 256,100,101
 166 114 166 114 154 100 c 0,102,103
 152 97 152 97 149 95 c 1,104,-1
 542 95 l 2,105,106
 559 95 559 95 571 81 c 256,107,108
 583 67 583 67 583 47 c 256,109,110
 583 27 583 27 571 14 c 256,111,112
 560 0 560 0 542 0 c 2,113,-1
 125 0 l 2,58,59
458 173 m 2,114,115
 441 174 441 174 429 188 c 0,116,117
 416 202 416 202 416 221 c 256,118,119
 416 241 416 241 429 255 c 0,120,121
 441 268 441 268 458 268 c 2,122,-1
 542 268 l 2,123,124
 559 268 559 268 571 255 c 256,125,126
 583 241 583 241 583 221 c 256,127,128
 583 202 583 202 571 188 c 256,129,130
 560 174 560 174 542 173 c 2,131,-1
 458 173 l 2,114,115
791 173 m 2,132,133
 774 174 774 174 762 188 c 256,134,135
 750 202 750 202 750 221 c 256,136,137
 750 241 750 241 762 255 c 256,138,139
 774 268 774 268 791 268 c 2,140,-1
 850 268 l 1,141,142
 847 270 847 270 845 274 c 0,143,144
 833 288 833 288 833 308 c 256,145,146
 833 328 833 328 845 342 c 0,147,148
 858 356 858 356 875 356 c 2,149,-1
 958 356 l 2,150,151
 975 356 975 356 988 342 c 0,152,153
 1000 328 1000 328 1000 308 c 256,154,155
 1000 288 1000 288 988 274 c 0,156,157
 975 260 975 260 958 260 c 2,158,-1
 899 260 l 1,159,160
 900 258 900 258 904 255 c 0,161,162
 916 241 916 241 916 221 c 256,163,164
 916 202 916 202 904 188 c 128,-1,165
 892 174 892 174 875 173 c 2,166,-1
 791 173 l 2,132,133
292 260 m 2,167,168
 275 260 275 260 262 274 c 0,169,170
 250 288 250 288 250 308 c 256,171,172
 250 328 250 328 262 342 c 0,173,174
 264 345 264 345 267 347 c 1,175,-1
 208 347 l 2,176,177
 190 347 190 347 178 361 c 256,178,179
 166 374 166 374 166 394 c 256,180,181
 166 414 166 414 178 428 c 0,182,183
 180 431 180 431 184 434 c 1,184,-1
 125 434 l 2,185,186
 108 434 108 434 95 448 c 0,187,188
 83 462 83 462 83 482 c 256,189,190
 83 502 83 502 95 515 c 0,191,192
 108 530 108 530 125 530 c 2,193,-1
 184 530 l 1,194,195
 180 532 180 532 178 535 c 0,196,197
 166 548 166 548 166 568 c 256,198,199
 166 588 166 588 178 602 c 256,200,201
 190 616 190 616 208 616 c 2,202,-1
 625 616 l 2,203,204
 642 616 642 616 655 602 c 0,205,206
 667 588 667 588 667 568 c 256,207,208
 667 548 667 548 655 535 c 0,209,210
 653 532 653 532 649 530 c 1,211,-1
 708 530 l 2,212,213
 725 530 725 530 737 515 c 0,214,215
 750 502 750 502 750 482 c 256,216,217
 750 462 750 462 737 448 c 0,218,219
 725 434 725 434 708 434 c 2,220,-1
 625 434 l 2,221,222
 608 434 608 434 596 448 c 0,223,224
 583 462 583 462 583 482 c 256,225,226
 584 502 584 502 596 515 c 0,227,228
 598 518 598 518 601 520 c 1,229,-1
 232 520 l 1,230,231
 235 518 235 518 238 515 c 0,232,233
 250 502 250 502 250 482 c 256,234,235
 250 462 250 462 238 448 c 0,236,237
 236 444 236 444 232 442 c 1,238,-1
 292 442 l 2,239,240
 309 442 309 442 321 428 c 0,241,242
 333.071428571 415 333.071428571 415 333.071428571 396.826530612 c 0,243,244
 333.071428571 374.077380952 333.071428571 374.077380952 321 361 c 0,245,246
 319 358 319 358 316 356 c 1,247,-1
 375 356 l 2,248,249
 392 356 392 356 404 342 c 256,250,251
 416 328 416 328 416 308 c 256,252,253
 416 288 416 288 404 274 c 256,254,255
 392 260 392 260 375 260 c 2,256,-1
 292 260 l 2,167,168
EndSplineSet
Validated: 524289
EndChar

StartChar: quotesingle
Encoding: 39 39 7
Width: 560
VWidth: 750
Flags: W
LayerCount: 2
Fore
SplineSet
-41 -173 m 2,0,1
 -58 -173 -58 -173 -71 -160 c 0,2,3
 -83 -146 -83 -146 -83 -125 c 256,4,5
 -83 -105 -83 -105 -71 -92 c 0,6,7
 -58 -78 -58 -78 -41 -78 c 2,8,-1
 542 -78 l 2,9,10
 559 -78 559 -78 571 -92 c 256,11,12
 583 -106 583 -106 583 -125 c 256,13,14
 583 -145 583 -145 571 -160 c 0,15,16
 560.733333333 -173.066666667 560.733333333 -173.066666667 544.368888889 -173.066666667 c 0,17,18
 543.2 -173.066666667 543.2 -173.066666667 542 -173 c 2,19,-1
 -41 -173 l 2,0,1
41 347 m 2,20,21
 24 347 24 347 12 361 c 256,22,23
 0 374 0 374 0 394 c 256,24,25
 0 414 0 414 12 428 c 256,26,27
 24 442 24 442 41 442 c 2,28,-1
 100 442 l 1,29,30
 97 444 97 444 95 448 c 0,31,32
 83 462 83 462 83 482 c 256,33,34
 83 502 83 502 95 515 c 0,35,36
 108 530 108 530 125 530 c 2,37,-1
 184 530 l 1,38,39
 180 532 180 532 178 535 c 0,40,41
 166 548 166 548 166 568 c 256,42,43
 166 588 166 588 178 602 c 256,44,45
 190 616 190 616 208 616 c 2,46,-1
 292 616 l 2,47,48
 309 616 309 616 321 602 c 0,49,50
 333.071428571 589 333.071428571 589 333.071428571 570.826530612 c 0,51,52
 333.071428571 548.077380952 333.071428571 548.077380952 321 535 c 0,53,54
 309 520 309 520 292 520 c 2,55,-1
 232 520 l 1,56,57
 235 518 235 518 238 515 c 0,58,59
 250 502 250 502 250 482 c 256,60,61
 250 462 250 462 238 448 c 0,62,63
 225 434 225 434 208 434 c 2,64,-1
 149 434 l 1,65,66
 150 432 150 432 154 428 c 0,67,68
 166 414 166 414 166 394 c 256,69,70
 166 374 166 374 154 361 c 0,71,72
 142 347 142 347 125 347 c 2,73,-1
 41 347 l 2,20,21
EndSplineSet
Validated: 524289
EndChar

StartChar: parenleft
Encoding: 40 40 8
Width: 560
VWidth: 750
Flags: W
LayerCount: 2
Fore
SplineSet
-41 -173 m 2,0,1
 -58 -173 -58 -173 -71 -160 c 0,2,3
 -83 -146 -83 -146 -83 -125 c 256,4,5
 -83 -105 -83 -105 -71 -92 c 0,6,7
 -58 -78 -58 -78 -41 -78 c 2,8,-1
 542 -78 l 2,9,10
 559 -78 559 -78 571 -92 c 256,11,12
 583 -106 583 -106 583 -125 c 256,13,14
 583 -145 583 -145 571 -160 c 0,15,16
 560.733333333 -173.066666667 560.733333333 -173.066666667 544.368888889 -173.066666667 c 0,17,18
 543.2 -173.066666667 543.2 -173.066666667 542 -173 c 2,19,-1
 -41 -173 l 2,0,1
208 0 m 2,20,21
 190 0 190 0 178 14 c 256,22,23
 166 28 166 28 166 47 c 256,24,25
 166 67 166 67 178 81 c 0,26,27
 180 84 180 84 184 87 c 1,28,-1
 125 87 l 2,29,30
 123.866666667 86.9333333333 123.866666667 86.9333333333 122.751111111 86.9333333333 c 0,31,32
 107.133333333 86.9333333333 107.133333333 86.9333333333 95 100 c 0,33,34
 83 114 83 114 83 134 c 256,35,36
 83 154 83 154 95 168 c 0,37,38
 96 171 96 171 100 173 c 1,39,-1
 41 173 l 2,40,41
 24 174 24 174 12 188 c 256,42,43
 0 202 0 202 0 221 c 256,44,45
 0 241 0 241 12 255 c 0,46,47
 17 261 17 261 24 265 c 1,48,-1
 24 265 l 1,49,50
 18 268 18 268 12 274 c 0,51,52
 0 288 0 288 0 308 c 256,53,54
 0 328 0 328 12 342 c 0,55,56
 17 348 17 348 24 352 c 1,57,-1
 24 352 l 1,58,59
 18 355 18 355 12 361 c 0,60,61
 0 374 0 374 0 394 c 256,62,63
 0 414 0 414 12 428 c 256,64,65
 24 442 24 442 41 442 c 2,66,-1
 100 442 l 1,67,68
 97 444 97 444 95 448 c 0,69,70
 83 462 83 462 83 482 c 256,71,72
 83 502 83 502 95 515 c 0,73,74
 108 530 108 530 125 530 c 2,75,-1
 184 530 l 1,76,77
 180 532 180 532 178 535 c 0,78,79
 166 548 166 548 166 568 c 256,80,81
 166 588 166 588 178 602 c 256,82,83
 190 616 190 616 208 616 c 2,84,-1
 292 616 l 2,85,86
 309 616 309 616 321 602 c 0,87,88
 333.071428571 589 333.071428571 589 333.071428571 570.826530612 c 0,89,90
 333.071428571 548.077380952 333.071428571 548.077380952 321 535 c 0,91,92
 309 520 309 520 292 520 c 2,93,-1
 232 520 l 1,94,95
 235 518 235 518 238 515 c 0,96,97
 250 502 250 502 250 482 c 256,98,99
 250 462 250 462 238 448 c 0,100,101
 225 434 225 434 208 434 c 2,102,-1
 149 434 l 1,103,104
 150 432 150 432 154 428 c 0,105,106
 166 414 166 414 166 394 c 256,107,108
 166 374 166 374 154 361 c 0,109,110
 148 355 148 355 142 352 c 1,111,-1
 142 352 l 1,112,113
 148 348 148 348 154 342 c 0,114,115
 166 328 166 328 166 308 c 256,116,117
 166 288 166 288 154 274 c 0,118,119
 148 268 148 268 142 265 c 1,120,-1
 142 265 l 1,121,122
 148 262 148 262 154 255 c 0,123,124
 166 241 166 241 166 221 c 256,125,126
 166 202 166 202 154 188 c 0,127,128
 152 185 152 185 149 182 c 1,129,-1
 208 182 l 2,130,131
 225 182 225 182 238 168 c 0,132,133
 250 154 250 154 250 134 c 256,134,135
 250 114 250 114 238 100 c 0,136,137
 236 97 236 97 232 95 c 1,138,-1
 292 95 l 2,139,140
 309 95 309 95 321 81 c 0,141,142
 333.071428571 68 333.071428571 68 333.071428571 49.8265306122 c 0,143,144
 333.071428571 27.0773809524 333.071428571 27.0773809524 321 14 c 0,145,146
 309 0 309 0 292 0 c 2,147,-1
 208 0 l 2,20,21
EndSplineSet
Validated: 524293
EndChar

StartChar: parenright
Encoding: 41 41 9
Width: 560
VWidth: 750
Flags: W
LayerCount: 2
Fore
SplineSet
-41 -173 m 2,0,1
 -58 -173 -58 -173 -71 -160 c 0,2,3
 -83 -146 -83 -146 -83 -125 c 256,4,5
 -83 -105 -83 -105 -71 -92 c 0,6,7
 -58 -78 -58 -78 -41 -78 c 2,8,-1
 542 -78 l 2,9,10
 559 -78 559 -78 571 -92 c 256,11,12
 583 -106 583 -106 583 -125 c 256,13,14
 583 -145 583 -145 571 -160 c 0,15,16
 560.733333333 -173.066666667 560.733333333 -173.066666667 544.368888889 -173.066666667 c 0,17,18
 543.2 -173.066666667 543.2 -173.066666667 542 -173 c 2,19,-1
 -41 -173 l 2,0,1
41 0 m 2,20,21
 24 0 24 0 12 14 c 256,22,23
 0 28 0 28 0 47 c 256,24,25
 0 67 0 67 12 81 c 256,26,27
 24 95 24 95 41 95 c 2,28,-1
 100 95 l 1,29,30
 97 96 97 96 95 100 c 0,31,32
 83 114 83 114 83 134 c 256,33,34
 83 154 83 154 95 168 c 0,35,36
 108 182 108 182 125 182 c 2,37,-1
 184 182 l 1,38,39
 180 184 180 184 178 188 c 0,40,41
 166 202 166 202 166 221 c 256,42,43
 166 241 166 241 178 255 c 0,44,45
 182 261 182 261 190 265 c 1,46,-1
 190 265 l 1,47,48
 184 268 184 268 178 274 c 0,49,50
 166 288 166 288 166 308 c 256,51,52
 166 328 166 328 178 342 c 0,53,54
 182 348 182 348 190 352 c 1,55,-1
 190 352 l 1,56,57
 184 355 184 355 178 361 c 0,58,59
 166 374 166 374 166 394 c 256,60,61
 166 414 166 414 178 428 c 0,62,63
 180 431 180 431 184 434 c 1,64,-1
 125 434 l 2,65,66
 108 434 108 434 95 448 c 0,67,68
 83 462 83 462 83 482 c 256,69,70
 83 502 83 502 95 515 c 0,71,72
 96 518 96 518 100 520 c 1,73,-1
 41 520 l 2,74,75
 24 520 24 520 12 535 c 256,76,77
 0 548 0 548 0 568 c 256,78,79
 0 588 0 588 12 602 c 256,80,81
 24 616 24 616 41 616 c 2,82,-1
 125 616 l 2,83,84
 142 616 142 616 154 602 c 128,-1,85
 166 588 166 588 166 568 c 256,86,87
 166 548 166 548 154 535 c 0,88,89
 152 532 152 532 149 530 c 1,90,-1
 208 530 l 2,91,92
 225 530 225 530 238 515 c 0,93,94
 250 502 250 502 250 482 c 256,95,96
 250 462 250 462 238 448 c 0,97,98
 236 444 236 444 232 442 c 1,99,-1
 292 442 l 2,100,101
 309 442 309 442 321 428 c 0,102,103
 333.071428571 415 333.071428571 415 333.071428571 396.826530612 c 0,104,105
 333.071428571 374.077380952 333.071428571 374.077380952 321 361 c 0,106,107
 316 355 316 355 309 352 c 1,108,-1
 309 352 l 1,109,110
 316 348 316 348 321 342 c 0,111,112
 333.071428571 329 333.071428571 329 333.071428571 310.826530612 c 0,113,114
 333.071428571 288.083333333 333.071428571 288.083333333 321 274 c 0,115,116
 316 268 316 268 309 265 c 1,117,-1
 309 265 l 1,118,119
 316 262 316 262 321 255 c 0,120,121
 333.071428571 242 333.071428571 242 333.071428571 223.826530612 c 0,122,123
 333.071428571 202.083333333 333.071428571 202.083333333 321 188 c 128,-1,124
 309 174 309 174 292 173 c 2,125,-1
 232 173 l 1,126,127
 235 171 235 171 238 168 c 0,128,129
 250 154 250 154 250 134 c 256,130,131
 250 114 250 114 238 100 c 0,132,133
 225.866666667 86.9333333333 225.866666667 86.9333333333 210.248888889 86.9333333333 c 0,134,135
 209.133333333 86.9333333333 209.133333333 86.9333333333 208 87 c 2,136,-1
 149 87 l 1,137,138
 150 85 150 85 154 81 c 0,139,140
 166 67 166 67 166 47 c 256,141,142
 166 27 166 27 154 14 c 0,143,144
 142 0 142 0 125 0 c 2,145,-1
 41 0 l 2,20,21
EndSplineSet
Validated: 524293
EndChar

StartChar: asterisk
Encoding: 42 42 10
Width: 960
VWidth: 750
Flags: W
LayerCount: 2
Fore
SplineSet
-41 -173 m 2,0,1
 -58 -173 -58 -173 -71 -160 c 0,2,3
 -83 -146 -83 -146 -83 -125 c 256,4,5
 -83 -105 -83 -105 -71 -92 c 0,6,7
 -58 -78 -58 -78 -41 -78 c 2,8,-1
 958 -78 l 2,9,10
 975 -78 975 -78 988 -92 c 0,11,12
 1000 -106 1000 -106 1000 -125 c 256,13,14
 1000 -145 1000 -145 988 -160 c 0,15,16
 975.866666667 -173.066666667 975.866666667 -173.066666667 960.248888889 -173.066666667 c 0,17,18
 959.133333333 -173.066666667 959.133333333 -173.066666667 958 -173 c 2,19,-1
 -41 -173 l 2,0,1
518 268 m 1,20,21
 515 270 515 270 512 274 c 0,22,23
 500 288 500 288 500 308 c 256,24,25
 500 328 500 328 512 342 c 0,26,27
 514 345 514 345 518 347 c 1,28,-1
 316 347 l 1,29,30
 318 345 318 345 321 342 c 0,31,32
 333.071428571 329 333.071428571 329 333.071428571 310.826530612 c 0,33,34
 333.071428571 288.083333333 333.071428571 288.083333333 321 274 c 0,35,36
 319 270 319 270 316 268 c 1,37,-1
 518 268 l 1,20,21
208 87 m 2,38,39
 206.8 86.9333333333 206.8 86.9333333333 205.626666667 86.9333333333 c 0,40,41
 189.2 86.9333333333 189.2 86.9333333333 178 100 c 256,42,43
 166 114 166 114 166 134 c 256,44,45
 166 154 166 154 178 168 c 256,46,47
 190 182 190 182 208 182 c 2,48,-1
 267 182 l 1,49,50
 264 184 264 184 262 188 c 0,51,52
 250 202 250 202 250 221 c 256,53,54
 250 241 250 241 262 255 c 0,55,56
 264 258 264 258 267 260 c 1,57,-1
 41 260 l 2,58,59
 24 260 24 260 12 274 c 256,60,61
 0 288 0 288 0 308 c 256,62,63
 0 328 0 328 12 342 c 256,64,65
 24 356 24 356 41 356 c 2,66,-1
 267 356 l 1,67,68
 264 358 264 358 262 361 c 0,69,70
 250 374 250 374 250 394 c 256,71,72
 250 414 250 414 262 428 c 0,73,74
 264 431 264 431 267 434 c 1,75,-1
 208 434 l 2,76,77
 190 434 190 434 178 448 c 256,78,79
 166 462 166 462 166 482 c 256,80,81
 166 502 166 502 178 515 c 256,82,83
 190 530 190 530 208 530 c 2,84,-1
 292 530 l 2,85,86
 309 530 309 530 321 515 c 0,87,88
 333.071428571 502.928571429 333.071428571 502.928571429 333.071428571 484.821428571 c 0,89,90
 333.071428571 462.083333333 333.071428571 462.083333333 321 448 c 0,91,92
 319 444 319 444 316 442 c 1,93,-1
 518 442 l 1,94,95
 515 444 515 444 512 448 c 0,96,97
 500 462 500 462 500 482 c 256,98,99
 500 502 500 502 512 515 c 0,100,101
 526 530 526 530 542 530 c 2,102,-1
 625 530 l 2,103,104
 642 530 642 530 655 515 c 0,105,106
 667 502 667 502 667 482 c 256,107,108
 667 462 667 462 655 448 c 0,109,110
 642 434 642 434 625 434 c 2,111,-1
 566 434 l 1,112,113
 569 432 569 432 571 428 c 0,114,115
 583 414 583 414 583 394 c 256,116,117
 583 374 583 374 571 361 c 0,118,119
 570 358 570 358 566 356 c 1,120,-1
 791 356 l 2,121,122
 808 356 808 356 821 342 c 0,123,124
 833 328 833 328 833 308 c 256,125,126
 833 288 833 288 821 274 c 0,127,128
 808 260 808 260 791 260 c 2,129,-1
 566 260 l 1,130,131
 569 258 569 258 571 255 c 0,132,133
 583 241 583 241 583 221 c 256,134,135
 583 202 583 202 571 188 c 0,136,137
 570 185 570 185 566 182 c 1,138,-1
 625 182 l 2,139,140
 642 182 642 182 655 168 c 0,141,142
 667 154 667 154 667 134 c 256,143,144
 667 114 667 114 655 100 c 0,145,146
 642.866666667 86.9333333333 642.866666667 86.9333333333 627.248888889 86.9333333333 c 0,147,148
 626.133333333 86.9333333333 626.133333333 86.9333333333 625 87 c 2,149,-1
 542 87 l 2,150,151
 540.866666667 86.9333333333 540.866666667 86.9333333333 539.751111111 86.9333333333 c 0,152,153
 524.133333333 86.9333333333 524.133333333 86.9333333333 512 100 c 0,154,155
 500 114 500 114 500 134 c 256,156,157
 500 154 500 154 512 168 c 0,158,159
 514 171 514 171 518 173 c 1,160,-1
 316 173 l 1,161,162
 318 171 318 171 321 168 c 0,163,164
 333.071428571 155 333.071428571 155 333.071428571 136.826530612 c 0,165,166
 333.071428571 114.083333333 333.071428571 114.083333333 321 100 c 0,167,168
 309.8 86.9333333333 309.8 86.9333333333 294.244444444 86.9333333333 c 0,169,170
 293.133333333 86.9333333333 293.133333333 86.9333333333 292 87 c 2,171,-1
 208 87 l 2,38,39
EndSplineSet
Validated: 524289
EndChar

StartChar: plus
Encoding: 43 43 11
Width: 960
VWidth: 750
Flags: W
LayerCount: 2
Fore
SplineSet
-41 -173 m 2,0,1
 -58 -173 -58 -173 -71 -160 c 0,2,3
 -83 -146 -83 -146 -83 -125 c 256,4,5
 -83 -105 -83 -105 -71 -92 c 0,6,7
 -58 -78 -58 -78 -41 -78 c 2,8,-1
 958 -78 l 2,9,10
 975 -78 975 -78 988 -92 c 0,11,12
 1000 -106 1000 -106 1000 -125 c 256,13,14
 1000 -145 1000 -145 988 -160 c 0,15,16
 975.866666667 -173.066666667 975.866666667 -173.066666667 960.248888889 -173.066666667 c 0,17,18
 959.133333333 -173.066666667 959.133333333 -173.066666667 958 -173 c 2,19,-1
 -41 -173 l 2,0,1
375 87 m 2,20,21
 373.866666667 86.9333333333 373.866666667 86.9333333333 372.751111111 86.9333333333 c 0,22,23
 357.133333333 86.9333333333 357.133333333 86.9333333333 345 100 c 256,24,25
 333 114 333 114 333 134 c 256,26,27
 333 154 333 154 345 168 c 0,28,29
 350 174 350 174 357 178 c 1,30,-1
 357 178 l 1,31,32
 351 182 351 182 345 188 c 0,33,34
 333 202 333 202 333 221 c 256,35,36
 333 241 333 241 345 255 c 0,37,38
 347 258 347 258 351 260 c 1,39,-1
 41 260 l 2,40,41
 24 260 24 260 12 274 c 256,42,43
 0 288 0 288 0 308 c 256,44,45
 0 328 0 328 12 342 c 256,46,47
 24 356 24 356 41 356 c 2,48,-1
 351 356 l 1,49,50
 348 358 348 358 345 361 c 0,51,52
 333 374 333 374 333 394 c 256,53,54
 333 414 333 414 345 428 c 0,55,56
 350 434 350 434 357 438 c 1,57,-1
 357 438 l 1,58,59
 351 441 351 441 345 448 c 0,60,61
 333 462 333 462 333 482 c 256,62,63
 333 502 333 502 345 515 c 256,64,65
 357 530 357 530 375 530 c 2,66,-1
 458 530 l 2,67,68
 476 530 476 530 488 515 c 0,69,70
 500 502 500 502 500 482 c 256,71,72
 500 462 500 462 488 448 c 0,73,74
 484 442 484 442 476 438 c 1,75,-1
 476 438 l 1,76,77
 484 434 484 434 488 428 c 0,78,79
 500 414 500 414 500 394 c 256,80,81
 500 374 500 374 488 361 c 0,82,83
 486 358 486 358 482 356 c 1,84,-1
 791 356 l 2,85,86
 808 356 808 356 821 342 c 0,87,88
 833 328 833 328 833 308 c 256,89,90
 833 288 833 288 821 274 c 0,91,92
 808 260 808 260 791 260 c 2,93,-1
 482 260 l 1,94,95
 486 258 486 258 488 255 c 0,96,97
 500 241 500 241 500 221 c 256,98,99
 500 202 500 202 488 188 c 0,100,101
 484 182 484 182 476 178 c 1,102,-1
 476 178 l 1,103,104
 484 175 484 175 488 168 c 0,105,106
 500 154 500 154 500 134 c 256,107,108
 500 114 500 114 488 100 c 0,109,110
 475.866666667 86.9333333333 475.866666667 86.9333333333 460.248888889 86.9333333333 c 0,111,112
 459.133333333 86.9333333333 459.133333333 86.9333333333 458 87 c 2,113,-1
 375 87 l 2,20,21
EndSplineSet
Validated: 524293
EndChar

StartChar: comma
Encoding: 44 44 12
Width: 560
VWidth: 750
Flags: W
LayerCount: 2
Fore
SplineSet
-41 -173 m 2,0,1
 -58 -173 -58 -173 -71 -160 c 0,2,3
 -83 -146 -83 -146 -83 -125 c 256,4,5
 -83 -105 -83 -105 -71 -92 c 0,6,7
 -58 -78 -58 -78 -41 -78 c 2,8,-1
 17 -78 l 1,9,10
 15 -76 15 -76 12 -73 c 0,11,12
 0 -59 0 -59 0 -39 c 256,13,14
 0 -19 0 -19 12 -5 c 0,15,16
 23.2 8.06666666667 23.2 8.06666666667 38.7555555556 8.06666666667 c 0,17,18
 39.8666666667 8.06666666667 39.8666666667 8.06666666667 41 8 c 2,19,-1
 100 8 l 1,20,21
 97 10 97 10 95 14 c 0,22,23
 83 28 83 28 83 47 c 256,24,25
 83 67 83 67 95 81 c 0,26,27
 96 84 96 84 100 87 c 1,28,-1
 41 87 l 2,29,30
 39.8666666667 86.9333333333 39.8666666667 86.9333333333 38.7555555556 86.9333333333 c 0,31,32
 23.2 86.9333333333 23.2 86.9333333333 12 100 c 256,33,34
 0 114 0 114 0 134 c 256,35,36
 0 154 0 154 12 168 c 256,37,38
 24 182 24 182 41 182 c 2,39,-1
 100 182 l 1,40,41
 97 184 97 184 95 188 c 0,42,43
 83 202 83 202 83 221 c 256,44,45
 83 241 83 241 95 255 c 0,46,47
 108 268 108 268 125 268 c 2,48,-1
 208 268 l 2,49,50
 225 268 225 268 238 255 c 0,51,52
 250 241 250 241 250 221 c 256,53,54
 250 202 250 202 238 188 c 0,55,56
 236 185 236 185 232 182 c 1,57,-1
 292 182 l 2,58,59
 309 182 309 182 321 168 c 0,60,61
 333.071428571 155 333.071428571 155 333.071428571 136.826530612 c 0,62,63
 333.071428571 114.083333333 333.071428571 114.083333333 321 100 c 0,64,65
 309.8 86.9333333333 309.8 86.9333333333 294.244444444 86.9333333333 c 0,66,67
 293.133333333 86.9333333333 293.133333333 86.9333333333 292 87 c 2,68,-1
 232 87 l 1,69,70
 235 85 235 85 238 81 c 0,71,72
 250 67 250 67 250 47 c 256,73,74
 250 27 250 27 238 14 c 0,75,76
 225 0 225 0 208 0 c 2,77,-1
 149 0 l 1,78,79
 150 -2 150 -2 154 -5 c 0,80,81
 166 -19 166 -19 166 -39 c 256,82,83
 166 -59 166 -59 154 -73 c 0,84,85
 152 -76 152 -76 149 -78 c 1,86,-1
 542 -78 l 2,87,88
 559 -78 559 -78 571 -92 c 256,89,90
 583 -106 583 -106 583 -125 c 256,91,92
 583 -145 583 -145 571 -160 c 0,93,94
 560.733333333 -173.066666667 560.733333333 -173.066666667 544.368888889 -173.066666667 c 0,95,96
 543.2 -173.066666667 543.2 -173.066666667 542 -173 c 2,97,-1
 -41 -173 l 2,0,1
EndSplineSet
Validated: 524289
EndChar

StartChar: hyphen
Encoding: 45 45 13
Width: 960
VWidth: 750
Flags: W
LayerCount: 2
Fore
SplineSet
-41 -173 m 2,0,1
 -58 -173 -58 -173 -71 -160 c 0,2,3
 -83 -146 -83 -146 -83 -125 c 256,4,5
 -83 -105 -83 -105 -71 -92 c 0,6,7
 -58 -78 -58 -78 -41 -78 c 2,8,-1
 958 -78 l 2,9,10
 975 -78 975 -78 988 -92 c 0,11,12
 1000 -106 1000 -106 1000 -125 c 256,13,14
 1000 -145 1000 -145 988 -160 c 0,15,16
 975.866666667 -173.066666667 975.866666667 -173.066666667 960.248888889 -173.066666667 c 0,17,18
 959.133333333 -173.066666667 959.133333333 -173.066666667 958 -173 c 2,19,-1
 -41 -173 l 2,0,1
41 260 m 2,20,21
 24 260 24 260 12 274 c 256,22,23
 0 288 0 288 0 308 c 256,24,25
 0 328 0 328 12 342 c 256,26,27
 24 356 24 356 41 356 c 2,28,-1
 791 356 l 2,29,30
 808 356 808 356 821 342 c 0,31,32
 833 328 833 328 833 308 c 256,33,34
 833 288 833 288 821 274 c 0,35,36
 808 260 808 260 791 260 c 2,37,-1
 41 260 l 2,20,21
EndSplineSet
Validated: 524289
EndChar

StartChar: period
Encoding: 46 46 14
Width: 560
VWidth: 750
Flags: W
LayerCount: 2
Fore
SplineSet
-41 -173 m 2,0,1
 -58 -173 -58 -173 -71 -160 c 0,2,3
 -83 -146 -83 -146 -83 -125 c 256,4,5
 -83 -105 -83 -105 -71 -92 c 0,6,7
 -58 -78 -58 -78 -41 -78 c 2,8,-1
 542 -78 l 2,9,10
 559 -78 559 -78 571 -92 c 256,11,12
 583 -106 583 -106 583 -125 c 256,13,14
 583 -145 583 -145 571 -160 c 0,15,16
 560.733333333 -173.066666667 560.733333333 -173.066666667 544.368888889 -173.066666667 c 0,17,18
 543.2 -173.066666667 543.2 -173.066666667 542 -173 c 2,19,-1
 -41 -173 l 2,0,1
125 0 m 2,20,21
 108 0 108 0 95 14 c 0,22,23
 83 28 83 28 83 47 c 256,24,25
 83 67 83 67 95 81 c 0,26,27
 96 84 96 84 100 87 c 1,28,-1
 41 87 l 2,29,30
 39.8666666667 86.9333333333 39.8666666667 86.9333333333 38.7555555556 86.9333333333 c 0,31,32
 23.2 86.9333333333 23.2 86.9333333333 12 100 c 256,33,34
 0 114 0 114 0 134 c 256,35,36
 0 154 0 154 12 168 c 256,37,38
 24 182 24 182 41 182 c 2,39,-1
 100 182 l 1,40,41
 97 184 97 184 95 188 c 0,42,43
 83 202 83 202 83 221 c 256,44,45
 83 241 83 241 95 255 c 0,46,47
 108 268 108 268 125 268 c 2,48,-1
 208 268 l 2,49,50
 225 268 225 268 238 255 c 0,51,52
 250 241 250 241 250 221 c 256,53,54
 250 202 250 202 238 188 c 0,55,56
 236 185 236 185 232 182 c 1,57,-1
 292 182 l 2,58,59
 309 182 309 182 321 168 c 0,60,61
 333.071428571 155 333.071428571 155 333.071428571 136.826530612 c 0,62,63
 333.071428571 114.083333333 333.071428571 114.083333333 321 100 c 0,64,65
 309.8 86.9333333333 309.8 86.9333333333 294.244444444 86.9333333333 c 0,66,67
 293.133333333 86.9333333333 293.133333333 86.9333333333 292 87 c 2,68,-1
 232 87 l 1,69,70
 235 85 235 85 238 81 c 0,71,72
 250 67 250 67 250 47 c 256,73,74
 250 27 250 27 238 14 c 0,75,76
 225 0 225 0 208 0 c 2,77,-1
 125 0 l 2,20,21
EndSplineSet
Validated: 524289
EndChar

StartChar: slash
Encoding: 47 47 15
Width: 960
VWidth: 750
Flags: W
LayerCount: 2
Fore
SplineSet
-41 -173 m 2,0,1
 -58 -173 -58 -173 -71 -160 c 0,2,3
 -83 -146 -83 -146 -83 -125 c 256,4,5
 -83 -105 -83 -105 -71 -92 c 0,6,7
 -58 -78 -58 -78 -41 -78 c 2,8,-1
 958 -78 l 2,9,10
 975 -78 975 -78 988 -92 c 0,11,12
 1000 -106 1000 -106 1000 -125 c 256,13,14
 1000 -145 1000 -145 988 -160 c 0,15,16
 975.866666667 -173.066666667 975.866666667 -173.066666667 960.248888889 -173.066666667 c 0,17,18
 959.133333333 -173.066666667 959.133333333 -173.066666667 958 -173 c 2,19,-1
 -41 -173 l 2,0,1
41 0 m 2,20,21
 24 0 24 0 12 14 c 256,22,23
 0 28 0 28 0 47 c 256,24,25
 0 67 0 67 12 81 c 256,26,27
 24 95 24 95 41 95 c 2,28,-1
 125 95 l 2,29,30
 142 95 142 95 154 81 c 128,-1,31
 166 67 166 67 166 47 c 256,32,33
 166 27 166 27 154 14 c 0,34,35
 142 0 142 0 125 0 c 2,36,-1
 41 0 l 2,20,21
208 87 m 2,37,38
 206.8 86.9333333333 206.8 86.9333333333 205.626666667 86.9333333333 c 0,39,40
 189.2 86.9333333333 189.2 86.9333333333 178 100 c 256,41,42
 166 114 166 114 166 134 c 256,43,44
 166 154 166 154 178 168 c 256,45,46
 190 182 190 182 208 182 c 2,47,-1
 267 182 l 1,48,49
 264 184 264 184 262 188 c 0,50,51
 250 202 250 202 250 221 c 256,52,53
 250 241 250 241 262 255 c 0,54,55
 275 268 275 268 292 268 c 2,56,-1
 351 268 l 1,57,58
 348 270 348 270 345 274 c 0,59,60
 333 288 333 288 333 308 c 256,61,62
 333 328 333 328 345 342 c 256,63,64
 357 356 357 356 375 356 c 2,65,-1
 434 356 l 1,66,67
 432 358 432 358 429 361 c 0,68,69
 416 374 416 374 416 394 c 256,70,71
 416 414 416 414 429 428 c 0,72,73
 441 442 441 442 458 442 c 2,74,-1
 518 442 l 1,75,76
 515 444 515 444 512 448 c 0,77,78
 500 462 500 462 500 482 c 256,79,80
 500 502 500 502 512 515 c 0,81,82
 526 530 526 530 542 530 c 2,83,-1
 625 530 l 2,84,85
 642 530 642 530 655 515 c 0,86,87
 667 502 667 502 667 482 c 256,88,89
 667 462 667 462 655 448 c 0,90,91
 642 434 642 434 625 434 c 2,92,-1
 566 434 l 1,93,94
 569 432 569 432 571 428 c 0,95,96
 583 414 583 414 583 394 c 256,97,98
 583 374 583 374 571 361 c 256,99,100
 560 347 560 347 542 347 c 2,101,-1
 482 347 l 1,102,103
 486 345 486 345 488 342 c 0,104,105
 500 328 500 328 500 308 c 256,106,107
 500 288 500 288 488 274 c 0,108,109
 475 260 475 260 458 260 c 2,110,-1
 399 260 l 1,111,112
 402 258 402 258 404 255 c 0,113,114
 416 241 416 241 416 221 c 256,115,116
 416 202 416 202 404 188 c 256,117,118
 392 174 392 174 375 173 c 2,119,-1
 316 173 l 1,120,121
 318 171 318 171 321 168 c 0,122,123
 333.071428571 155 333.071428571 155 333.071428571 136.826530612 c 0,124,125
 333.071428571 114.083333333 333.071428571 114.083333333 321 100 c 0,126,127
 309.8 86.9333333333 309.8 86.9333333333 294.244444444 86.9333333333 c 0,128,129
 293.133333333 86.9333333333 293.133333333 86.9333333333 292 87 c 2,130,-1
 208 87 l 2,37,38
708 520 m 2,131,132
 691 520 691 520 679 535 c 0,133,134
 667 548 667 548 667 568 c 256,135,136
 667 588 667 588 679 602 c 0,137,138
 692 616 692 616 708 616 c 2,139,-1
 791 616 l 2,140,141
 808 616 808 616 821 602 c 0,142,143
 833 588 833 588 833 568 c 256,144,145
 833 548 833 548 821 535 c 0,146,147
 808 520 808 520 791 520 c 2,148,-1
 708 520 l 2,131,132
EndSplineSet
Validated: 524289
EndChar

StartChar: zero
Encoding: 48 48 16
Width: 960
VWidth: 750
Flags: W
LayerCount: 2
Fore
SplineSet
-41 -173 m 2,0,1
 -58 -173 -58 -173 -71 -160 c 0,2,3
 -83 -146 -83 -146 -83 -125 c 256,4,5
 -83 -105 -83 -105 -71 -92 c 0,6,7
 -58 -78 -58 -78 -41 -78 c 2,8,-1
 958 -78 l 2,9,10
 975 -78 975 -78 988 -92 c 0,11,12
 1000 -106 1000 -106 1000 -125 c 256,13,14
 1000 -145 1000 -145 988 -160 c 0,15,16
 975.866666667 -173.066666667 975.866666667 -173.066666667 960.248888889 -173.066666667 c 0,17,18
 959.133333333 -173.066666667 959.133333333 -173.066666667 958 -173 c 2,19,-1
 -41 -173 l 2,0,1
292 0 m 2,20,21
 275 0 275 0 262 14 c 0,22,23
 250 28 250 28 250 47 c 256,24,25
 250 67 250 67 262 81 c 0,26,27
 275 95 275 95 292 95 c 2,28,-1
 542 95 l 2,29,30
 559 95 559 95 571 81 c 256,31,32
 583 67 583 67 583 47 c 256,33,34
 583 27 583 27 571 14 c 256,35,36
 560 0 560 0 542 0 c 2,37,-1
 292 0 l 2,20,21
125 87 m 2,38,39
 123.866666667 86.9333333333 123.866666667 86.9333333333 122.751111111 86.9333333333 c 0,40,41
 107.133333333 86.9333333333 107.133333333 86.9333333333 95 100 c 0,42,43
 83 114 83 114 83 134 c 256,44,45
 83 154 83 154 95 168 c 0,46,47
 96 171 96 171 100 173 c 1,48,-1
 41 173 l 2,49,50
 24 174 24 174 12 188 c 256,51,52
 0 202 0 202 0 221 c 256,53,54
 0 241 0 241 12 255 c 0,55,56
 17 261 17 261 24 265 c 1,57,-1
 24 265 l 1,58,59
 18 268 18 268 12 274 c 0,60,61
 0 288 0 288 0 308 c 256,62,63
 0 328 0 328 12 342 c 0,64,65
 17 348 17 348 24 352 c 1,66,-1
 24 352 l 1,67,68
 18 355 18 355 12 361 c 0,69,70
 0 374 0 374 0 394 c 256,71,72
 0 414 0 414 12 428 c 256,73,74
 24 442 24 442 41 442 c 2,75,-1
 100 442 l 1,76,77
 97 444 97 444 95 448 c 0,78,79
 83 462 83 462 83 482 c 256,80,81
 83 502 83 502 95 515 c 0,82,83
 108 530 108 530 125 530 c 2,84,-1
 208 530 l 2,85,86
 225 530 225 530 238 515 c 0,87,88
 250 502 250 502 250 482 c 256,89,90
 250 462 250 462 238 448 c 0,91,92
 225 434 225 434 208 434 c 2,93,-1
 149 434 l 1,94,95
 150 432 150 432 154 428 c 0,96,97
 166 414 166 414 166 394 c 256,98,99
 166 374 166 374 154 361 c 0,100,101
 148 355 148 355 142 352 c 1,102,-1
 142 352 l 1,103,104
 148 348 148 348 154 342 c 0,105,106
 166 328 166 328 166 308 c 256,107,108
 166 288 166 288 154 274 c 0,109,110
 148 268 148 268 142 265 c 1,111,-1
 142 265 l 1,112,113
 148 262 148 262 154 255 c 0,114,115
 166 241 166 241 166 221 c 256,116,117
 166 202 166 202 154 188 c 0,118,119
 152 185 152 185 149 182 c 1,120,-1
 208 182 l 2,121,122
 225 182 225 182 238 168 c 0,123,124
 250 154 250 154 250 134 c 256,125,126
 250 114 250 114 238 100 c 0,127,128
 225.866666667 86.9333333333 225.866666667 86.9333333333 210.248888889 86.9333333333 c 0,129,130
 209.133333333 86.9333333333 209.133333333 86.9333333333 208 87 c 2,131,-1
 125 87 l 2,38,39
625 87 m 2,132,133
 623.866666667 86.9333333333 623.866666667 86.9333333333 622.755555556 86.9333333333 c 0,134,135
 607.2 86.9333333333 607.2 86.9333333333 596 100 c 0,136,137
 583 114 583 114 583 134 c 256,138,139
 584 154 584 154 596 168 c 128,-1,140
 608 182 608 182 625 182 c 2,141,-1
 684 182 l 1,142,143
 681 184 681 184 679 188 c 0,144,145
 667 202 667 202 667 221 c 256,146,147
 667 241 667 241 679 255 c 0,148,149
 684 261 684 261 690 265 c 1,150,-1
 690 265 l 1,151,152
 684 268 684 268 679 274 c 0,153,154
 667 288 667 288 667 308 c 256,155,156
 667 328 667 328 679 342 c 0,157,158
 684 348 684 348 690 352 c 1,159,-1
 690 352 l 1,160,161
 684 355 684 355 679 361 c 0,162,163
 667 374 667 374 667 394 c 256,164,165
 667 414 667 414 679 428 c 0,166,167
 681 431 681 431 684 434 c 1,168,-1
 625 434 l 2,169,170
 608 434 608 434 596 448 c 0,171,172
 583 462 583 462 583 482 c 256,173,174
 584 502 584 502 596 515 c 0,175,176
 608 530 608 530 625 530 c 2,177,-1
 708 530 l 2,178,179
 725 530 725 530 737 515 c 0,180,181
 750 502 750 502 750 482 c 256,182,183
 750 462 750 462 737 448 c 0,184,185
 735 444 735 444 733 442 c 1,186,-1
 791 442 l 2,187,188
 808 442 808 442 821 428 c 0,189,190
 833 414 833 414 833 394 c 256,191,192
 833 374 833 374 821 361 c 0,193,194
 816 355 816 355 809 352 c 1,195,-1
 809 352 l 1,196,197
 815 348 815 348 821 342 c 0,198,199
 833 328 833 328 833 308 c 256,200,201
 833 288 833 288 821 274 c 0,202,203
 816 268 816 268 809 265 c 1,204,-1
 809 265 l 1,205,206
 815 262 815 262 821 255 c 0,207,208
 833 241 833 241 833 221 c 256,209,210
 833 202 833 202 821 188 c 0,211,212
 808 174 808 174 791 173 c 2,213,-1
 733 173 l 1,214,215
 735 171 735 171 737 168 c 0,216,217
 750 154 750 154 750 134 c 256,218,219
 750 114 750 114 737 100 c 0,220,221
 725.8 86.9333333333 725.8 86.9333333333 710.244444444 86.9333333333 c 0,222,223
 709.133333333 86.9333333333 709.133333333 86.9333333333 708 87 c 2,224,-1
 625 87 l 2,132,133
292 520 m 2,225,226
 275 520 275 520 262 535 c 0,227,228
 250 548 250 548 250 568 c 256,229,230
 250 588 250 588 262 602 c 0,231,232
 275 616 275 616 292 616 c 2,233,-1
 542 616 l 2,234,235
 559 616 559 616 571 602 c 256,236,237
 583 588 583 588 583 568 c 256,238,239
 583 548 583 548 571 535 c 256,240,241
 560 520 560 520 542 520 c 2,242,-1
 292 520 l 2,225,226
EndSplineSet
Validated: 524293
EndChar

StartChar: one
Encoding: 49 49 17
Width: 960
VWidth: 750
Flags: W
LayerCount: 2
Fore
SplineSet
-41 -173 m 2,0,1
 -58 -173 -58 -173 -71 -160 c 0,2,3
 -83 -146 -83 -146 -83 -125 c 256,4,5
 -83 -105 -83 -105 -71 -92 c 0,6,7
 -58 -78 -58 -78 -41 -78 c 2,8,-1
 958 -78 l 2,9,10
 975 -78 975 -78 988 -92 c 0,11,12
 1000 -106 1000 -106 1000 -125 c 256,13,14
 1000 -145 1000 -145 988 -160 c 0,15,16
 975.866666667 -173.066666667 975.866666667 -173.066666667 960.248888889 -173.066666667 c 0,17,18
 959.133333333 -173.066666667 959.133333333 -173.066666667 958 -173 c 2,19,-1
 -41 -173 l 2,0,1
208 0 m 2,20,21
 190 0 190 0 178 14 c 256,22,23
 166 28 166 28 166 47 c 256,24,25
 166 67 166 67 178 81 c 256,26,27
 190 95 190 95 208 95 c 2,28,-1
 267 95 l 1,29,30
 264 96 264 96 262 100 c 0,31,32
 250 114 250 114 250 134 c 256,33,34
 250 154 250 154 262 168 c 0,35,36
 267 174 267 174 274 178 c 1,37,-1
 274 178 l 1,38,39
 267 182 267 182 262 188 c 0,40,41
 250 202 250 202 250 221 c 256,42,43
 250 241 250 241 262 255 c 0,44,45
 267 261 267 261 274 265 c 1,46,-1
 274 265 l 1,47,48
 267 268 267 268 262 274 c 0,49,50
 250 288 250 288 250 308 c 256,51,52
 250 328 250 328 262 342 c 0,53,54
 267 348 267 348 274 352 c 1,55,-1
 274 352 l 1,56,57
 267 355 267 355 262 361 c 0,58,59
 250 374 250 374 250 394 c 256,60,61
 250 414 250 414 262 428 c 0,62,63
 264 431 264 431 267 434 c 1,64,-1
 208 434 l 2,65,66
 190 434 190 434 178 448 c 256,67,68
 166 462 166 462 166 482 c 256,69,70
 166 502 166 502 178 515 c 256,71,72
 190 530 190 530 208 530 c 2,73,-1
 267 530 l 1,74,75
 264 532 264 532 262 535 c 0,76,77
 250 548 250 548 250 568 c 256,78,79
 250 588 250 588 262 602 c 0,80,81
 275 616 275 616 292 616 c 2,82,-1
 375 616 l 2,83,84
 392 616 392 616 404 602 c 256,85,86
 416 588 416 588 416 568 c 256,87,88
 416 548 416 548 404 535 c 0,89,90
 399 529 399 529 392 525 c 1,91,-1
 392 525 l 1,92,93
 398 521 398 521 404 515 c 0,94,95
 416 502 416 502 416 482 c 256,96,97
 416 462 416 462 404 448 c 0,98,99
 399 442 399 442 392 438 c 1,100,-1
 392 438 l 1,101,102
 398 434 398 434 404 428 c 0,103,104
 416 414 416 414 416 394 c 256,105,106
 416 374 416 374 404 361 c 0,107,108
 399 355 399 355 392 352 c 1,109,-1
 392 352 l 1,110,111
 398 348 398 348 404 342 c 0,112,113
 416 328 416 328 416 308 c 256,114,115
 416 288 416 288 404 274 c 0,116,117
 399 268 399 268 392 265 c 1,118,-1
 392 265 l 1,119,120
 398 262 398 262 404 255 c 0,121,122
 416 241 416 241 416 221 c 256,123,124
 416 202 416 202 404 188 c 0,125,126
 399 182 399 182 392 178 c 1,127,-1
 392 178 l 1,128,129
 398 175 398 175 404 168 c 0,130,131
 416 154 416 154 416 134 c 256,132,133
 416 114 416 114 404 100 c 0,134,135
 402 97 402 97 399 95 c 1,136,-1
 458 95 l 2,137,138
 476 95 476 95 488 81 c 128,-1,139
 500 67 500 67 500 47 c 256,140,141
 500 27 500 27 488 14 c 0,142,143
 475 0 475 0 458 0 c 2,144,-1
 208 0 l 2,20,21
EndSplineSet
Validated: 524293
EndChar

StartChar: two
Encoding: 50 50 18
Width: 960
VWidth: 750
Flags: W
LayerCount: 2
Fore
SplineSet
-41 -173 m 2,0,1
 -58 -173 -58 -173 -71 -160 c 0,2,3
 -83 -146 -83 -146 -83 -125 c 256,4,5
 -83 -105 -83 -105 -71 -92 c 0,6,7
 -58 -78 -58 -78 -41 -78 c 2,8,-1
 958 -78 l 2,9,10
 975 -78 975 -78 988 -92 c 0,11,12
 1000 -106 1000 -106 1000 -125 c 256,13,14
 1000 -145 1000 -145 988 -160 c 0,15,16
 975.866666667 -173.066666667 975.866666667 -173.066666667 960.248888889 -173.066666667 c 0,17,18
 959.133333333 -173.066666667 959.133333333 -173.066666667 958 -173 c 2,19,-1
 -41 -173 l 2,0,1
41 0 m 2,20,21
 24 0 24 0 12 14 c 256,22,23
 0 28 0 28 0 47 c 256,24,25
 0 67 0 67 12 81 c 256,26,27
 24 95 24 95 41 95 c 2,28,-1
 184 95 l 1,29,30
 180 96 180 96 178 100 c 0,31,32
 166 114 166 114 166 134 c 256,33,34
 166 154 166 154 178 168 c 256,35,36
 190 182 190 182 208 182 c 2,37,-1
 292 182 l 2,38,39
 309 182 309 182 321 168 c 0,40,41
 333.071428571 155 333.071428571 155 333.071428571 136.826530612 c 0,42,43
 333.071428571 114.083333333 333.071428571 114.083333333 321 100 c 0,44,45
 319 97 319 97 316 95 c 1,46,-1
 791 95 l 2,47,48
 808 95 808 95 821 81 c 0,49,50
 833 67 833 67 833 47 c 256,51,52
 833 27 833 27 821 14 c 0,53,54
 808 0 808 0 791 0 c 2,55,-1
 41 0 l 2,20,21
375 173 m 2,56,57
 358 174 358 174 345 188 c 256,58,59
 333 202 333 202 333 221 c 256,60,61
 333 241 333 241 345 255 c 256,62,63
 357 268 357 268 375 268 c 2,64,-1
 458 268 l 2,65,66
 476 268 476 268 488 255 c 0,67,68
 500 241 500 241 500 221 c 256,69,70
 500 202 500 202 488 188 c 0,71,72
 475 174 475 174 458 173 c 2,73,-1
 375 173 l 2,56,57
41 434 m 2,74,75
 24 434 24 434 12 448 c 256,76,77
 0 462 0 462 0 482 c 256,78,79
 0 502 0 502 12 515 c 256,80,81
 24 530 24 530 41 530 c 2,82,-1
 125 530 l 2,83,84
 142 530 142 530 154 515 c 0,85,86
 166 502 166 502 166 482 c 256,87,88
 166 462 166 462 154 448 c 128,-1,89
 142 434 142 434 125 434 c 2,90,-1
 41 434 l 2,74,75
542 260 m 2,91,92
 525 260 525 260 512 274 c 0,93,94
 500 288 500 288 500 308 c 256,95,96
 500 328 500 328 512 342 c 0,97,98
 526 356 526 356 542 356 c 2,99,-1
 601 356 l 1,100,101
 600 358 600 358 596 361 c 0,102,103
 583 374 583 374 583 394 c 256,104,105
 584 414 584 414 596 428 c 128,-1,106
 608 442 608 442 625 442 c 2,107,-1
 684 442 l 1,108,109
 681 444 681 444 679 448 c 0,110,111
 667 462 667 462 667 482 c 256,112,113
 667 502 667 502 679 515 c 0,114,115
 692 530 692 530 708 530 c 2,116,-1
 791 530 l 2,117,118
 808 530 808 530 821 515 c 0,119,120
 833 502 833 502 833 482 c 256,121,122
 833 462 833 462 821 448 c 0,123,124
 808 434 808 434 791 434 c 2,125,-1
 733 434 l 1,126,127
 735 432 735 432 737 428 c 0,128,129
 750 414 750 414 750 394 c 256,130,131
 750 374 750 374 737 361 c 0,132,133
 725 347 725 347 708 347 c 2,134,-1
 649 347 l 1,135,136
 652 345 652 345 655 342 c 0,137,138
 667 328 667 328 667 308 c 256,139,140
 667 288 667 288 655 274 c 0,141,142
 642 260 642 260 625 260 c 2,143,-1
 542 260 l 2,91,92
208 520 m 2,144,145
 190 520 190 520 178 535 c 256,146,147
 166 548 166 548 166 568 c 256,148,149
 166 588 166 588 178 602 c 256,150,151
 190 616 190 616 208 616 c 2,152,-1
 625 616 l 2,153,154
 642 616 642 616 655 602 c 0,155,156
 667 588 667 588 667 568 c 256,157,158
 667 548 667 548 655 535 c 0,159,160
 642 520 642 520 625 520 c 2,161,-1
 208 520 l 2,144,145
EndSplineSet
Validated: 524289
EndChar

StartChar: three
Encoding: 51 51 19
Width: 960
VWidth: 750
Flags: W
LayerCount: 2
Fore
SplineSet
-41 -173 m 2,0,1
 -58 -173 -58 -173 -71 -160 c 0,2,3
 -83 -146 -83 -146 -83 -125 c 256,4,5
 -83 -105 -83 -105 -71 -92 c 0,6,7
 -58 -78 -58 -78 -41 -78 c 2,8,-1
 958 -78 l 2,9,10
 975 -78 975 -78 988 -92 c 0,11,12
 1000 -106 1000 -106 1000 -125 c 256,13,14
 1000 -145 1000 -145 988 -160 c 0,15,16
 975.866666667 -173.066666667 975.866666667 -173.066666667 960.248888889 -173.066666667 c 0,17,18
 959.133333333 -173.066666667 959.133333333 -173.066666667 958 -173 c 2,19,-1
 -41 -173 l 2,0,1
208 0 m 2,20,21
 190 0 190 0 178 14 c 256,22,23
 166 28 166 28 166 47 c 256,24,25
 166 67 166 67 178 81 c 256,26,27
 190 95 190 95 208 95 c 2,28,-1
 625 95 l 2,29,30
 642 95 642 95 655 81 c 0,31,32
 667 67 667 67 667 47 c 256,33,34
 667 27 667 27 655 14 c 0,35,36
 642 0 642 0 625 0 c 2,37,-1
 208 0 l 2,20,21
41 87 m 2,38,39
 39.8666666667 86.9333333333 39.8666666667 86.9333333333 38.7555555556 86.9333333333 c 0,40,41
 23.2 86.9333333333 23.2 86.9333333333 12 100 c 256,42,43
 0 114 0 114 0 134 c 256,44,45
 0 154 0 154 12 168 c 256,46,47
 24 182 24 182 41 182 c 2,48,-1
 125 182 l 2,49,50
 142 182 142 182 154 168 c 128,-1,51
 166 154 166 154 166 134 c 256,52,53
 166 114 166 114 154 100 c 0,54,55
 142.8 86.9333333333 142.8 86.9333333333 127.244444444 86.9333333333 c 0,56,57
 126.133333333 86.9333333333 126.133333333 86.9333333333 125 87 c 2,58,-1
 41 87 l 2,38,39
708 87 m 2,59,60
 706.866666667 86.9333333333 706.866666667 86.9333333333 705.755555556 86.9333333333 c 0,61,62
 690.2 86.9333333333 690.2 86.9333333333 679 100 c 0,63,64
 667 114 667 114 667 134 c 256,65,66
 667 154 667 154 679 168 c 0,67,68
 684 174 684 174 690 178 c 1,69,-1
 690 178 l 1,70,71
 684 182 684 182 679 188 c 0,72,73
 667 202 667 202 667 221 c 256,74,75
 667 241 667 241 679 255 c 0,76,77
 692 268 692 268 708 268 c 2,78,-1
 791 268 l 2,79,80
 808 268 808 268 821 255 c 0,81,82
 833 241 833 241 833 221 c 256,83,84
 833 202 833 202 821 188 c 0,85,86
 816 182 816 182 809 178 c 1,87,-1
 809 178 l 1,88,89
 815 175 815 175 821 168 c 0,90,91
 833 154 833 154 833 134 c 256,92,93
 833 114 833 114 821 100 c 0,94,95
 808.866666667 86.9333333333 808.866666667 86.9333333333 793.248888889 86.9333333333 c 0,96,97
 792.133333333 86.9333333333 792.133333333 86.9333333333 791 87 c 2,98,-1
 708 87 l 2,59,60
375 260 m 2,99,100
 358 260 358 260 345 274 c 256,101,102
 333 288 333 288 333 308 c 256,103,104
 333 328 333 328 345 342 c 256,105,106
 357 356 357 356 375 356 c 2,107,-1
 625 356 l 2,108,109
 642 356 642 356 655 342 c 0,110,111
 667 328 667 328 667 308 c 256,112,113
 667 288 667 288 655 274 c 0,114,115
 642 260 642 260 625 260 c 2,116,-1
 375 260 l 2,99,100
41 434 m 2,117,118
 24 434 24 434 12 448 c 256,119,120
 0 462 0 462 0 482 c 256,121,122
 0 502 0 502 12 515 c 256,123,124
 24 530 24 530 41 530 c 2,125,-1
 125 530 l 2,126,127
 142 530 142 530 154 515 c 0,128,129
 166 502 166 502 166 482 c 256,130,131
 166 462 166 462 154 448 c 128,-1,132
 142 434 142 434 125 434 c 2,133,-1
 41 434 l 2,117,118
708 347 m 2,134,135
 691 347 691 347 679 361 c 0,136,137
 667 374 667 374 667 394 c 256,138,139
 667 414 667 414 679 428 c 0,140,141
 684 434 684 434 690 438 c 1,142,-1
 690 438 l 1,143,144
 684 441 684 441 679 448 c 0,145,146
 667 462 667 462 667 482 c 256,147,148
 667 502 667 502 679 515 c 0,149,150
 692 530 692 530 708 530 c 2,151,-1
 791 530 l 2,152,153
 808 530 808 530 821 515 c 0,154,155
 833 502 833 502 833 482 c 256,156,157
 833 462 833 462 821 448 c 0,158,159
 816 442 816 442 809 438 c 1,160,-1
 809 438 l 1,161,162
 815 434 815 434 821 428 c 0,163,164
 833 414 833 414 833 394 c 256,165,166
 833 374 833 374 821 361 c 0,167,168
 808 347 808 347 791 347 c 2,169,-1
 708 347 l 2,134,135
208 520 m 2,170,171
 190 520 190 520 178 535 c 256,172,173
 166 548 166 548 166 568 c 256,174,175
 166 588 166 588 178 602 c 256,176,177
 190 616 190 616 208 616 c 2,178,-1
 625 616 l 2,179,180
 642 616 642 616 655 602 c 0,181,182
 667 588 667 588 667 568 c 256,183,184
 667 548 667 548 655 535 c 0,185,186
 642 520 642 520 625 520 c 2,187,-1
 208 520 l 2,170,171
EndSplineSet
Validated: 524293
EndChar

StartChar: four
Encoding: 52 52 20
Width: 960
VWidth: 750
Flags: W
LayerCount: 2
Fore
SplineSet
-41 -173 m 2,0,1
 -58 -173 -58 -173 -71 -160 c 0,2,3
 -83 -146 -83 -146 -83 -125 c 256,4,5
 -83 -105 -83 -105 -71 -92 c 0,6,7
 -58 -78 -58 -78 -41 -78 c 2,8,-1
 958 -78 l 2,9,10
 975 -78 975 -78 988 -92 c 0,11,12
 1000 -106 1000 -106 1000 -125 c 256,13,14
 1000 -145 1000 -145 988 -160 c 0,15,16
 975.866666667 -173.066666667 975.866666667 -173.066666667 960.248888889 -173.066666667 c 0,17,18
 959.133333333 -173.066666667 959.133333333 -173.066666667 958 -173 c 2,19,-1
 -41 -173 l 2,0,1
542 0 m 2,20,21
 525 0 525 0 512 14 c 0,22,23
 500 28 500 28 500 47 c 256,24,25
 500 67 500 67 512 81 c 0,26,27
 518 87 518 87 524 91 c 1,28,-1
 524 91 l 1,29,30
 518 94 518 94 512 100 c 0,31,32
 500 114 500 114 500 134 c 256,33,34
 500 154 500 154 512 168 c 0,35,36
 514 171 514 171 518 173 c 1,37,-1
 41 173 l 2,38,39
 24 174 24 174 12 188 c 256,40,41
 0 202 0 202 0 221 c 256,42,43
 0 241 0 241 12 255 c 256,44,45
 24 268 24 268 41 268 c 2,46,-1
 100 268 l 1,47,48
 97 270 97 270 95 274 c 0,49,50
 83 288 83 288 83 308 c 256,51,52
 83 328 83 328 95 342 c 0,53,54
 108 356 108 356 125 356 c 2,55,-1
 184 356 l 1,56,57
 180 358 180 358 178 361 c 0,58,59
 166 374 166 374 166 394 c 256,60,61
 166 414 166 414 178 428 c 256,62,63
 190 442 190 442 208 442 c 2,64,-1
 267 442 l 1,65,66
 264 444 264 444 262 448 c 0,67,68
 250 462 250 462 250 482 c 256,69,70
 250 502 250 502 262 515 c 0,71,72
 275 530 275 530 292 530 c 2,73,-1
 351 530 l 1,74,75
 348 532 348 532 345 535 c 0,76,77
 333 548 333 548 333 568 c 256,78,79
 333 588 333 588 345 602 c 256,80,81
 357 616 357 616 375 616 c 2,82,-1
 458 616 l 2,83,84
 476 616 476 616 488 602 c 128,-1,85
 500 588 500 588 500 568 c 256,86,87
 500 548 500 548 488 535 c 0,88,89
 475 520 475 520 458 520 c 2,90,-1
 399 520 l 1,91,92
 402 518 402 518 404 515 c 0,93,94
 416 502 416 502 416 482 c 256,95,96
 416 462 416 462 404 448 c 256,97,98
 392 434 392 434 375 434 c 2,99,-1
 316 434 l 1,100,101
 318 432 318 432 321 428 c 0,102,103
 333.071428571 415 333.071428571 415 333.071428571 396.826530612 c 0,104,105
 333.071428571 374.077380952 333.071428571 374.077380952 321 361 c 0,106,107
 309 347 309 347 292 347 c 2,108,-1
 232 347 l 1,109,110
 235 345 235 345 238 342 c 0,111,112
 250 328 250 328 250 308 c 256,113,114
 250 288 250 288 238 274 c 0,115,116
 236 270 236 270 232 268 c 1,117,-1
 518 268 l 1,118,119
 515 270 515 270 512 274 c 0,120,121
 500 288 500 288 500 308 c 256,122,123
 500 328 500 328 512 342 c 0,124,125
 518 348 518 348 524 352 c 1,126,-1
 524 352 l 1,127,128
 518 355 518 355 512 361 c 0,129,130
 500 374 500 374 500 394 c 256,131,132
 500 414 500 414 512 428 c 0,133,134
 518 434 518 434 524 438 c 1,135,-1
 524 438 l 1,136,137
 518 441 518 441 512 448 c 0,138,139
 500 462 500 462 500 482 c 256,140,141
 500 502 500 502 512 515 c 0,142,143
 518 521 518 521 524 525 c 1,144,-1
 524 525 l 1,145,146
 518 528 518 528 512 535 c 0,147,148
 500 548 500 548 500 568 c 256,149,150
 500 588 500 588 512 602 c 0,151,152
 526 616 526 616 542 616 c 2,153,-1
 625 616 l 2,154,155
 642 616 642 616 655 602 c 0,156,157
 667 588 667 588 667 568 c 256,158,159
 667 548 667 548 655 535 c 0,160,161
 650 529 650 529 642 525 c 1,162,-1
 642 525 l 1,163,164
 649 521 649 521 655 515 c 0,165,166
 667 502 667 502 667 482 c 256,167,168
 667 462 667 462 655 448 c 0,169,170
 650 442 650 442 642 438 c 1,171,-1
 642 438 l 1,172,173
 649 434 649 434 655 428 c 0,174,175
 667 414 667 414 667 394 c 256,176,177
 667 374 667 374 655 361 c 0,178,179
 650 355 650 355 642 352 c 1,180,-1
 642 352 l 1,181,182
 649 348 649 348 655 342 c 0,183,184
 667 328 667 328 667 308 c 256,185,186
 667 288 667 288 655 274 c 0,187,188
 653 270 653 270 649 268 c 1,189,-1
 708 268 l 2,190,191
 725 268 725 268 737 255 c 0,192,193
 750 241 750 241 750 221 c 256,194,195
 750 202 750 202 737 188 c 0,196,197
 725 174 725 174 708 173 c 2,198,-1
 649 173 l 1,199,200
 652 171 652 171 655 168 c 0,201,202
 667 154 667 154 667 134 c 256,203,204
 667 114 667 114 655 100 c 0,205,206
 650 94 650 94 642 91 c 1,207,-1
 642 91 l 1,208,209
 649 88 649 88 655 81 c 0,210,211
 667 67 667 67 667 47 c 256,212,213
 667 27 667 27 655 14 c 0,214,215
 642 0 642 0 625 0 c 2,216,-1
 542 0 l 2,20,21
EndSplineSet
Validated: 524293
EndChar

StartChar: five
Encoding: 53 53 21
Width: 960
VWidth: 750
Flags: W
LayerCount: 2
Fore
SplineSet
-41 -173 m 2,0,1
 -58 -173 -58 -173 -71 -160 c 0,2,3
 -83 -146 -83 -146 -83 -125 c 256,4,5
 -83 -105 -83 -105 -71 -92 c 0,6,7
 -58 -78 -58 -78 -41 -78 c 2,8,-1
 958 -78 l 2,9,10
 975 -78 975 -78 988 -92 c 0,11,12
 1000 -106 1000 -106 1000 -125 c 256,13,14
 1000 -145 1000 -145 988 -160 c 0,15,16
 975.866666667 -173.066666667 975.866666667 -173.066666667 960.248888889 -173.066666667 c 0,17,18
 959.133333333 -173.066666667 959.133333333 -173.066666667 958 -173 c 2,19,-1
 -41 -173 l 2,0,1
208 0 m 2,20,21
 190 0 190 0 178 14 c 256,22,23
 166 28 166 28 166 47 c 256,24,25
 166 67 166 67 178 81 c 256,26,27
 190 95 190 95 208 95 c 2,28,-1
 625 95 l 2,29,30
 642 95 642 95 655 81 c 0,31,32
 667 67 667 67 667 47 c 256,33,34
 667 27 667 27 655 14 c 0,35,36
 642 0 642 0 625 0 c 2,37,-1
 208 0 l 2,20,21
41 87 m 2,38,39
 39.8666666667 86.9333333333 39.8666666667 86.9333333333 38.7555555556 86.9333333333 c 0,40,41
 23.2 86.9333333333 23.2 86.9333333333 12 100 c 256,42,43
 0 114 0 114 0 134 c 256,44,45
 0 154 0 154 12 168 c 256,46,47
 24 182 24 182 41 182 c 2,48,-1
 125 182 l 2,49,50
 142 182 142 182 154 168 c 128,-1,51
 166 154 166 154 166 134 c 256,52,53
 166 114 166 114 154 100 c 0,54,55
 142.8 86.9333333333 142.8 86.9333333333 127.244444444 86.9333333333 c 0,56,57
 126.133333333 86.9333333333 126.133333333 86.9333333333 125 87 c 2,58,-1
 41 87 l 2,38,39
708 87 m 2,59,60
 706.866666667 86.9333333333 706.866666667 86.9333333333 705.755555556 86.9333333333 c 0,61,62
 690.2 86.9333333333 690.2 86.9333333333 679 100 c 0,63,64
 667 114 667 114 667 134 c 256,65,66
 667 154 667 154 679 168 c 0,67,68
 684 174 684 174 690 178 c 1,69,-1
 690 178 l 1,70,71
 684 182 684 182 679 188 c 0,72,73
 667 202 667 202 667 221 c 256,74,75
 667 241 667 241 679 255 c 0,76,77
 684 261 684 261 690 265 c 1,78,-1
 690 265 l 1,79,80
 684 268 684 268 679 274 c 0,81,82
 667 288 667 288 667 308 c 256,83,84
 667 328 667 328 679 342 c 0,85,86
 692 356 692 356 708 356 c 2,87,-1
 791 356 l 2,88,89
 808 356 808 356 821 342 c 0,90,91
 833 328 833 328 833 308 c 256,92,93
 833 288 833 288 821 274 c 0,94,95
 816 268 816 268 809 265 c 1,96,-1
 809 265 l 1,97,98
 815 262 815 262 821 255 c 0,99,100
 833 241 833 241 833 221 c 256,101,102
 833 202 833 202 821 188 c 0,103,104
 816 182 816 182 809 178 c 1,105,-1
 809 178 l 1,106,107
 815 175 815 175 821 168 c 0,108,109
 833 154 833 154 833 134 c 256,110,111
 833 114 833 114 821 100 c 0,112,113
 808.866666667 86.9333333333 808.866666667 86.9333333333 793.248888889 86.9333333333 c 0,114,115
 792.133333333 86.9333333333 792.133333333 86.9333333333 791 87 c 2,116,-1
 708 87 l 2,59,60
41 347 m 2,117,118
 24 347 24 347 12 361 c 256,119,120
 0 374 0 374 0 394 c 256,121,122
 0 414 0 414 12 428 c 0,123,124
 17 434 17 434 24 438 c 1,125,-1
 24 438 l 1,126,127
 18 441 18 441 12 448 c 0,128,129
 0 462 0 462 0 482 c 256,130,131
 0 502 0 502 12 515 c 0,132,133
 17 521 17 521 24 525 c 1,134,-1
 24 525 l 1,135,136
 18 528 18 528 12 535 c 0,137,138
 0 548 0 548 0 568 c 256,139,140
 0 588 0 588 12 602 c 256,141,142
 24 616 24 616 41 616 c 2,143,-1
 791 616 l 2,144,145
 808 616 808 616 821 602 c 0,146,147
 833 588 833 588 833 568 c 256,148,149
 833 548 833 548 821 535 c 0,150,151
 808 520 808 520 791 520 c 2,152,-1
 149 520 l 1,153,154
 150 518 150 518 154 515 c 0,155,156
 166 502 166 502 166 482 c 256,157,158
 166 462 166 462 154 448 c 0,159,160
 152 444 152 444 149 442 c 1,161,-1
 625 442 l 2,162,163
 642 442 642 442 655 428 c 0,164,165
 667 414 667 414 667 394 c 256,166,167
 667 374 667 374 655 361 c 0,168,169
 642 347 642 347 625 347 c 2,170,-1
 41 347 l 2,117,118
EndSplineSet
Validated: 524293
EndChar

StartChar: six
Encoding: 54 54 22
Width: 960
VWidth: 750
Flags: W
LayerCount: 2
Fore
SplineSet
-41 -173 m 2,0,1
 -58 -173 -58 -173 -71 -160 c 0,2,3
 -83 -146 -83 -146 -83 -125 c 256,4,5
 -83 -105 -83 -105 -71 -92 c 0,6,7
 -58 -78 -58 -78 -41 -78 c 2,8,-1
 958 -78 l 2,9,10
 975 -78 975 -78 988 -92 c 0,11,12
 1000 -106 1000 -106 1000 -125 c 256,13,14
 1000 -145 1000 -145 988 -160 c 0,15,16
 975.866666667 -173.066666667 975.866666667 -173.066666667 960.248888889 -173.066666667 c 0,17,18
 959.133333333 -173.066666667 959.133333333 -173.066666667 958 -173 c 2,19,-1
 -41 -173 l 2,0,1
208 0 m 2,20,21
 190 0 190 0 178 14 c 256,22,23
 166 28 166 28 166 47 c 256,24,25
 166 67 166 67 178 81 c 256,26,27
 190 95 190 95 208 95 c 2,28,-1
 625 95 l 2,29,30
 642 95 642 95 655 81 c 0,31,32
 667 67 667 67 667 47 c 256,33,34
 667 27 667 27 655 14 c 0,35,36
 642 0 642 0 625 0 c 2,37,-1
 208 0 l 2,20,21
708 87 m 2,38,39
 706.866666667 86.9333333333 706.866666667 86.9333333333 705.755555556 86.9333333333 c 0,40,41
 690.2 86.9333333333 690.2 86.9333333333 679 100 c 0,42,43
 667 114 667 114 667 134 c 256,44,45
 667 154 667 154 679 168 c 0,46,47
 684 174 684 174 690 178 c 1,48,-1
 690 178 l 1,49,50
 684 182 684 182 679 188 c 0,51,52
 667 202 667 202 667 221 c 256,53,54
 667 241 667 241 679 255 c 0,55,56
 692 268 692 268 708 268 c 2,57,-1
 791 268 l 2,58,59
 808 268 808 268 821 255 c 0,60,61
 833 241 833 241 833 221 c 256,62,63
 833 202 833 202 821 188 c 0,64,65
 816 182 816 182 809 178 c 1,66,-1
 809 178 l 1,67,68
 815 175 815 175 821 168 c 0,69,70
 833 154 833 154 833 134 c 256,71,72
 833 114 833 114 821 100 c 0,73,74
 808.866666667 86.9333333333 808.866666667 86.9333333333 793.248888889 86.9333333333 c 0,75,76
 792.133333333 86.9333333333 792.133333333 86.9333333333 791 87 c 2,77,-1
 708 87 l 2,38,39
375 260 m 2,78,79
 358 260 358 260 345 274 c 256,80,81
 333 288 333 288 333 308 c 256,82,83
 333 328 333 328 345 342 c 256,84,85
 357 356 357 356 375 356 c 2,86,-1
 625 356 l 2,87,88
 642 356 642 356 655 342 c 0,89,90
 667 328 667 328 667 308 c 256,91,92
 667 288 667 288 655 274 c 0,93,94
 642 260 642 260 625 260 c 2,95,-1
 375 260 l 2,78,79
41 87 m 2,96,97
 39.8666666667 86.9333333333 39.8666666667 86.9333333333 38.7555555556 86.9333333333 c 0,98,99
 23.2 86.9333333333 23.2 86.9333333333 12 100 c 256,100,101
 0 114 0 114 0 134 c 256,102,103
 0 154 0 154 12 168 c 0,104,105
 17 174 17 174 24 178 c 1,106,-1
 24 178 l 1,107,108
 18 182 18 182 12 188 c 0,109,110
 0 202 0 202 0 221 c 256,111,112
 0 241 0 241 12 255 c 256,113,114
 24 268 24 268 41 268 c 2,115,-1
 100 268 l 1,116,117
 97 270 97 270 95 274 c 0,118,119
 83 288 83 288 83 308 c 256,120,121
 83 328 83 328 95 342 c 0,122,123
 108 356 108 356 125 356 c 2,124,-1
 184 356 l 1,125,126
 180 358 180 358 178 361 c 0,127,128
 166 374 166 374 166 394 c 256,129,130
 166 414 166 414 178 428 c 256,131,132
 190 442 190 442 208 442 c 2,133,-1
 267 442 l 1,134,135
 264 444 264 444 262 448 c 0,136,137
 250 462 250 462 250 482 c 256,138,139
 250 502 250 502 262 515 c 0,140,141
 275 530 275 530 292 530 c 2,142,-1
 351 530 l 1,143,144
 348 532 348 532 345 535 c 0,145,146
 333 548 333 548 333 568 c 256,147,148
 333 588 333 588 345 602 c 256,149,150
 357 616 357 616 375 616 c 2,151,-1
 458 616 l 2,152,153
 476 616 476 616 488 602 c 128,-1,154
 500 588 500 588 500 568 c 256,155,156
 500 548 500 548 488 535 c 0,157,158
 475 520 475 520 458 520 c 2,159,-1
 399 520 l 1,160,161
 402 518 402 518 404 515 c 0,162,163
 416 502 416 502 416 482 c 256,164,165
 416 462 416 462 404 448 c 256,166,167
 392 434 392 434 375 434 c 2,168,-1
 316 434 l 1,169,170
 318 432 318 432 321 428 c 0,171,172
 333.071428571 415 333.071428571 415 333.071428571 396.826530612 c 0,173,174
 333.071428571 374.077380952 333.071428571 374.077380952 321 361 c 0,175,176
 309 347 309 347 292 347 c 2,177,-1
 232 347 l 1,178,179
 235 345 235 345 238 342 c 0,180,181
 250 328 250 328 250 308 c 256,182,183
 250 288 250 288 238 274 c 0,184,185
 225 260 225 260 208 260 c 2,186,-1
 149 260 l 1,187,188
 150 258 150 258 154 255 c 0,189,190
 166 241 166 241 166 221 c 256,191,192
 166 202 166 202 154 188 c 0,193,194
 148 182 148 182 142 178 c 1,195,-1
 142 178 l 1,196,197
 148 175 148 175 154 168 c 0,198,199
 166 154 166 154 166 134 c 256,200,201
 166 114 166 114 154 100 c 0,202,203
 142.8 86.9333333333 142.8 86.9333333333 127.244444444 86.9333333333 c 0,204,205
 126.133333333 86.9333333333 126.133333333 86.9333333333 125 87 c 2,206,-1
 41 87 l 2,96,97
EndSplineSet
Validated: 524293
EndChar

StartChar: seven
Encoding: 55 55 23
Width: 960
VWidth: 750
Flags: W
LayerCount: 2
Fore
SplineSet
-41 -173 m 2,0,1
 -58 -173 -58 -173 -71 -160 c 0,2,3
 -83 -146 -83 -146 -83 -125 c 256,4,5
 -83 -105 -83 -105 -71 -92 c 0,6,7
 -58 -78 -58 -78 -41 -78 c 2,8,-1
 958 -78 l 2,9,10
 975 -78 975 -78 988 -92 c 0,11,12
 1000 -106 1000 -106 1000 -125 c 256,13,14
 1000 -145 1000 -145 988 -160 c 0,15,16
 975.866666667 -173.066666667 975.866666667 -173.066666667 960.248888889 -173.066666667 c 0,17,18
 959.133333333 -173.066666667 959.133333333 -173.066666667 958 -173 c 2,19,-1
 -41 -173 l 2,0,1
208 0 m 2,20,21
 190 0 190 0 178 14 c 256,22,23
 166 28 166 28 166 47 c 256,24,25
 166 67 166 67 178 81 c 256,26,27
 190 95 190 95 208 95 c 2,28,-1
 267 95 l 1,29,30
 264 96 264 96 262 100 c 0,31,32
 250 114 250 114 250 134 c 256,33,34
 250 154 250 154 262 168 c 0,35,36
 275 182 275 182 292 182 c 2,37,-1
 351 182 l 1,38,39
 348 184 348 184 345 188 c 0,40,41
 333 202 333 202 333 221 c 256,42,43
 333 241 333 241 345 255 c 256,44,45
 357 268 357 268 375 268 c 2,46,-1
 434 268 l 1,47,48
 432 270 432 270 429 274 c 0,49,50
 416 288 416 288 416 308 c 256,51,52
 416 328 416 328 429 342 c 0,53,54
 441 356 441 356 458 356 c 2,55,-1
 518 356 l 1,56,57
 515 358 515 358 512 361 c 0,58,59
 500 374 500 374 500 394 c 256,60,61
 500 414 500 414 512 428 c 0,62,63
 526 442 526 442 542 442 c 2,64,-1
 601 442 l 1,65,66
 600 444 600 444 596 448 c 0,67,68
 583 462 583 462 583 482 c 256,69,70
 584 502 584 502 596 515 c 0,71,72
 598 518 598 518 601 520 c 1,73,-1
 41 520 l 2,74,75
 24 520 24 520 12 535 c 256,76,77
 0 548 0 548 0 568 c 256,78,79
 0 588 0 588 12 602 c 256,80,81
 24 616 24 616 41 616 c 2,82,-1
 791 616 l 2,83,84
 808 616 808 616 821 602 c 0,85,86
 833 588 833 588 833 568 c 256,87,88
 833 548 833 548 821 535 c 0,89,90
 808 520 808 520 791 520 c 2,91,-1
 733 520 l 1,92,93
 735 518 735 518 737 515 c 0,94,95
 750 502 750 502 750 482 c 256,96,97
 750 462 750 462 737 448 c 0,98,99
 725 434 725 434 708 434 c 2,100,-1
 649 434 l 1,101,102
 652 432 652 432 655 428 c 0,103,104
 667 414 667 414 667 394 c 256,105,106
 667 374 667 374 655 361 c 0,107,108
 642 347 642 347 625 347 c 2,109,-1
 566 347 l 1,110,111
 569 345 569 345 571 342 c 0,112,113
 583 328 583 328 583 308 c 256,114,115
 583 288 583 288 571 274 c 256,116,117
 560 260 560 260 542 260 c 2,118,-1
 482 260 l 1,119,120
 486 258 486 258 488 255 c 0,121,122
 500 241 500 241 500 221 c 256,123,124
 500 202 500 202 488 188 c 0,125,126
 475 174 475 174 458 173 c 2,127,-1
 399 173 l 1,128,129
 402 171 402 171 404 168 c 0,130,131
 416 154 416 154 416 134 c 256,132,133
 416 114 416 114 404 100 c 256,134,135
 392.8 86.9333333333 392.8 86.9333333333 377.244444444 86.9333333333 c 0,136,137
 376.133333333 86.9333333333 376.133333333 86.9333333333 375 87 c 2,138,-1
 316 87 l 1,139,140
 318 85 318 85 321 81 c 0,141,142
 333.071428571 68 333.071428571 68 333.071428571 49.8265306122 c 0,143,144
 333.071428571 27.0773809524 333.071428571 27.0773809524 321 14 c 0,145,146
 309 0 309 0 292 0 c 2,147,-1
 208 0 l 2,20,21
EndSplineSet
Validated: 524289
EndChar

StartChar: eight
Encoding: 56 56 24
Width: 960
VWidth: 750
Flags: W
LayerCount: 2
Fore
SplineSet
-41 -173 m 2,0,1
 -58 -173 -58 -173 -71 -160 c 0,2,3
 -83 -146 -83 -146 -83 -125 c 256,4,5
 -83 -105 -83 -105 -71 -92 c 0,6,7
 -58 -78 -58 -78 -41 -78 c 2,8,-1
 958 -78 l 2,9,10
 975 -78 975 -78 988 -92 c 0,11,12
 1000 -106 1000 -106 1000 -125 c 256,13,14
 1000 -145 1000 -145 988 -160 c 0,15,16
 975.866666667 -173.066666667 975.866666667 -173.066666667 960.248888889 -173.066666667 c 0,17,18
 959.133333333 -173.066666667 959.133333333 -173.066666667 958 -173 c 2,19,-1
 -41 -173 l 2,0,1
208 0 m 2,20,21
 190 0 190 0 178 14 c 256,22,23
 166 28 166 28 166 47 c 256,24,25
 166 67 166 67 178 81 c 256,26,27
 190 95 190 95 208 95 c 2,28,-1
 625 95 l 2,29,30
 642 95 642 95 655 81 c 0,31,32
 667 67 667 67 667 47 c 256,33,34
 667 27 667 27 655 14 c 0,35,36
 642 0 642 0 625 0 c 2,37,-1
 208 0 l 2,20,21
41 87 m 2,38,39
 39.8666666667 86.9333333333 39.8666666667 86.9333333333 38.7555555556 86.9333333333 c 0,40,41
 23.2 86.9333333333 23.2 86.9333333333 12 100 c 256,42,43
 0 114 0 114 0 134 c 256,44,45
 0 154 0 154 12 168 c 0,46,47
 17 174 17 174 24 178 c 1,48,-1
 24 178 l 1,49,50
 18 182 18 182 12 188 c 0,51,52
 0 202 0 202 0 221 c 256,53,54
 0 241 0 241 12 255 c 256,55,56
 24 268 24 268 41 268 c 2,57,-1
 125 268 l 2,58,59
 142 268 142 268 154 255 c 0,60,61
 166 241 166 241 166 221 c 256,62,63
 166 202 166 202 154 188 c 0,64,65
 148 182 148 182 142 178 c 1,66,-1
 142 178 l 1,67,68
 148 175 148 175 154 168 c 0,69,70
 166 154 166 154 166 134 c 256,71,72
 166 114 166 114 154 100 c 0,73,74
 142.8 86.9333333333 142.8 86.9333333333 127.244444444 86.9333333333 c 0,75,76
 126.133333333 86.9333333333 126.133333333 86.9333333333 125 87 c 2,77,-1
 41 87 l 2,38,39
708 87 m 2,78,79
 706.866666667 86.9333333333 706.866666667 86.9333333333 705.755555556 86.9333333333 c 0,80,81
 690.2 86.9333333333 690.2 86.9333333333 679 100 c 0,82,83
 667 114 667 114 667 134 c 256,84,85
 667 154 667 154 679 168 c 0,86,87
 684 174 684 174 690 178 c 1,88,-1
 690 178 l 1,89,90
 684 182 684 182 679 188 c 0,91,92
 667 202 667 202 667 221 c 256,93,94
 667 241 667 241 679 255 c 0,95,96
 692 268 692 268 708 268 c 2,97,-1
 791 268 l 2,98,99
 808 268 808 268 821 255 c 0,100,101
 833 241 833 241 833 221 c 256,102,103
 833 202 833 202 821 188 c 0,104,105
 816 182 816 182 809 178 c 1,106,-1
 809 178 l 1,107,108
 815 175 815 175 821 168 c 0,109,110
 833 154 833 154 833 134 c 256,111,112
 833 114 833 114 821 100 c 0,113,114
 808.866666667 86.9333333333 808.866666667 86.9333333333 793.248888889 86.9333333333 c 0,115,116
 792.133333333 86.9333333333 792.133333333 86.9333333333 791 87 c 2,117,-1
 708 87 l 2,78,79
208 260 m 2,118,119
 190 260 190 260 178 274 c 256,120,121
 166 288 166 288 166 308 c 256,122,123
 166 328 166 328 178 342 c 256,124,125
 190 356 190 356 208 356 c 2,126,-1
 625 356 l 2,127,128
 642 356 642 356 655 342 c 0,129,130
 667 328 667 328 667 308 c 256,131,132
 667 288 667 288 655 274 c 0,133,134
 642 260 642 260 625 260 c 2,135,-1
 208 260 l 2,118,119
41 347 m 2,136,137
 24 347 24 347 12 361 c 256,138,139
 0 374 0 374 0 394 c 256,140,141
 0 414 0 414 12 428 c 0,142,143
 17 434 17 434 24 438 c 1,144,-1
 24 438 l 1,145,146
 18 441 18 441 12 448 c 0,147,148
 0 462 0 462 0 482 c 256,149,150
 0 502 0 502 12 515 c 256,151,152
 24 530 24 530 41 530 c 2,153,-1
 125 530 l 2,154,155
 142 530 142 530 154 515 c 0,156,157
 166 502 166 502 166 482 c 256,158,159
 166 462 166 462 154 448 c 0,160,161
 148 442 148 442 142 438 c 1,162,-1
 142 438 l 1,163,164
 148 434 148 434 154 428 c 0,165,166
 166 414 166 414 166 394 c 256,167,168
 166 374 166 374 154 361 c 0,169,170
 142 347 142 347 125 347 c 2,171,-1
 41 347 l 2,136,137
708 347 m 2,172,173
 691 347 691 347 679 361 c 0,174,175
 667 374 667 374 667 394 c 256,176,177
 667 414 667 414 679 428 c 0,178,179
 684 434 684 434 690 438 c 1,180,-1
 690 438 l 1,181,182
 684 441 684 441 679 448 c 0,183,184
 667 462 667 462 667 482 c 256,185,186
 667 502 667 502 679 515 c 0,187,188
 692 530 692 530 708 530 c 2,189,-1
 791 530 l 2,190,191
 808 530 808 530 821 515 c 0,192,193
 833 502 833 502 833 482 c 256,194,195
 833 462 833 462 821 448 c 0,196,197
 816 442 816 442 809 438 c 1,198,-1
 809 438 l 1,199,200
 815 434 815 434 821 428 c 0,201,202
 833 414 833 414 833 394 c 256,203,204
 833 374 833 374 821 361 c 0,205,206
 808 347 808 347 791 347 c 2,207,-1
 708 347 l 2,172,173
208 520 m 2,208,209
 190 520 190 520 178 535 c 256,210,211
 166 548 166 548 166 568 c 256,212,213
 166 588 166 588 178 602 c 256,214,215
 190 616 190 616 208 616 c 2,216,-1
 625 616 l 2,217,218
 642 616 642 616 655 602 c 0,219,220
 667 588 667 588 667 568 c 256,221,222
 667 548 667 548 655 535 c 0,223,224
 642 520 642 520 625 520 c 2,225,-1
 208 520 l 2,208,209
EndSplineSet
Validated: 524293
EndChar

StartChar: nine
Encoding: 57 57 25
Width: 960
VWidth: 750
Flags: W
LayerCount: 2
Fore
SplineSet
-41 -173 m 2,0,1
 -58 -173 -58 -173 -71 -160 c 0,2,3
 -83 -146 -83 -146 -83 -125 c 256,4,5
 -83 -105 -83 -105 -71 -92 c 0,6,7
 -58 -78 -58 -78 -41 -78 c 2,8,-1
 958 -78 l 2,9,10
 975 -78 975 -78 988 -92 c 0,11,12
 1000 -106 1000 -106 1000 -125 c 256,13,14
 1000 -145 1000 -145 988 -160 c 0,15,16
 975.866666667 -173.066666667 975.866666667 -173.066666667 960.248888889 -173.066666667 c 0,17,18
 959.133333333 -173.066666667 959.133333333 -173.066666667 958 -173 c 2,19,-1
 -41 -173 l 2,0,1
208 260 m 2,20,21
 190 260 190 260 178 274 c 256,22,23
 166 288 166 288 166 308 c 256,24,25
 166 328 166 328 178 342 c 256,26,27
 190 356 190 356 208 356 c 2,28,-1
 458 356 l 2,29,30
 476 356 476 356 488 342 c 128,-1,31
 500 328 500 328 500 308 c 256,32,33
 500 288 500 288 488 274 c 0,34,35
 475 260 475 260 458 260 c 2,36,-1
 208 260 l 2,20,21
41 347 m 2,37,38
 24 347 24 347 12 361 c 256,39,40
 0 374 0 374 0 394 c 256,41,42
 0 414 0 414 12 428 c 0,43,44
 17 434 17 434 24 438 c 1,45,-1
 24 438 l 1,46,47
 18 441 18 441 12 448 c 0,48,49
 0 462 0 462 0 482 c 256,50,51
 0 502 0 502 12 515 c 256,52,53
 24 530 24 530 41 530 c 2,54,-1
 125 530 l 2,55,56
 142 530 142 530 154 515 c 0,57,58
 166 502 166 502 166 482 c 256,59,60
 166 462 166 462 154 448 c 0,61,62
 148 442 148 442 142 438 c 1,63,-1
 142 438 l 1,64,65
 148 434 148 434 154 428 c 0,66,67
 166 414 166 414 166 394 c 256,68,69
 166 374 166 374 154 361 c 0,70,71
 142 347 142 347 125 347 c 2,72,-1
 41 347 l 2,37,38
375 0 m 2,73,74
 358 0 358 0 345 14 c 256,75,76
 333 28 333 28 333 47 c 256,77,78
 333 67 333 67 345 81 c 256,79,80
 357 95 357 95 375 95 c 2,81,-1
 434 95 l 1,82,83
 432 96 432 96 429 100 c 0,84,85
 416 114 416 114 416 134 c 256,86,87
 416 154 416 154 429 168 c 0,88,89
 441 182 441 182 458 182 c 2,90,-1
 518 182 l 1,91,92
 515 184 515 184 512 188 c 0,93,94
 500 202 500 202 500 221 c 256,95,96
 500 241 500 241 512 255 c 0,97,98
 526 268 526 268 542 268 c 2,99,-1
 601 268 l 1,100,101
 600 270 600 270 596 274 c 0,102,103
 583 288 583 288 583 308 c 256,104,105
 584 328 584 328 596 342 c 128,-1,106
 608 356 608 356 625 356 c 2,107,-1
 684 356 l 1,108,109
 681 358 681 358 679 361 c 0,110,111
 667 374 667 374 667 394 c 256,112,113
 667 414 667 414 679 428 c 0,114,115
 684 434 684 434 690 438 c 1,116,-1
 690 438 l 1,117,118
 684 441 684 441 679 448 c 0,119,120
 667 462 667 462 667 482 c 256,121,122
 667 502 667 502 679 515 c 0,123,124
 692 530 692 530 708 530 c 2,125,-1
 791 530 l 2,126,127
 808 530 808 530 821 515 c 0,128,129
 833 502 833 502 833 482 c 256,130,131
 833 462 833 462 821 448 c 0,132,133
 816 442 816 442 809 438 c 1,134,-1
 809 438 l 1,135,136
 815 434 815 434 821 428 c 0,137,138
 833 414 833 414 833 394 c 256,139,140
 833 374 833 374 821 361 c 0,141,142
 808 347 808 347 791 347 c 2,143,-1
 733 347 l 1,144,145
 735 345 735 345 737 342 c 0,146,147
 750 328 750 328 750 308 c 256,148,149
 750 288 750 288 737 274 c 0,150,151
 725 260 725 260 708 260 c 2,152,-1
 649 260 l 1,153,154
 652 258 652 258 655 255 c 0,155,156
 667 241 667 241 667 221 c 256,157,158
 667 202 667 202 655 188 c 0,159,160
 642 174 642 174 625 173 c 2,161,-1
 566 173 l 1,162,163
 569 171 569 171 571 168 c 0,164,165
 583 154 583 154 583 134 c 256,166,167
 583 114 583 114 571 100 c 256,168,169
 560.733333333 86.9333333333 560.733333333 86.9333333333 544.368888889 86.9333333333 c 0,170,171
 543.2 86.9333333333 543.2 86.9333333333 542 87 c 2,172,-1
 482 87 l 1,173,174
 486 85 486 85 488 81 c 0,175,176
 500 67 500 67 500 47 c 256,177,178
 500 27 500 27 488 14 c 0,179,180
 475 0 475 0 458 0 c 2,181,-1
 375 0 l 2,73,74
208 520 m 2,182,183
 190 520 190 520 178 535 c 256,184,185
 166 548 166 548 166 568 c 256,186,187
 166 588 166 588 178 602 c 256,188,189
 190 616 190 616 208 616 c 2,190,-1
 625 616 l 2,191,192
 642 616 642 616 655 602 c 0,193,194
 667 588 667 588 667 568 c 256,195,196
 667 548 667 548 655 535 c 0,197,198
 642 520 642 520 625 520 c 2,199,-1
 208 520 l 2,182,183
EndSplineSet
Validated: 524293
EndChar

StartChar: colon
Encoding: 58 58 26
Width: 560
VWidth: 750
Flags: W
LayerCount: 2
Fore
SplineSet
-41 -173 m 2,0,1
 -58 -173 -58 -173 -71 -160 c 0,2,3
 -83 -146 -83 -146 -83 -125 c 256,4,5
 -83 -105 -83 -105 -71 -92 c 0,6,7
 -58 -78 -58 -78 -41 -78 c 2,8,-1
 542 -78 l 2,9,10
 559 -78 559 -78 571 -92 c 256,11,12
 583 -106 583 -106 583 -125 c 256,13,14
 583 -145 583 -145 571 -160 c 0,15,16
 560.733333333 -173.066666667 560.733333333 -173.066666667 544.368888889 -173.066666667 c 0,17,18
 543.2 -173.066666667 543.2 -173.066666667 542 -173 c 2,19,-1
 -41 -173 l 2,0,1
125 0 m 2,20,21
 108 0 108 0 95 14 c 0,22,23
 83 28 83 28 83 47 c 256,24,25
 83 67 83 67 95 81 c 0,26,27
 96 84 96 84 100 87 c 1,28,-1
 41 87 l 2,29,30
 39.8666666667 86.9333333333 39.8666666667 86.9333333333 38.7555555556 86.9333333333 c 0,31,32
 23.2 86.9333333333 23.2 86.9333333333 12 100 c 256,33,34
 0 114 0 114 0 134 c 256,35,36
 0 154 0 154 12 168 c 256,37,38
 24 182 24 182 41 182 c 2,39,-1
 100 182 l 1,40,41
 97 184 97 184 95 188 c 0,42,43
 83 202 83 202 83 221 c 256,44,45
 83 241 83 241 95 255 c 0,46,47
 108 268 108 268 125 268 c 2,48,-1
 208 268 l 2,49,50
 225 268 225 268 238 255 c 0,51,52
 250 241 250 241 250 221 c 256,53,54
 250 202 250 202 238 188 c 0,55,56
 236 185 236 185 232 182 c 1,57,-1
 292 182 l 2,58,59
 309 182 309 182 321 168 c 0,60,61
 333.071428571 155 333.071428571 155 333.071428571 136.826530612 c 0,62,63
 333.071428571 114.083333333 333.071428571 114.083333333 321 100 c 0,64,65
 309.8 86.9333333333 309.8 86.9333333333 294.244444444 86.9333333333 c 0,66,67
 293.133333333 86.9333333333 293.133333333 86.9333333333 292 87 c 2,68,-1
 232 87 l 1,69,70
 235 85 235 85 238 81 c 0,71,72
 250 67 250 67 250 47 c 256,73,74
 250 27 250 27 238 14 c 0,75,76
 225 0 225 0 208 0 c 2,77,-1
 125 0 l 2,20,21
125 347 m 2,78,79
 108 347 108 347 95 361 c 0,80,81
 83 374 83 374 83 394 c 256,82,83
 83 414 83 414 95 428 c 0,84,85
 96 431 96 431 100 434 c 1,86,-1
 41 434 l 2,87,88
 24 434 24 434 12 448 c 256,89,90
 0 462 0 462 0 482 c 256,91,92
 0 502 0 502 12 515 c 256,93,94
 24 530 24 530 41 530 c 2,95,-1
 100 530 l 1,96,97
 97 532 97 532 95 535 c 0,98,99
 83 548 83 548 83 568 c 256,100,101
 83 588 83 588 95 602 c 0,102,103
 108 616 108 616 125 616 c 2,104,-1
 208 616 l 2,105,106
 225 616 225 616 238 602 c 0,107,108
 250 588 250 588 250 568 c 256,109,110
 250 548 250 548 238 535 c 0,111,112
 236 532 236 532 232 530 c 1,113,-1
 292 530 l 2,114,115
 309 530 309 530 321 515 c 0,116,117
 333.071428571 502.928571429 333.071428571 502.928571429 333.071428571 484.821428571 c 0,118,119
 333.071428571 462.083333333 333.071428571 462.083333333 321 448 c 128,-1,120
 309 434 309 434 292 434 c 2,121,-1
 232 434 l 1,122,123
 235 432 235 432 238 428 c 0,124,125
 250 414 250 414 250 394 c 256,126,127
 250 374 250 374 238 361 c 0,128,129
 225 347 225 347 208 347 c 2,130,-1
 125 347 l 2,78,79
EndSplineSet
Validated: 524289
EndChar

StartChar: semicolon
Encoding: 59 59 27
Width: 560
VWidth: 750
Flags: W
LayerCount: 2
Fore
SplineSet
-41 -173 m 2,0,1
 -58 -173 -58 -173 -71 -160 c 0,2,3
 -83 -146 -83 -146 -83 -125 c 256,4,5
 -83 -105 -83 -105 -71 -92 c 0,6,7
 -58 -78 -58 -78 -41 -78 c 2,8,-1
 17 -78 l 1,9,10
 15 -76 15 -76 12 -73 c 0,11,12
 0 -59 0 -59 0 -39 c 256,13,14
 0 -19 0 -19 12 -5 c 0,15,16
 23.2 8.06666666667 23.2 8.06666666667 38.7555555556 8.06666666667 c 0,17,18
 39.8666666667 8.06666666667 39.8666666667 8.06666666667 41 8 c 2,19,-1
 100 8 l 1,20,21
 97 10 97 10 95 14 c 0,22,23
 83 28 83 28 83 47 c 256,24,25
 83 67 83 67 95 81 c 0,26,27
 96 84 96 84 100 87 c 1,28,-1
 41 87 l 2,29,30
 39.8666666667 86.9333333333 39.8666666667 86.9333333333 38.7555555556 86.9333333333 c 0,31,32
 23.2 86.9333333333 23.2 86.9333333333 12 100 c 256,33,34
 0 114 0 114 0 134 c 256,35,36
 0 154 0 154 12 168 c 256,37,38
 24 182 24 182 41 182 c 2,39,-1
 100 182 l 1,40,41
 97 184 97 184 95 188 c 0,42,43
 83 202 83 202 83 221 c 256,44,45
 83 241 83 241 95 255 c 0,46,47
 108 268 108 268 125 268 c 2,48,-1
 208 268 l 2,49,50
 225 268 225 268 238 255 c 0,51,52
 250 241 250 241 250 221 c 256,53,54
 250 202 250 202 238 188 c 0,55,56
 236 185 236 185 232 182 c 1,57,-1
 292 182 l 2,58,59
 309 182 309 182 321 168 c 0,60,61
 333.071428571 155 333.071428571 155 333.071428571 136.826530612 c 0,62,63
 333.071428571 114.083333333 333.071428571 114.083333333 321 100 c 0,64,65
 309.8 86.9333333333 309.8 86.9333333333 294.244444444 86.9333333333 c 0,66,67
 293.133333333 86.9333333333 293.133333333 86.9333333333 292 87 c 2,68,-1
 232 87 l 1,69,70
 235 85 235 85 238 81 c 0,71,72
 250 67 250 67 250 47 c 256,73,74
 250 27 250 27 238 14 c 0,75,76
 225 0 225 0 208 0 c 2,77,-1
 149 0 l 1,78,79
 150 -2 150 -2 154 -5 c 0,80,81
 166 -19 166 -19 166 -39 c 256,82,83
 166 -59 166 -59 154 -73 c 0,84,85
 152 -76 152 -76 149 -78 c 1,86,-1
 542 -78 l 2,87,88
 559 -78 559 -78 571 -92 c 256,89,90
 583 -106 583 -106 583 -125 c 256,91,92
 583 -145 583 -145 571 -160 c 0,93,94
 560.733333333 -173.066666667 560.733333333 -173.066666667 544.368888889 -173.066666667 c 0,95,96
 543.2 -173.066666667 543.2 -173.066666667 542 -173 c 2,97,-1
 -41 -173 l 2,0,1
125 347 m 2,98,99
 108 347 108 347 95 361 c 0,100,101
 83 374 83 374 83 394 c 256,102,103
 83 414 83 414 95 428 c 0,104,105
 96 431 96 431 100 434 c 1,106,-1
 41 434 l 2,107,108
 24 434 24 434 12 448 c 256,109,110
 0 462 0 462 0 482 c 256,111,112
 0 502 0 502 12 515 c 256,113,114
 24 530 24 530 41 530 c 2,115,-1
 100 530 l 1,116,117
 97 532 97 532 95 535 c 0,118,119
 83 548 83 548 83 568 c 256,120,121
 83 588 83 588 95 602 c 0,122,123
 108 616 108 616 125 616 c 2,124,-1
 208 616 l 2,125,126
 225 616 225 616 238 602 c 0,127,128
 250 588 250 588 250 568 c 256,129,130
 250 548 250 548 238 535 c 0,131,132
 236 532 236 532 232 530 c 1,133,-1
 292 530 l 2,134,135
 309 530 309 530 321 515 c 0,136,137
 333.071428571 502.928571429 333.071428571 502.928571429 333.071428571 484.821428571 c 0,138,139
 333.071428571 462.083333333 333.071428571 462.083333333 321 448 c 128,-1,140
 309 434 309 434 292 434 c 2,141,-1
 232 434 l 1,142,143
 235 432 235 432 238 428 c 0,144,145
 250 414 250 414 250 394 c 256,146,147
 250 374 250 374 238 361 c 0,148,149
 225 347 225 347 208 347 c 2,150,-1
 125 347 l 2,98,99
EndSplineSet
Validated: 524289
EndChar

StartChar: less
Encoding: 60 60 28
Width: 960
VWidth: 750
Flags: W
LayerCount: 2
Fore
SplineSet
-41 -173 m 2,0,1
 -58 -173 -58 -173 -71 -160 c 0,2,3
 -83 -146 -83 -146 -83 -125 c 256,4,5
 -83 -105 -83 -105 -71 -92 c 0,6,7
 -58 -78 -58 -78 -41 -78 c 2,8,-1
 958 -78 l 2,9,10
 975 -78 975 -78 988 -92 c 0,11,12
 1000 -106 1000 -106 1000 -125 c 256,13,14
 1000 -145 1000 -145 988 -160 c 0,15,16
 975.866666667 -173.066666667 975.866666667 -173.066666667 960.248888889 -173.066666667 c 0,17,18
 959.133333333 -173.066666667 959.133333333 -173.066666667 958 -173 c 2,19,-1
 -41 -173 l 2,0,1
542 0 m 2,20,21
 525 0 525 0 512 14 c 0,22,23
 500 28 500 28 500 47 c 256,24,25
 500 67 500 67 512 81 c 0,26,27
 526 95 526 95 542 95 c 2,28,-1
 791 95 l 2,29,30
 808 95 808 95 821 81 c 0,31,32
 833 67 833 67 833 47 c 256,33,34
 833 27 833 27 821 14 c 0,35,36
 808 0 808 0 791 0 c 2,37,-1
 542 0 l 2,20,21
375 87 m 2,38,39
 373.866666667 86.9333333333 373.866666667 86.9333333333 372.751111111 86.9333333333 c 0,40,41
 357.133333333 86.9333333333 357.133333333 86.9333333333 345 100 c 256,42,43
 333 114 333 114 333 134 c 256,44,45
 333 154 333 154 345 168 c 256,46,47
 357 182 357 182 375 182 c 2,48,-1
 458 182 l 2,49,50
 476 182 476 182 488 168 c 128,-1,51
 500 154 500 154 500 134 c 256,52,53
 500 114 500 114 488 100 c 0,54,55
 475.866666667 86.9333333333 475.866666667 86.9333333333 460.248888889 86.9333333333 c 0,56,57
 459.133333333 86.9333333333 459.133333333 86.9333333333 458 87 c 2,58,-1
 375 87 l 2,38,39
208 173 m 2,59,60
 190 174 190 174 178 188 c 256,61,62
 166 202 166 202 166 221 c 256,63,64
 166 241 166 241 178 255 c 256,65,66
 190 268 190 268 208 268 c 2,67,-1
 292 268 l 2,68,69
 309 268 309 268 321 255 c 128,-1,70
 333.071428571 242 333.071428571 242 333.071428571 223.826530612 c 0,71,72
 333.071428571 202.083333333 333.071428571 202.083333333 321 188 c 128,-1,73
 309 174 309 174 292 173 c 2,74,-1
 208 173 l 2,59,60
41 260 m 2,75,76
 24 260 24 260 12 274 c 256,77,78
 0 288 0 288 0 308 c 256,79,80
 0 328 0 328 12 342 c 256,81,82
 24 356 24 356 41 356 c 2,83,-1
 125 356 l 2,84,85
 142 356 142 356 154 342 c 128,-1,86
 166 328 166 328 166 308 c 256,87,88
 166 288 166 288 154 274 c 128,-1,89
 142 260 142 260 125 260 c 2,90,-1
 41 260 l 2,75,76
208 347 m 2,91,92
 190 347 190 347 178 361 c 256,93,94
 166 374 166 374 166 394 c 256,95,96
 166 414 166 414 178 428 c 256,97,98
 190 442 190 442 208 442 c 2,99,-1
 292 442 l 2,100,101
 309 442 309 442 321 428 c 0,102,103
 333.071428571 415 333.071428571 415 333.071428571 396.826530612 c 0,104,105
 333.071428571 374.077380952 333.071428571 374.077380952 321 361 c 0,106,107
 309 347 309 347 292 347 c 2,108,-1
 208 347 l 2,91,92
375 434 m 2,109,110
 358 434 358 434 345 448 c 256,111,112
 333 462 333 462 333 482 c 256,113,114
 333 502 333 502 345 515 c 256,115,116
 357 530 357 530 375 530 c 2,117,-1
 458 530 l 2,118,119
 476 530 476 530 488 515 c 0,120,121
 500 502 500 502 500 482 c 256,122,123
 500 462 500 462 488 448 c 0,124,125
 475 434 475 434 458 434 c 2,126,-1
 375 434 l 2,109,110
542 520 m 2,127,128
 525 520 525 520 512 535 c 0,129,130
 500 548 500 548 500 568 c 256,131,132
 500 588 500 588 512 602 c 0,133,134
 526 616 526 616 542 616 c 2,135,-1
 791 616 l 2,136,137
 808 616 808 616 821 602 c 0,138,139
 833 588 833 588 833 568 c 256,140,141
 833 548 833 548 821 535 c 0,142,143
 808 520 808 520 791 520 c 2,144,-1
 542 520 l 2,127,128
EndSplineSet
Validated: 524289
EndChar

StartChar: equal
Encoding: 61 61 29
Width: 960
VWidth: 750
Flags: W
LayerCount: 2
Fore
SplineSet
-41 -173 m 2,0,1
 -58 -173 -58 -173 -71 -160 c 0,2,3
 -83 -146 -83 -146 -83 -125 c 256,4,5
 -83 -105 -83 -105 -71 -92 c 0,6,7
 -58 -78 -58 -78 -41 -78 c 2,8,-1
 958 -78 l 2,9,10
 975 -78 975 -78 988 -92 c 0,11,12
 1000 -106 1000 -106 1000 -125 c 256,13,14
 1000 -145 1000 -145 988 -160 c 0,15,16
 975.866666667 -173.066666667 975.866666667 -173.066666667 960.248888889 -173.066666667 c 0,17,18
 959.133333333 -173.066666667 959.133333333 -173.066666667 958 -173 c 2,19,-1
 -41 -173 l 2,0,1
41 173 m 2,20,21
 24 174 24 174 12 188 c 256,22,23
 0 202 0 202 0 221 c 256,24,25
 0 241 0 241 12 255 c 256,26,27
 24 268 24 268 41 268 c 2,28,-1
 791 268 l 2,29,30
 808 268 808 268 821 255 c 0,31,32
 833 241 833 241 833 221 c 256,33,34
 833 202 833 202 821 188 c 0,35,36
 808 174 808 174 791 173 c 2,37,-1
 41 173 l 2,20,21
41 347 m 2,38,39
 24 347 24 347 12 361 c 256,40,41
 0 374 0 374 0 394 c 256,42,43
 0 414 0 414 12 428 c 256,44,45
 24 442 24 442 41 442 c 2,46,-1
 791 442 l 2,47,48
 808 442 808 442 821 428 c 0,49,50
 833 414 833 414 833 394 c 256,51,52
 833 374 833 374 821 361 c 0,53,54
 808 347 808 347 791 347 c 2,55,-1
 41 347 l 2,38,39
EndSplineSet
Validated: 524289
EndChar

StartChar: greater
Encoding: 62 62 30
Width: 960
VWidth: 750
Flags: W
LayerCount: 2
Fore
SplineSet
-41 -173 m 2,0,1
 -58 -173 -58 -173 -71 -160 c 0,2,3
 -83 -146 -83 -146 -83 -125 c 256,4,5
 -83 -105 -83 -105 -71 -92 c 0,6,7
 -58 -78 -58 -78 -41 -78 c 2,8,-1
 958 -78 l 2,9,10
 975 -78 975 -78 988 -92 c 0,11,12
 1000 -106 1000 -106 1000 -125 c 256,13,14
 1000 -145 1000 -145 988 -160 c 0,15,16
 975.866666667 -173.066666667 975.866666667 -173.066666667 960.248888889 -173.066666667 c 0,17,18
 959.133333333 -173.066666667 959.133333333 -173.066666667 958 -173 c 2,19,-1
 -41 -173 l 2,0,1
41 0 m 2,20,21
 24 0 24 0 12 14 c 256,22,23
 0 28 0 28 0 47 c 256,24,25
 0 67 0 67 12 81 c 256,26,27
 24 95 24 95 41 95 c 2,28,-1
 292 95 l 2,29,30
 309 95 309 95 321 81 c 0,31,32
 333.071428571 68 333.071428571 68 333.071428571 49.8265306122 c 0,33,34
 333.071428571 27.0773809524 333.071428571 27.0773809524 321 14 c 0,35,36
 309 0 309 0 292 0 c 2,37,-1
 41 0 l 2,20,21
375 87 m 2,38,39
 373.866666667 86.9333333333 373.866666667 86.9333333333 372.751111111 86.9333333333 c 0,40,41
 357.133333333 86.9333333333 357.133333333 86.9333333333 345 100 c 256,42,43
 333 114 333 114 333 134 c 256,44,45
 333 154 333 154 345 168 c 256,46,47
 357 182 357 182 375 182 c 2,48,-1
 458 182 l 2,49,50
 476 182 476 182 488 168 c 128,-1,51
 500 154 500 154 500 134 c 256,52,53
 500 114 500 114 488 100 c 0,54,55
 475.866666667 86.9333333333 475.866666667 86.9333333333 460.248888889 86.9333333333 c 0,56,57
 459.133333333 86.9333333333 459.133333333 86.9333333333 458 87 c 2,58,-1
 375 87 l 2,38,39
542 173 m 2,59,60
 525 174 525 174 512 188 c 0,61,62
 500 202 500 202 500 221 c 256,63,64
 500 241 500 241 512 255 c 0,65,66
 526 268 526 268 542 268 c 2,67,-1
 625 268 l 2,68,69
 642 268 642 268 655 255 c 0,70,71
 667 241 667 241 667 221 c 256,72,73
 667 202 667 202 655 188 c 0,74,75
 642 174 642 174 625 173 c 2,76,-1
 542 173 l 2,59,60
708 260 m 2,77,78
 691 260 691 260 679 274 c 128,-1,79
 667 288 667 288 667 308 c 256,80,81
 667 328 667 328 679 342 c 0,82,83
 692 356 692 356 708 356 c 2,84,-1
 791 356 l 2,85,86
 808 356 808 356 821 342 c 0,87,88
 833 328 833 328 833 308 c 256,89,90
 833 288 833 288 821 274 c 0,91,92
 808 260 808 260 791 260 c 2,93,-1
 708 260 l 2,77,78
542 347 m 2,94,95
 525 347 525 347 512 361 c 0,96,97
 500 374 500 374 500 394 c 256,98,99
 500 414 500 414 512 428 c 0,100,101
 526 442 526 442 542 442 c 2,102,-1
 625 442 l 2,103,104
 642 442 642 442 655 428 c 0,105,106
 667 414 667 414 667 394 c 256,107,108
 667 374 667 374 655 361 c 0,109,110
 642 347 642 347 625 347 c 2,111,-1
 542 347 l 2,94,95
375 434 m 2,112,113
 358 434 358 434 345 448 c 256,114,115
 333 462 333 462 333 482 c 256,116,117
 333 502 333 502 345 515 c 256,118,119
 357 530 357 530 375 530 c 2,120,-1
 458 530 l 2,121,122
 476 530 476 530 488 515 c 0,123,124
 500 502 500 502 500 482 c 256,125,126
 500 462 500 462 488 448 c 0,127,128
 475 434 475 434 458 434 c 2,129,-1
 375 434 l 2,112,113
41 520 m 2,130,131
 24 520 24 520 12 535 c 256,132,133
 0 548 0 548 0 568 c 256,134,135
 0 588 0 588 12 602 c 256,136,137
 24 616 24 616 41 616 c 2,138,-1
 292 616 l 2,139,140
 309 616 309 616 321 602 c 0,141,142
 333.071428571 589 333.071428571 589 333.071428571 570.826530612 c 0,143,144
 333.071428571 548.077380952 333.071428571 548.077380952 321 535 c 0,145,146
 309 520 309 520 292 520 c 2,147,-1
 41 520 l 2,130,131
EndSplineSet
Validated: 524289
EndChar

StartChar: question
Encoding: 63 63 31
Width: 960
VWidth: 750
Flags: W
LayerCount: 2
Fore
SplineSet
-41 -173 m 2,0,1
 -58 -173 -58 -173 -71 -160 c 0,2,3
 -83 -146 -83 -146 -83 -125 c 256,4,5
 -83 -105 -83 -105 -71 -92 c 0,6,7
 -58 -78 -58 -78 -41 -78 c 2,8,-1
 958 -78 l 2,9,10
 975 -78 975 -78 988 -92 c 0,11,12
 1000 -106 1000 -106 1000 -125 c 256,13,14
 1000 -145 1000 -145 988 -160 c 0,15,16
 975.866666667 -173.066666667 975.866666667 -173.066666667 960.248888889 -173.066666667 c 0,17,18
 959.133333333 -173.066666667 959.133333333 -173.066666667 958 -173 c 2,19,-1
 -41 -173 l 2,0,1
375 0 m 2,20,21
 358 0 358 0 345 14 c 256,22,23
 333 28 333 28 333 47 c 256,24,25
 333 67 333 67 345 81 c 256,26,27
 357 95 357 95 375 95 c 2,28,-1
 458 95 l 2,29,30
 476 95 476 95 488 81 c 128,-1,31
 500 67 500 67 500 47 c 256,32,33
 500 27 500 27 488 14 c 0,34,35
 475 0 475 0 458 0 c 2,36,-1
 375 0 l 2,20,21
375 173 m 2,37,38
 358 174 358 174 345 188 c 256,39,40
 333 202 333 202 333 221 c 256,41,42
 333 241 333 241 345 255 c 256,43,44
 357 268 357 268 375 268 c 2,45,-1
 458 268 l 2,46,47
 476 268 476 268 488 255 c 0,48,49
 500 241 500 241 500 221 c 256,50,51
 500 202 500 202 488 188 c 0,52,53
 475 174 475 174 458 173 c 2,54,-1
 375 173 l 2,37,38
542 260 m 2,55,56
 525 260 525 260 512 274 c 0,57,58
 500 288 500 288 500 308 c 256,59,60
 500 328 500 328 512 342 c 0,61,62
 526 356 526 356 542 356 c 2,63,-1
 625 356 l 2,64,65
 642 356 642 356 655 342 c 0,66,67
 667 328 667 328 667 308 c 256,68,69
 667 288 667 288 655 274 c 0,70,71
 642 260 642 260 625 260 c 2,72,-1
 542 260 l 2,55,56
41 434 m 2,73,74
 24 434 24 434 12 448 c 256,75,76
 0 462 0 462 0 482 c 256,77,78
 0 502 0 502 12 515 c 256,79,80
 24 530 24 530 41 530 c 2,81,-1
 125 530 l 2,82,83
 142 530 142 530 154 515 c 0,84,85
 166 502 166 502 166 482 c 256,86,87
 166 462 166 462 154 448 c 128,-1,88
 142 434 142 434 125 434 c 2,89,-1
 41 434 l 2,73,74
708 347 m 2,90,91
 691 347 691 347 679 361 c 0,92,93
 667 374 667 374 667 394 c 256,94,95
 667 414 667 414 679 428 c 0,96,97
 684 434 684 434 690 438 c 1,98,-1
 690 438 l 1,99,100
 684 441 684 441 679 448 c 0,101,102
 667 462 667 462 667 482 c 256,103,104
 667 502 667 502 679 515 c 0,105,106
 692 530 692 530 708 530 c 2,107,-1
 791 530 l 2,108,109
 808 530 808 530 821 515 c 0,110,111
 833 502 833 502 833 482 c 256,112,113
 833 462 833 462 821 448 c 0,114,115
 816 442 816 442 809 438 c 1,116,-1
 809 438 l 1,117,118
 815 434 815 434 821 428 c 0,119,120
 833 414 833 414 833 394 c 256,121,122
 833 374 833 374 821 361 c 0,123,124
 808 347 808 347 791 347 c 2,125,-1
 708 347 l 2,90,91
208 520 m 2,126,127
 190 520 190 520 178 535 c 256,128,129
 166 548 166 548 166 568 c 256,130,131
 166 588 166 588 178 602 c 256,132,133
 190 616 190 616 208 616 c 2,134,-1
 625 616 l 2,135,136
 642 616 642 616 655 602 c 0,137,138
 667 588 667 588 667 568 c 256,139,140
 667 548 667 548 655 535 c 0,141,142
 642 520 642 520 625 520 c 2,143,-1
 208 520 l 2,126,127
EndSplineSet
Validated: 524293
EndChar

StartChar: at
Encoding: 64 64 32
Width: 1120
VWidth: 750
Flags: W
LayerCount: 2
Fore
SplineSet
767 182 m 1,0,1
 765 184 765 184 762 188 c 0,2,3
 750 202 750 202 750 221 c 256,4,5
 750 241 750 241 762 255 c 0,6,7
 764 258 764 258 767 260 c 1,8,-1
 482 260 l 1,9,10
 486 258 486 258 488 255 c 0,11,12
 500 241 500 241 500 221 c 256,13,14
 500 202 500 202 488 188 c 0,15,16
 486 185 486 185 482 182 c 1,17,-1
 767 182 l 1,0,1
-41 -173 m 2,18,19
 -58 -173 -58 -173 -71 -160 c 0,20,21
 -83 -146 -83 -146 -83 -125 c 256,22,23
 -83 -105 -83 -105 -71 -92 c 0,24,25
 -58 -78 -58 -78 -41 -78 c 2,26,-1
 184 -78 l 1,27,28
 180 -76 180 -76 178 -73 c 0,29,30
 166 -59 166 -59 166 -39 c 256,31,32
 166 -19 166 -19 178 -5 c 0,33,34
 180 -2 180 -2 184 0 c 1,35,-1
 125 0 l 2,36,37
 108 0 108 0 95 14 c 0,38,39
 83 28 83 28 83 47 c 256,40,41
 83 67 83 67 95 81 c 0,42,43
 96 84 96 84 100 87 c 1,44,-1
 41 87 l 2,45,46
 39.8666666667 86.9333333333 39.8666666667 86.9333333333 38.7555555556 86.9333333333 c 0,47,48
 23.2 86.9333333333 23.2 86.9333333333 12 100 c 256,49,50
 0 114 0 114 0 134 c 256,51,52
 0 154 0 154 12 168 c 0,53,54
 17 174 17 174 24 178 c 1,55,-1
 24 178 l 1,56,57
 18 182 18 182 12 188 c 0,58,59
 0 202 0 202 0 221 c 256,60,61
 0 241 0 241 12 255 c 0,62,63
 17 261 17 261 24 265 c 1,64,-1
 24 265 l 1,65,66
 18 268 18 268 12 274 c 0,67,68
 0 288 0 288 0 308 c 256,69,70
 0 328 0 328 12 342 c 0,71,72
 17 348 17 348 24 352 c 1,73,-1
 24 352 l 1,74,75
 18 355 18 355 12 361 c 0,76,77
 0 374 0 374 0 394 c 256,78,79
 0 414 0 414 12 428 c 256,80,81
 24 442 24 442 41 442 c 2,82,-1
 100 442 l 1,83,84
 97 444 97 444 95 448 c 0,85,86
 83 462 83 462 83 482 c 256,87,88
 83 502 83 502 95 515 c 0,89,90
 108 530 108 530 125 530 c 2,91,-1
 184 530 l 1,92,93
 180 532 180 532 178 535 c 0,94,95
 166 548 166 548 166 568 c 256,96,97
 166 588 166 588 178 602 c 256,98,99
 190 616 190 616 208 616 c 2,100,-1
 708 616 l 2,101,102
 725 616 725 616 737 602 c 0,103,104
 750 588 750 588 750 568 c 256,105,106
 750 548 750 548 737 535 c 0,107,108
 735 532 735 532 733 530 c 1,109,-1
 791 530 l 2,110,111
 808 530 808 530 821 515 c 0,112,113
 833 502 833 502 833 482 c 256,114,115
 833 462 833 462 821 448 c 0,116,117
 819 444 819 444 815 442 c 1,118,-1
 875 442 l 2,119,120
 892 442 892 442 904 428 c 128,-1,121
 916 414 916 414 916 394 c 256,122,123
 916 374 916 374 904 361 c 0,124,125
 898 355 898 355 892 352 c 1,126,-1
 892 352 l 1,127,128
 898 348 898 348 904 342 c 0,129,130
 916 328 916 328 916 308 c 256,131,132
 916 288 916 288 904 274 c 0,133,134
 898 268 898 268 892 265 c 1,135,-1
 892 265 l 1,136,137
 898 262 898 262 904 255 c 0,138,139
 916 241 916 241 916 221 c 256,140,141
 916 202 916 202 904 188 c 0,142,143
 898 182 898 182 892 178 c 1,144,-1
 892 178 l 1,145,146
 898 175 898 175 904 168 c 0,147,148
 916 154 916 154 916 134 c 256,149,150
 916 114 916 114 904 100 c 0,151,152
 892.8 86.9333333333 892.8 86.9333333333 877.244444444 86.9333333333 c 0,153,154
 876.133333333 86.9333333333 876.133333333 86.9333333333 875 87 c 2,155,-1
 458 87 l 2,156,157
 456.866666667 86.9333333333 456.866666667 86.9333333333 455.755555556 86.9333333333 c 0,158,159
 440.2 86.9333333333 440.2 86.9333333333 429 100 c 0,160,161
 416 114 416 114 416 134 c 256,162,163
 416 154 416 154 429 168 c 0,164,165
 431 171 431 171 434 173 c 1,166,-1
 375 173 l 2,167,168
 358 174 358 174 345 188 c 256,169,170
 333 202 333 202 333 221 c 256,171,172
 333 241 333 241 345 255 c 256,173,174
 357 268 357 268 375 268 c 2,175,-1
 434 268 l 1,176,177
 432 270 432 270 429 274 c 0,178,179
 416 288 416 288 416 308 c 256,180,181
 416 328 416 328 429 342 c 0,182,183
 441 356 441 356 458 356 c 2,184,-1
 767 356 l 1,185,186
 765 358 765 358 762 361 c 0,187,188
 750 374 750 374 750 394 c 256,189,190
 750 414 750 414 762 428 c 0,191,192
 764 431 764 431 767 434 c 1,193,-1
 708 434 l 2,194,195
 691 434 691 434 679 448 c 128,-1,196
 667 462 667 462 667 482 c 256,197,198
 667 502 667 502 679 515 c 0,199,200
 681 518 681 518 684 520 c 1,201,-1
 232 520 l 1,202,203
 235 518 235 518 238 515 c 0,204,205
 250 502 250 502 250 482 c 256,206,207
 250 462 250 462 238 448 c 0,208,209
 225 434 225 434 208 434 c 2,210,-1
 149 434 l 1,211,212
 150 432 150 432 154 428 c 0,213,214
 166 414 166 414 166 394 c 256,215,216
 166 374 166 374 154 361 c 0,217,218
 148 355 148 355 142 352 c 1,219,-1
 142 352 l 1,220,221
 148 348 148 348 154 342 c 0,222,223
 166 328 166 328 166 308 c 256,224,225
 166 288 166 288 154 274 c 0,226,227
 148 268 148 268 142 265 c 1,228,-1
 142 265 l 1,229,230
 148 262 148 262 154 255 c 0,231,232
 166 241 166 241 166 221 c 256,233,234
 166 202 166 202 154 188 c 0,235,236
 148 182 148 182 142 178 c 1,237,-1
 142 178 l 1,238,239
 148 175 148 175 154 168 c 0,240,241
 166 154 166 154 166 134 c 256,242,243
 166 114 166 114 154 100 c 0,244,245
 152 97 152 97 149 95 c 1,246,-1
 208 95 l 2,247,248
 225 95 225 95 238 81 c 0,249,250
 250 67 250 67 250 47 c 256,251,252
 250 27 250 27 238 14 c 0,253,254
 236 11 236 11 232 8 c 1,255,-1
 708 8 l 2,256,257
 725 8 725 8 737 -5 c 0,258,259
 750 -19 750 -19 750 -39 c 256,260,261
 750 -59 750 -59 737 -73 c 0,262,263
 735 -76 735 -76 733 -78 c 1,264,-1
 1125 -78 l 2,265,266
 1142 -78 1142 -78 1154 -92 c 256,267,268
 1166 -106 1166 -106 1166 -125 c 256,269,270
 1166 -145 1166 -145 1154 -160 c 0,271,272
 1142.8 -173.066666667 1142.8 -173.066666667 1127.24444444 -173.066666667 c 0,273,274
 1126.13333333 -173.066666667 1126.13333333 -173.066666667 1125 -173 c 2,275,-1
 -41 -173 l 2,18,19
EndSplineSet
Validated: 524293
EndChar

StartChar: A
Encoding: 65 65 33
Width: 1280
VWidth: 750
Flags: W
LayerCount: 2
Fore
SplineSet
-41 -173 m 2,0,1
 -58 -173 -58 -173 -71 -160 c 0,2,3
 -83 -146 -83 -146 -83 -125 c 256,4,5
 -83 -105 -83 -105 -71 -92 c 0,6,7
 -58 -78 -58 -78 -41 -78 c 2,8,-1
 1292 -78 l 2,9,10
 1309 -78 1309 -78 1321 -92 c 256,11,12
 1333 -106 1333 -106 1333 -125 c 256,13,14
 1333 -145 1333 -145 1321 -160 c 0,15,16
 1310.73333333 -173.066666667 1310.73333333 -173.066666667 1294.36888889 -173.066666667 c 0,17,18
 1293.2 -173.066666667 1293.2 -173.066666667 1292 -173 c 2,19,-1
 -41 -173 l 2,0,1
767 268 m 1,20,21
 765 270 765 270 762 274 c 0,22,23
 750 288 750 288 750 308 c 256,24,25
 750 328 750 328 762 342 c 0,26,27
 764 345 764 345 767 347 c 1,28,-1
 708 347 l 2,29,30
 691 347 691 347 679 361 c 0,31,32
 667 374 667 374 667 394 c 256,33,34
 667 414 667 414 679 428 c 0,35,36
 681 431 681 431 684 434 c 1,37,-1
 482 434 l 1,38,39
 486 432 486 432 488 428 c 0,40,41
 500 414 500 414 500 394 c 256,42,43
 500 374 500 374 488 361 c 0,44,45
 475 347 475 347 458 347 c 2,46,-1
 399 347 l 1,47,48
 402 345 402 345 404 342 c 0,49,50
 416 328 416 328 416 308 c 256,51,52
 416 288 416 288 404 274 c 0,53,54
 402 270 402 270 399 268 c 1,55,-1
 767 268 l 1,20,21
41 0 m 2,56,57
 24 0 24 0 12 14 c 256,58,59
 0 28 0 28 0 47 c 256,60,61
 0 67 0 67 12 81 c 256,62,63
 24 95 24 95 41 95 c 2,64,-1
 184 95 l 1,65,66
 180 96 180 96 178 100 c 0,67,68
 166 114 166 114 166 134 c 256,69,70
 166 154 166 154 178 168 c 0,71,72
 182 174 182 174 190 178 c 1,73,-1
 190 178 l 1,74,75
 184 182 184 182 178 188 c 0,76,77
 166 202 166 202 166 221 c 256,78,79
 166 241 166 241 178 255 c 256,80,81
 190 268 190 268 208 268 c 2,82,-1
 267 268 l 1,83,84
 264 270 264 270 262 274 c 0,85,86
 250 288 250 288 250 308 c 256,87,88
 250 328 250 328 262 342 c 0,89,90
 275 356 275 356 292 356 c 2,91,-1
 351 356 l 1,92,93
 348 358 348 358 345 361 c 0,94,95
 333 374 333 374 333 394 c 256,96,97
 333 414 333 414 345 428 c 256,98,99
 357 442 357 442 375 442 c 2,100,-1
 434 442 l 1,101,102
 432 444 432 444 429 448 c 0,103,104
 416 462 416 462 416 482 c 256,105,106
 416 502 416 502 429 515 c 0,107,108
 441 530 441 530 458 530 c 2,109,-1
 518 530 l 1,110,111
 515 532 515 532 512 535 c 0,112,113
 500 548 500 548 500 568 c 256,114,115
 500 588 500 588 512 602 c 0,116,117
 526 616 526 616 542 616 c 2,118,-1
 625 616 l 2,119,120
 642 616 642 616 655 602 c 0,121,122
 667 588 667 588 667 568 c 256,123,124
 667 548 667 548 655 535 c 0,125,126
 653 532 653 532 649 530 c 1,127,-1
 708 530 l 2,128,129
 725 530 725 530 737 515 c 0,130,131
 750 502 750 502 750 482 c 256,132,133
 750 462 750 462 737 448 c 0,134,135
 735 444 735 444 733 442 c 1,136,-1
 791 442 l 2,137,138
 808 442 808 442 821 428 c 0,139,140
 833 414 833 414 833 394 c 256,141,142
 833 374 833 374 821 361 c 0,143,144
 819 358 819 358 815 356 c 1,145,-1
 875 356 l 2,146,147
 892 356 892 356 904 342 c 128,-1,148
 916 328 916 328 916 308 c 256,149,150
 916 288 916 288 904 274 c 0,151,152
 902 270 902 270 899 268 c 1,153,-1
 958 268 l 2,154,155
 975 268 975 268 988 255 c 0,156,157
 1000 241 1000 241 1000 221 c 256,158,159
 1000 202 1000 202 988 188 c 0,160,161
 983 182 983 182 976 178 c 1,162,-1
 976 178 l 1,163,164
 982 175 982 175 988 168 c 0,165,166
 1000 154 1000 154 1000 134 c 256,167,168
 1000 114 1000 114 988 100 c 0,169,170
 986 97 986 97 982 95 c 1,171,-1
 1125 95 l 2,172,173
 1142 95 1142 95 1154 81 c 256,174,175
 1166 67 1166 67 1166 47 c 256,176,177
 1166 27 1166 27 1154 14 c 256,178,179
 1142 0 1142 0 1125 0 c 2,180,-1
 708 0 l 2,181,182
 691 0 691 0 679 14 c 128,-1,183
 667 28 667 28 667 47 c 256,184,185
 667 67 667 67 679 81 c 0,186,187
 692 95 692 95 708 95 c 2,188,-1
 850 95 l 1,189,190
 847 96 847 96 845 100 c 0,191,192
 833 114 833 114 833 134 c 256,193,194
 833 154 833 154 845 168 c 0,195,196
 846 171 846 171 850 173 c 1,197,-1
 316 173 l 1,198,199
 318 171 318 171 321 168 c 0,200,201
 333.071428571 155 333.071428571 155 333.071428571 136.826530612 c 0,202,203
 333.071428571 114.083333333 333.071428571 114.083333333 321 100 c 0,204,205
 319 97 319 97 316 95 c 1,206,-1
 458 95 l 2,207,208
 476 95 476 95 488 81 c 128,-1,209
 500 67 500 67 500 47 c 256,210,211
 500 27 500 27 488 14 c 0,212,213
 475 0 475 0 458 0 c 2,214,-1
 41 0 l 2,56,57
EndSplineSet
Validated: 524293
EndChar

StartChar: B
Encoding: 66 66 34
Width: 1200
VWidth: 750
Flags: W
LayerCount: 2
Fore
SplineSet
-41 -173 m 2,0,1
 -58 -173 -58 -173 -71 -160 c 0,2,3
 -83 -146 -83 -146 -83 -125 c 256,4,5
 -83 -105 -83 -105 -71 -92 c 0,6,7
 -58 -78 -58 -78 -41 -78 c 2,8,-1
 1208 -78 l 2,9,10
 1226 -78 1226 -78 1238 -92 c 128,-1,11
 1250 -106 1250 -106 1250 -125 c 256,12,13
 1250 -145 1250 -145 1238 -160 c 0,14,15
 1225.86666667 -173.066666667 1225.86666667 -173.066666667 1210.24888889 -173.066666667 c 0,16,17
 1209.13333333 -173.066666667 1209.13333333 -173.066666667 1208 -173 c 2,18,-1
 -41 -173 l 2,0,1
934 95 m 1,19,20
 930 96 930 96 928 100 c 0,21,22
 916 114 916 114 916 134 c 256,23,24
 916 154 916 154 928 168 c 0,25,26
 932 174 932 174 940 178 c 1,27,-1
 940 178 l 1,28,29
 934 182 934 182 928 188 c 0,30,31
 916 202 916 202 916 221 c 256,32,33
 916 241 916 241 928 255 c 0,34,35
 930 258 930 258 934 260 c 1,36,-1
 316 260 l 1,37,38
 318 258 318 258 321 255 c 0,39,40
 333.071428571 242 333.071428571 242 333.071428571 223.826530612 c 0,41,42
 333.071428571 202.083333333 333.071428571 202.083333333 321 188 c 0,43,44
 316 182 316 182 309 178 c 1,45,-1
 309 178 l 1,46,47
 316 175 316 175 321 168 c 0,48,49
 333.071428571 155 333.071428571 155 333.071428571 136.826530612 c 0,50,51
 333.071428571 114.083333333 333.071428571 114.083333333 321 100 c 0,52,53
 319 97 319 97 316 95 c 1,54,-1
 934 95 l 1,19,20
934 356 m 1,55,56
 930 358 930 358 928 361 c 0,57,58
 916 374 916 374 916 394 c 256,59,60
 916 414 916 414 928 428 c 0,61,62
 932 434 932 434 940 438 c 1,63,-1
 940 438 l 1,64,65
 934 441 934 441 928 448 c 0,66,67
 916 462 916 462 916 482 c 256,68,69
 916 502 916 502 928 515 c 0,70,71
 930 518 930 518 934 520 c 1,72,-1
 316 520 l 1,73,74
 318 518 318 518 321 515 c 0,75,76
 333.071428571 502.928571429 333.071428571 502.928571429 333.071428571 484.821428571 c 0,77,78
 333.071428571 462.083333333 333.071428571 462.083333333 321 448 c 0,79,80
 316 442 316 442 309 438 c 1,81,-1
 309 438 l 1,82,83
 316 434 316 434 321 428 c 0,84,85
 333.071428571 415 333.071428571 415 333.071428571 396.826530612 c 0,86,87
 333.071428571 374.077380952 333.071428571 374.077380952 321 361 c 0,88,89
 319 358 319 358 316 356 c 1,90,-1
 934 356 l 1,55,56
41 0 m 2,91,92
 24 0 24 0 12 14 c 256,93,94
 0 28 0 28 0 47 c 256,95,96
 0 67 0 67 12 81 c 256,97,98
 24 95 24 95 41 95 c 2,99,-1
 184 95 l 1,100,101
 180 96 180 96 178 100 c 0,102,103
 166 114 166 114 166 134 c 256,104,105
 166 154 166 154 178 168 c 0,106,107
 182 174 182 174 190 178 c 1,108,-1
 190 178 l 1,109,110
 184 182 184 182 178 188 c 0,111,112
 166 202 166 202 166 221 c 256,113,114
 166 241 166 241 178 255 c 0,115,116
 182 261 182 261 190 265 c 1,117,-1
 190 265 l 1,118,119
 184 268 184 268 178 274 c 0,120,121
 166 288 166 288 166 308 c 256,122,123
 166 328 166 328 178 342 c 0,124,125
 182 348 182 348 190 352 c 1,126,-1
 190 352 l 1,127,128
 184 355 184 355 178 361 c 0,129,130
 166 374 166 374 166 394 c 256,131,132
 166 414 166 414 178 428 c 0,133,134
 182 434 182 434 190 438 c 1,135,-1
 190 438 l 1,136,137
 184 441 184 441 178 448 c 0,138,139
 166 462 166 462 166 482 c 256,140,141
 166 502 166 502 178 515 c 0,142,143
 180 518 180 518 184 520 c 1,144,-1
 41 520 l 2,145,146
 24 520 24 520 12 535 c 256,147,148
 0 548 0 548 0 568 c 256,149,150
 0 588 0 588 12 602 c 256,151,152
 24 616 24 616 41 616 c 2,153,-1
 958 616 l 2,154,155
 975 616 975 616 988 602 c 0,156,157
 1000 588 1000 588 1000 568 c 256,158,159
 1000 548 1000 548 988 535 c 0,160,161
 986 532 986 532 982 530 c 1,162,-1
 1042 530 l 2,163,164
 1059 530 1059 530 1071 515 c 0,165,166
 1083.07142857 502.928571429 1083.07142857 502.928571429 1083.07142857 484.821428571 c 0,167,168
 1083.07142857 462.083333333 1083.07142857 462.083333333 1071 448 c 0,169,170
 1066 442 1066 442 1059 438 c 1,171,-1
 1059 438 l 1,172,173
 1066 434 1066 434 1071 428 c 0,174,175
 1083.07142857 415 1083.07142857 415 1083.07142857 396.826530612 c 0,176,177
 1083.07142857 374.077380952 1083.07142857 374.077380952 1071 361 c 0,178,179
 1059 347 1059 347 1042 347 c 2,180,-1
 982 347 l 1,181,182
 985 345 985 345 988 342 c 0,183,184
 1000 328 1000 328 1000 308 c 256,185,186
 1000 288 1000 288 988 274 c 0,187,188
 986 270 986 270 982 268 c 1,189,-1
 1042 268 l 2,190,191
 1059 268 1059 268 1071 255 c 128,-1,192
 1083.07142857 242 1083.07142857 242 1083.07142857 223.826530612 c 0,193,194
 1083.07142857 202.083333333 1083.07142857 202.083333333 1071 188 c 0,195,196
 1066 182 1066 182 1059 178 c 1,197,-1
 1059 178 l 1,198,199
 1066 175 1066 175 1071 168 c 0,200,201
 1083.07142857 155 1083.07142857 155 1083.07142857 136.826530612 c 0,202,203
 1083.07142857 114.083333333 1083.07142857 114.083333333 1071 100 c 0,204,205
 1059.8 86.9333333333 1059.8 86.9333333333 1044.24444444 86.9333333333 c 0,206,207
 1043.13333333 86.9333333333 1043.13333333 86.9333333333 1042 87 c 2,208,-1
 982 87 l 1,209,210
 985 85 985 85 988 81 c 0,211,212
 1000 67 1000 67 1000 47 c 256,213,214
 1000 27 1000 27 988 14 c 0,215,216
 975 0 975 0 958 0 c 2,217,-1
 41 0 l 2,91,92
EndSplineSet
Validated: 524293
EndChar

StartChar: C
Encoding: 67 67 35
Width: 1120
VWidth: 750
Flags: W
LayerCount: 2
Fore
SplineSet
-41 -173 m 2,0,1
 -58 -173 -58 -173 -71 -160 c 0,2,3
 -83 -146 -83 -146 -83 -125 c 256,4,5
 -83 -105 -83 -105 -71 -92 c 0,6,7
 -58 -78 -58 -78 -41 -78 c 2,8,-1
 1125 -78 l 2,9,10
 1142 -78 1142 -78 1154 -92 c 256,11,12
 1166 -106 1166 -106 1166 -125 c 256,13,14
 1166 -145 1166 -145 1154 -160 c 0,15,16
 1142.8 -173.066666667 1142.8 -173.066666667 1127.24444444 -173.066666667 c 0,17,18
 1126.13333333 -173.066666667 1126.13333333 -173.066666667 1125 -173 c 2,19,-1
 -41 -173 l 2,0,1
208 0 m 2,20,21
 190 0 190 0 178 14 c 256,22,23
 166 28 166 28 166 47 c 256,24,25
 166 67 166 67 178 81 c 0,26,27
 180 84 180 84 184 87 c 1,28,-1
 125 87 l 2,29,30
 123.866666667 86.9333333333 123.866666667 86.9333333333 122.751111111 86.9333333333 c 0,31,32
 107.133333333 86.9333333333 107.133333333 86.9333333333 95 100 c 0,33,34
 83 114 83 114 83 134 c 256,35,36
 83 154 83 154 95 168 c 0,37,38
 96 171 96 171 100 173 c 1,39,-1
 41 173 l 2,40,41
 24 174 24 174 12 188 c 256,42,43
 0 202 0 202 0 221 c 256,44,45
 0 241 0 241 12 255 c 0,46,47
 17 261 17 261 24 265 c 1,48,-1
 24 265 l 1,49,50
 18 268 18 268 12 274 c 0,51,52
 0 288 0 288 0 308 c 256,53,54
 0 328 0 328 12 342 c 0,55,56
 17 348 17 348 24 352 c 1,57,-1
 24 352 l 1,58,59
 18 355 18 355 12 361 c 0,60,61
 0 374 0 374 0 394 c 256,62,63
 0 414 0 414 12 428 c 256,64,65
 24 442 24 442 41 442 c 2,66,-1
 100 442 l 1,67,68
 97 444 97 444 95 448 c 0,69,70
 83 462 83 462 83 482 c 256,71,72
 83 502 83 502 95 515 c 0,73,74
 108 530 108 530 125 530 c 2,75,-1
 184 530 l 1,76,77
 180 532 180 532 178 535 c 0,78,79
 166 548 166 548 166 568 c 256,80,81
 166 588 166 588 178 602 c 256,82,83
 190 616 190 616 208 616 c 2,84,-1
 791 616 l 2,85,86
 808 616 808 616 821 602 c 0,87,88
 833 588 833 588 833 568 c 256,89,90
 833 548 833 548 821 535 c 0,91,92
 819 532 819 532 815 530 c 1,93,-1
 875 530 l 2,94,95
 892 530 892 530 904 515 c 0,96,97
 916 502 916 502 916 482 c 256,98,99
 916 462 916 462 904 448 c 128,-1,100
 892 434 892 434 875 434 c 2,101,-1
 791 434 l 2,102,103
 774 434 774 434 762 448 c 256,104,105
 750 462 750 462 750 482 c 256,106,107
 750 502 750 502 762 515 c 0,108,109
 764 518 764 518 767 520 c 1,110,-1
 232 520 l 1,111,112
 235 518 235 518 238 515 c 0,113,114
 250 502 250 502 250 482 c 256,115,116
 250 462 250 462 238 448 c 0,117,118
 225 434 225 434 208 434 c 2,119,-1
 149 434 l 1,120,121
 150 432 150 432 154 428 c 0,122,123
 166 414 166 414 166 394 c 256,124,125
 166 374 166 374 154 361 c 0,126,127
 148 355 148 355 142 352 c 1,128,-1
 142 352 l 1,129,130
 148 348 148 348 154 342 c 0,131,132
 166 328 166 328 166 308 c 256,133,134
 166 288 166 288 154 274 c 0,135,136
 148 268 148 268 142 265 c 1,137,-1
 142 265 l 1,138,139
 148 262 148 262 154 255 c 0,140,141
 166 241 166 241 166 221 c 256,142,143
 166 202 166 202 154 188 c 0,144,145
 152 185 152 185 149 182 c 1,146,-1
 208 182 l 2,147,148
 225 182 225 182 238 168 c 0,149,150
 250 154 250 154 250 134 c 256,151,152
 250 114 250 114 238 100 c 0,153,154
 236 97 236 97 232 95 c 1,155,-1
 767 95 l 1,156,157
 765 96 765 96 762 100 c 0,158,159
 750 114 750 114 750 134 c 256,160,161
 750 154 750 154 762 168 c 256,162,163
 774 182 774 182 791 182 c 2,164,-1
 875 182 l 2,165,166
 892 182 892 182 904 168 c 128,-1,167
 916 154 916 154 916 134 c 256,168,169
 916 114 916 114 904 100 c 0,170,171
 892.8 86.9333333333 892.8 86.9333333333 877.244444444 86.9333333333 c 0,172,173
 876.133333333 86.9333333333 876.133333333 86.9333333333 875 87 c 2,174,-1
 815 87 l 1,175,176
 818 85 818 85 821 81 c 0,177,178
 833 67 833 67 833 47 c 256,179,180
 833 27 833 27 821 14 c 0,181,182
 808 0 808 0 791 0 c 2,183,-1
 208 0 l 2,20,21
EndSplineSet
Validated: 524293
EndChar

StartChar: D
Encoding: 68 68 36
Width: 1280
VWidth: 750
Flags: W
LayerCount: 2
Fore
SplineSet
-41 -173 m 2,0,1
 -58 -173 -58 -173 -71 -160 c 0,2,3
 -83 -146 -83 -146 -83 -125 c 256,4,5
 -83 -105 -83 -105 -71 -92 c 0,6,7
 -58 -78 -58 -78 -41 -78 c 2,8,-1
 1292 -78 l 2,9,10
 1309 -78 1309 -78 1321 -92 c 256,11,12
 1333 -106 1333 -106 1333 -125 c 256,13,14
 1333 -145 1333 -145 1321 -160 c 0,15,16
 1310.73333333 -173.066666667 1310.73333333 -173.066666667 1294.36888889 -173.066666667 c 0,17,18
 1293.2 -173.066666667 1293.2 -173.066666667 1292 -173 c 2,19,-1
 -41 -173 l 2,0,1
850 95 m 1,20,21
 847 96 847 96 845 100 c 0,22,23
 833 114 833 114 833 134 c 256,24,25
 833 154 833 154 845 168 c 0,26,27
 858 182 858 182 875 182 c 2,28,-1
 934 182 l 1,29,30
 930 184 930 184 928 188 c 0,31,32
 916 202 916 202 916 221 c 256,33,34
 916 241 916 241 928 255 c 0,35,36
 932 261 932 261 940 265 c 1,37,-1
 940 265 l 1,38,39
 934 268 934 268 928 274 c 0,40,41
 916 288 916 288 916 308 c 256,42,43
 916 328 916 328 928 342 c 0,44,45
 932 348 932 348 940 352 c 1,46,-1
 940 352 l 1,47,48
 934 355 934 355 928 361 c 0,49,50
 916 374 916 374 916 394 c 256,51,52
 916 414 916 414 928 428 c 0,53,54
 930 431 930 431 934 434 c 1,55,-1
 875 434 l 2,56,57
 858 434 858 434 845 448 c 0,58,59
 833 462 833 462 833 482 c 256,60,61
 833 502 833 502 845 515 c 0,62,63
 846 518 846 518 850 520 c 1,64,-1
 316 520 l 1,65,66
 318 518 318 518 321 515 c 0,67,68
 333.071428571 502.928571429 333.071428571 502.928571429 333.071428571 484.821428571 c 0,69,70
 333.071428571 462.083333333 333.071428571 462.083333333 321 448 c 0,71,72
 316 442 316 442 309 438 c 1,73,-1
 309 438 l 1,74,75
 316 434 316 434 321 428 c 0,76,77
 333.071428571 415 333.071428571 415 333.071428571 396.826530612 c 0,78,79
 333.071428571 374.077380952 333.071428571 374.077380952 321 361 c 0,80,81
 316 355 316 355 309 352 c 1,82,-1
 309 352 l 1,83,84
 316 348 316 348 321 342 c 0,85,86
 333.071428571 329 333.071428571 329 333.071428571 310.826530612 c 0,87,88
 333.071428571 288.083333333 333.071428571 288.083333333 321 274 c 0,89,90
 316 268 316 268 309 265 c 1,91,-1
 309 265 l 1,92,93
 316 262 316 262 321 255 c 0,94,95
 333.071428571 242 333.071428571 242 333.071428571 223.826530612 c 0,96,97
 333.071428571 202.083333333 333.071428571 202.083333333 321 188 c 0,98,99
 316 182 316 182 309 178 c 1,100,-1
 309 178 l 1,101,102
 316 175 316 175 321 168 c 0,103,104
 333.071428571 155 333.071428571 155 333.071428571 136.826530612 c 0,105,106
 333.071428571 114.083333333 333.071428571 114.083333333 321 100 c 0,107,108
 319 97 319 97 316 95 c 1,109,-1
 850 95 l 1,20,21
41 0 m 2,110,111
 24 0 24 0 12 14 c 256,112,113
 0 28 0 28 0 47 c 256,114,115
 0 67 0 67 12 81 c 256,116,117
 24 95 24 95 41 95 c 2,118,-1
 184 95 l 1,119,120
 180 96 180 96 178 100 c 0,121,122
 166 114 166 114 166 134 c 256,123,124
 166 154 166 154 178 168 c 0,125,126
 182 174 182 174 190 178 c 1,127,-1
 190 178 l 1,128,129
 184 182 184 182 178 188 c 0,130,131
 166 202 166 202 166 221 c 256,132,133
 166 241 166 241 178 255 c 0,134,135
 182 261 182 261 190 265 c 1,136,-1
 190 265 l 1,137,138
 184 268 184 268 178 274 c 0,139,140
 166 288 166 288 166 308 c 256,141,142
 166 328 166 328 178 342 c 0,143,144
 182 348 182 348 190 352 c 1,145,-1
 190 352 l 1,146,147
 184 355 184 355 178 361 c 0,148,149
 166 374 166 374 166 394 c 256,150,151
 166 414 166 414 178 428 c 0,152,153
 182 434 182 434 190 438 c 1,154,-1
 190 438 l 1,155,156
 184 441 184 441 178 448 c 0,157,158
 166 462 166 462 166 482 c 256,159,160
 166 502 166 502 178 515 c 0,161,162
 180 518 180 518 184 520 c 1,163,-1
 41 520 l 2,164,165
 24 520 24 520 12 535 c 256,166,167
 0 548 0 548 0 568 c 256,168,169
 0 588 0 588 12 602 c 256,170,171
 24 616 24 616 41 616 c 2,172,-1
 875 616 l 2,173,174
 892 616 892 616 904 602 c 128,-1,175
 916 588 916 588 916 568 c 256,176,177
 916 548 916 548 904 535 c 0,178,179
 902 532 902 532 899 530 c 1,180,-1
 958 530 l 2,181,182
 975 530 975 530 988 515 c 0,183,184
 1000 502 1000 502 1000 482 c 256,185,186
 1000 462 1000 462 988 448 c 0,187,188
 986 444 986 444 982 442 c 1,189,-1
 1042 442 l 2,190,191
 1059 442 1059 442 1071 428 c 0,192,193
 1083.07142857 415 1083.07142857 415 1083.07142857 396.826530612 c 0,194,195
 1083.07142857 374.077380952 1083.07142857 374.077380952 1071 361 c 0,196,197
 1066 355 1066 355 1059 352 c 1,198,-1
 1059 352 l 1,199,200
 1066 348 1066 348 1071 342 c 0,201,202
 1083.07142857 329 1083.07142857 329 1083.07142857 310.826530612 c 0,203,204
 1083.07142857 288.083333333 1083.07142857 288.083333333 1071 274 c 0,205,206
 1066 268 1066 268 1059 265 c 1,207,-1
 1059 265 l 1,208,209
 1066 262 1066 262 1071 255 c 0,210,211
 1083.07142857 242 1083.07142857 242 1083.07142857 223.826530612 c 0,212,213
 1083.07142857 202.083333333 1083.07142857 202.083333333 1071 188 c 128,-1,214
 1059 174 1059 174 1042 173 c 2,215,-1
 982 173 l 1,216,217
 985 171 985 171 988 168 c 0,218,219
 1000 154 1000 154 1000 134 c 256,220,221
 1000 114 1000 114 988 100 c 0,222,223
 975.866666667 86.9333333333 975.866666667 86.9333333333 960.248888889 86.9333333333 c 0,224,225
 959.133333333 86.9333333333 959.133333333 86.9333333333 958 87 c 2,226,-1
 899 87 l 1,227,228
 900 85 900 85 904 81 c 0,229,230
 916 67 916 67 916 47 c 256,231,232
 916 27 916 27 904 14 c 0,233,234
 892 0 892 0 875 0 c 2,235,-1
 41 0 l 2,110,111
EndSplineSet
Validated: 524293
EndChar

StartChar: E
Encoding: 69 69 37
Width: 1120
VWidth: 750
Flags: W
LayerCount: 2
Fore
SplineSet
-41 -173 m 2,0,1
 -58 -173 -58 -173 -71 -160 c 0,2,3
 -83 -146 -83 -146 -83 -125 c 256,4,5
 -83 -105 -83 -105 -71 -92 c 0,6,7
 -58 -78 -58 -78 -41 -78 c 2,8,-1
 1125 -78 l 2,9,10
 1142 -78 1142 -78 1154 -92 c 256,11,12
 1166 -106 1166 -106 1166 -125 c 256,13,14
 1166 -145 1166 -145 1154 -160 c 0,15,16
 1142.8 -173.066666667 1142.8 -173.066666667 1127.24444444 -173.066666667 c 0,17,18
 1126.13333333 -173.066666667 1126.13333333 -173.066666667 1125 -173 c 2,19,-1
 -41 -173 l 2,0,1
41 0 m 2,20,21
 24 0 24 0 12 14 c 256,22,23
 0 28 0 28 0 47 c 256,24,25
 0 67 0 67 12 81 c 256,26,27
 24 95 24 95 41 95 c 2,28,-1
 184 95 l 1,29,30
 180 96 180 96 178 100 c 0,31,32
 166 114 166 114 166 134 c 256,33,34
 166 154 166 154 178 168 c 0,35,36
 182 174 182 174 190 178 c 1,37,-1
 190 178 l 1,38,39
 184 182 184 182 178 188 c 0,40,41
 166 202 166 202 166 221 c 256,42,43
 166 241 166 241 178 255 c 0,44,45
 182 261 182 261 190 265 c 1,46,-1
 190 265 l 1,47,48
 184 268 184 268 178 274 c 0,49,50
 166 288 166 288 166 308 c 256,51,52
 166 328 166 328 178 342 c 0,53,54
 182 348 182 348 190 352 c 1,55,-1
 190 352 l 1,56,57
 184 355 184 355 178 361 c 0,58,59
 166 374 166 374 166 394 c 256,60,61
 166 414 166 414 178 428 c 0,62,63
 182 434 182 434 190 438 c 1,64,-1
 190 438 l 1,65,66
 184 441 184 441 178 448 c 0,67,68
 166 462 166 462 166 482 c 256,69,70
 166 502 166 502 178 515 c 0,71,72
 180 518 180 518 184 520 c 1,73,-1
 41 520 l 2,74,75
 24 520 24 520 12 535 c 256,76,77
 0 548 0 548 0 568 c 256,78,79
 0 588 0 588 12 602 c 256,80,81
 24 616 24 616 41 616 c 2,82,-1
 958 616 l 2,83,84
 975 616 975 616 988 602 c 0,85,86
 1000 588 1000 588 1000 568 c 256,87,88
 1000 548 1000 548 988 535 c 0,89,90
 983 529 983 529 976 525 c 1,91,-1
 976 525 l 1,92,93
 982 521 982 521 988 515 c 0,94,95
 1000 502 1000 502 1000 482 c 256,96,97
 1000 462 1000 462 988 448 c 0,98,99
 975 434 975 434 958 434 c 2,100,-1
 875 434 l 2,101,102
 858 434 858 434 845 448 c 0,103,104
 833 462 833 462 833 482 c 256,105,106
 833 502 833 502 845 515 c 0,107,108
 846 518 846 518 850 520 c 1,109,-1
 316 520 l 1,110,111
 318 518 318 518 321 515 c 0,112,113
 333.071428571 502.928571429 333.071428571 502.928571429 333.071428571 484.821428571 c 0,114,115
 333.071428571 462.083333333 333.071428571 462.083333333 321 448 c 0,116,117
 316 442 316 442 309 438 c 1,118,-1
 309 438 l 1,119,120
 316 434 316 434 321 428 c 0,121,122
 333.071428571 415 333.071428571 415 333.071428571 396.826530612 c 0,123,124
 333.071428571 374.077380952 333.071428571 374.077380952 321 361 c 0,125,126
 319 358 319 358 316 356 c 1,127,-1
 791 356 l 2,128,129
 808 356 808 356 821 342 c 0,130,131
 833 328 833 328 833 308 c 256,132,133
 833 288 833 288 821 274 c 0,134,135
 808 260 808 260 791 260 c 2,136,-1
 316 260 l 1,137,138
 318 258 318 258 321 255 c 0,139,140
 333.071428571 242 333.071428571 242 333.071428571 223.826530612 c 0,141,142
 333.071428571 202.083333333 333.071428571 202.083333333 321 188 c 0,143,144
 316 182 316 182 309 178 c 1,145,-1
 309 178 l 1,146,147
 316 175 316 175 321 168 c 0,148,149
 333.071428571 155 333.071428571 155 333.071428571 136.826530612 c 0,150,151
 333.071428571 114.083333333 333.071428571 114.083333333 321 100 c 0,152,153
 319 97 319 97 316 95 c 1,154,-1
 850 95 l 1,155,156
 847 96 847 96 845 100 c 0,157,158
 833 114 833 114 833 134 c 256,159,160
 833 154 833 154 845 168 c 0,161,162
 858 182 858 182 875 182 c 2,163,-1
 958 182 l 2,164,165
 975 182 975 182 988 168 c 0,166,167
 1000 154 1000 154 1000 134 c 256,168,169
 1000 114 1000 114 988 100 c 0,170,171
 983 94 983 94 976 91 c 1,172,-1
 976 91 l 1,173,174
 982 88 982 88 988 81 c 0,175,176
 1000 67 1000 67 1000 47 c 256,177,178
 1000 27 1000 27 988 14 c 0,179,180
 975 0 975 0 958 0 c 2,181,-1
 41 0 l 2,20,21
EndSplineSet
Validated: 524293
EndChar

StartChar: F
Encoding: 70 70 38
Width: 1120
VWidth: 750
Flags: W
LayerCount: 2
Fore
SplineSet
-41 -173 m 2,0,1
 -58 -173 -58 -173 -71 -160 c 0,2,3
 -83 -146 -83 -146 -83 -125 c 256,4,5
 -83 -105 -83 -105 -71 -92 c 0,6,7
 -58 -78 -58 -78 -41 -78 c 2,8,-1
 1125 -78 l 2,9,10
 1142 -78 1142 -78 1154 -92 c 256,11,12
 1166 -106 1166 -106 1166 -125 c 256,13,14
 1166 -145 1166 -145 1154 -160 c 0,15,16
 1142.8 -173.066666667 1142.8 -173.066666667 1127.24444444 -173.066666667 c 0,17,18
 1126.13333333 -173.066666667 1126.13333333 -173.066666667 1125 -173 c 2,19,-1
 -41 -173 l 2,0,1
41 0 m 2,20,21
 24 0 24 0 12 14 c 256,22,23
 0 28 0 28 0 47 c 256,24,25
 0 67 0 67 12 81 c 256,26,27
 24 95 24 95 41 95 c 2,28,-1
 184 95 l 1,29,30
 180 96 180 96 178 100 c 0,31,32
 166 114 166 114 166 134 c 256,33,34
 166 154 166 154 178 168 c 0,35,36
 182 174 182 174 190 178 c 1,37,-1
 190 178 l 1,38,39
 184 182 184 182 178 188 c 0,40,41
 166 202 166 202 166 221 c 256,42,43
 166 241 166 241 178 255 c 0,44,45
 182 261 182 261 190 265 c 1,46,-1
 190 265 l 1,47,48
 184 268 184 268 178 274 c 0,49,50
 166 288 166 288 166 308 c 256,51,52
 166 328 166 328 178 342 c 0,53,54
 182 348 182 348 190 352 c 1,55,-1
 190 352 l 1,56,57
 184 355 184 355 178 361 c 0,58,59
 166 374 166 374 166 394 c 256,60,61
 166 414 166 414 178 428 c 0,62,63
 182 434 182 434 190 438 c 1,64,-1
 190 438 l 1,65,66
 184 441 184 441 178 448 c 0,67,68
 166 462 166 462 166 482 c 256,69,70
 166 502 166 502 178 515 c 0,71,72
 180 518 180 518 184 520 c 1,73,-1
 41 520 l 2,74,75
 24 520 24 520 12 535 c 256,76,77
 0 548 0 548 0 568 c 256,78,79
 0 588 0 588 12 602 c 256,80,81
 24 616 24 616 41 616 c 2,82,-1
 958 616 l 2,83,84
 975 616 975 616 988 602 c 0,85,86
 1000 588 1000 588 1000 568 c 256,87,88
 1000 548 1000 548 988 535 c 0,89,90
 983 529 983 529 976 525 c 1,91,-1
 976 525 l 1,92,93
 982 521 982 521 988 515 c 0,94,95
 1000 502 1000 502 1000 482 c 256,96,97
 1000 462 1000 462 988 448 c 0,98,99
 975 434 975 434 958 434 c 2,100,-1
 875 434 l 2,101,102
 858 434 858 434 845 448 c 0,103,104
 833 462 833 462 833 482 c 256,105,106
 833 502 833 502 845 515 c 0,107,108
 846 518 846 518 850 520 c 1,109,-1
 316 520 l 1,110,111
 318 518 318 518 321 515 c 0,112,113
 333.071428571 502.928571429 333.071428571 502.928571429 333.071428571 484.821428571 c 0,114,115
 333.071428571 462.083333333 333.071428571 462.083333333 321 448 c 0,116,117
 316 442 316 442 309 438 c 1,118,-1
 309 438 l 1,119,120
 316 434 316 434 321 428 c 0,121,122
 333.071428571 415 333.071428571 415 333.071428571 396.826530612 c 0,123,124
 333.071428571 374.077380952 333.071428571 374.077380952 321 361 c 0,125,126
 319 358 319 358 316 356 c 1,127,-1
 791 356 l 2,128,129
 808 356 808 356 821 342 c 0,130,131
 833 328 833 328 833 308 c 256,132,133
 833 288 833 288 821 274 c 0,134,135
 808 260 808 260 791 260 c 2,136,-1
 316 260 l 1,137,138
 318 258 318 258 321 255 c 0,139,140
 333.071428571 242 333.071428571 242 333.071428571 223.826530612 c 0,141,142
 333.071428571 202.083333333 333.071428571 202.083333333 321 188 c 0,143,144
 316 182 316 182 309 178 c 1,145,-1
 309 178 l 1,146,147
 316 175 316 175 321 168 c 0,148,149
 333.071428571 155 333.071428571 155 333.071428571 136.826530612 c 0,150,151
 333.071428571 114.083333333 333.071428571 114.083333333 321 100 c 0,152,153
 319 97 319 97 316 95 c 1,154,-1
 458 95 l 2,155,156
 476 95 476 95 488 81 c 128,-1,157
 500 67 500 67 500 47 c 256,158,159
 500 27 500 27 488 14 c 0,160,161
 475 0 475 0 458 0 c 2,162,-1
 41 0 l 2,20,21
EndSplineSet
Validated: 524293
EndChar

StartChar: G
Encoding: 71 71 39
Width: 1280
VWidth: 750
Flags: W
LayerCount: 2
Fore
SplineSet
-41 -173 m 2,0,1
 -58 -173 -58 -173 -71 -160 c 0,2,3
 -83 -146 -83 -146 -83 -125 c 256,4,5
 -83 -105 -83 -105 -71 -92 c 0,6,7
 -58 -78 -58 -78 -41 -78 c 2,8,-1
 1292 -78 l 2,9,10
 1309 -78 1309 -78 1321 -92 c 256,11,12
 1333 -106 1333 -106 1333 -125 c 256,13,14
 1333 -145 1333 -145 1321 -160 c 0,15,16
 1310.73333333 -173.066666667 1310.73333333 -173.066666667 1294.36888889 -173.066666667 c 0,17,18
 1293.2 -173.066666667 1293.2 -173.066666667 1292 -173 c 2,19,-1
 -41 -173 l 2,0,1
208 0 m 2,20,21
 190 0 190 0 178 14 c 256,22,23
 166 28 166 28 166 47 c 256,24,25
 166 67 166 67 178 81 c 0,26,27
 180 84 180 84 184 87 c 1,28,-1
 125 87 l 2,29,30
 123.866666667 86.9333333333 123.866666667 86.9333333333 122.751111111 86.9333333333 c 0,31,32
 107.133333333 86.9333333333 107.133333333 86.9333333333 95 100 c 0,33,34
 83 114 83 114 83 134 c 256,35,36
 83 154 83 154 95 168 c 0,37,38
 96 171 96 171 100 173 c 1,39,-1
 41 173 l 2,40,41
 24 174 24 174 12 188 c 256,42,43
 0 202 0 202 0 221 c 256,44,45
 0 241 0 241 12 255 c 0,46,47
 17 261 17 261 24 265 c 1,48,-1
 24 265 l 1,49,50
 18 268 18 268 12 274 c 0,51,52
 0 288 0 288 0 308 c 256,53,54
 0 328 0 328 12 342 c 0,55,56
 17 348 17 348 24 352 c 1,57,-1
 24 352 l 1,58,59
 18 355 18 355 12 361 c 0,60,61
 0 374 0 374 0 394 c 256,62,63
 0 414 0 414 12 428 c 256,64,65
 24 442 24 442 41 442 c 2,66,-1
 100 442 l 1,67,68
 97 444 97 444 95 448 c 0,69,70
 83 462 83 462 83 482 c 256,71,72
 83 502 83 502 95 515 c 0,73,74
 108 530 108 530 125 530 c 2,75,-1
 184 530 l 1,76,77
 180 532 180 532 178 535 c 0,78,79
 166 548 166 548 166 568 c 256,80,81
 166 588 166 588 178 602 c 256,82,83
 190 616 190 616 208 616 c 2,84,-1
 875 616 l 2,85,86
 892 616 892 616 904 602 c 128,-1,87
 916 588 916 588 916 568 c 256,88,89
 916 548 916 548 904 535 c 0,90,91
 902 532 902 532 899 530 c 1,92,-1
 958 530 l 2,93,94
 975 530 975 530 988 515 c 0,95,96
 1000 502 1000 502 1000 482 c 256,97,98
 1000 462 1000 462 988 448 c 0,99,100
 975 434 975 434 958 434 c 2,101,-1
 875 434 l 2,102,103
 858 434 858 434 845 448 c 0,104,105
 833 462 833 462 833 482 c 256,106,107
 833 502 833 502 845 515 c 0,108,109
 846 518 846 518 850 520 c 1,110,-1
 232 520 l 1,111,112
 235 518 235 518 238 515 c 0,113,114
 250 502 250 502 250 482 c 256,115,116
 250 462 250 462 238 448 c 0,117,118
 225 434 225 434 208 434 c 2,119,-1
 149 434 l 1,120,121
 150 432 150 432 154 428 c 0,122,123
 166 414 166 414 166 394 c 256,124,125
 166 374 166 374 154 361 c 0,126,127
 148 355 148 355 142 352 c 1,128,-1
 142 352 l 1,129,130
 148 348 148 348 154 342 c 0,131,132
 166 328 166 328 166 308 c 256,133,134
 166 288 166 288 154 274 c 0,135,136
 148 268 148 268 142 265 c 1,137,-1
 142 265 l 1,138,139
 148 262 148 262 154 255 c 0,140,141
 166 241 166 241 166 221 c 256,142,143
 166 202 166 202 154 188 c 0,144,145
 152 185 152 185 149 182 c 1,146,-1
 208 182 l 2,147,148
 225 182 225 182 238 168 c 0,149,150
 250 154 250 154 250 134 c 256,151,152
 250 114 250 114 238 100 c 0,153,154
 236 97 236 97 232 95 c 1,155,-1
 850 95 l 1,156,157
 847 96 847 96 845 100 c 0,158,159
 833 114 833 114 833 134 c 256,160,161
 833 154 833 154 845 168 c 0,162,163
 850 174 850 174 857 178 c 1,164,-1
 857 178 l 1,165,166
 850 182 850 182 845 188 c 0,167,168
 833 202 833 202 833 221 c 256,169,170
 833 241 833 241 845 255 c 0,171,172
 846 258 846 258 850 260 c 1,173,-1
 708 260 l 2,174,175
 691 260 691 260 679 274 c 128,-1,176
 667 288 667 288 667 308 c 256,177,178
 667 328 667 328 679 342 c 0,179,180
 692 356 692 356 708 356 c 2,181,-1
 1042 356 l 2,182,183
 1059 356 1059 356 1071 342 c 0,184,185
 1083.07142857 329 1083.07142857 329 1083.07142857 310.826530612 c 0,186,187
 1083.07142857 288.083333333 1083.07142857 288.083333333 1071 274 c 128,-1,188
 1059 260 1059 260 1042 260 c 2,189,-1
 982 260 l 1,190,191
 985 258 985 258 988 255 c 0,192,193
 1000 241 1000 241 1000 221 c 256,194,195
 1000 202 1000 202 988 188 c 0,196,197
 983 182 983 182 976 178 c 1,198,-1
 976 178 l 1,199,200
 982 175 982 175 988 168 c 0,201,202
 1000 154 1000 154 1000 134 c 256,203,204
 1000 114 1000 114 988 100 c 0,205,206
 975.866666667 86.9333333333 975.866666667 86.9333333333 960.248888889 86.9333333333 c 0,207,208
 959.133333333 86.9333333333 959.133333333 86.9333333333 958 87 c 2,209,-1
 899 87 l 1,210,211
 900 85 900 85 904 81 c 0,212,213
 916 67 916 67 916 47 c 256,214,215
 916 27 916 27 904 14 c 0,216,217
 892 0 892 0 875 0 c 2,218,-1
 208 0 l 2,20,21
EndSplineSet
Validated: 524293
EndChar

StartChar: H
Encoding: 72 72 40
Width: 1280
VWidth: 750
Flags: W
LayerCount: 2
Fore
SplineSet
-41 -173 m 2,0,1
 -58 -173 -58 -173 -71 -160 c 0,2,3
 -83 -146 -83 -146 -83 -125 c 256,4,5
 -83 -105 -83 -105 -71 -92 c 0,6,7
 -58 -78 -58 -78 -41 -78 c 2,8,-1
 1292 -78 l 2,9,10
 1309 -78 1309 -78 1321 -92 c 256,11,12
 1333 -106 1333 -106 1333 -125 c 256,13,14
 1333 -145 1333 -145 1321 -160 c 0,15,16
 1310.73333333 -173.066666667 1310.73333333 -173.066666667 1294.36888889 -173.066666667 c 0,17,18
 1293.2 -173.066666667 1293.2 -173.066666667 1292 -173 c 2,19,-1
 -41 -173 l 2,0,1
41 0 m 2,20,21
 24 0 24 0 12 14 c 256,22,23
 0 28 0 28 0 47 c 256,24,25
 0 67 0 67 12 81 c 256,26,27
 24 95 24 95 41 95 c 2,28,-1
 184 95 l 1,29,30
 180 96 180 96 178 100 c 0,31,32
 166 114 166 114 166 134 c 256,33,34
 166 154 166 154 178 168 c 0,35,36
 182 174 182 174 190 178 c 1,37,-1
 190 178 l 1,38,39
 184 182 184 182 178 188 c 0,40,41
 166 202 166 202 166 221 c 256,42,43
 166 241 166 241 178 255 c 0,44,45
 182 261 182 261 190 265 c 1,46,-1
 190 265 l 1,47,48
 184 268 184 268 178 274 c 0,49,50
 166 288 166 288 166 308 c 256,51,52
 166 328 166 328 178 342 c 0,53,54
 182 348 182 348 190 352 c 1,55,-1
 190 352 l 1,56,57
 184 355 184 355 178 361 c 0,58,59
 166 374 166 374 166 394 c 256,60,61
 166 414 166 414 178 428 c 0,62,63
 182 434 182 434 190 438 c 1,64,-1
 190 438 l 1,65,66
 184 441 184 441 178 448 c 0,67,68
 166 462 166 462 166 482 c 256,69,70
 166 502 166 502 178 515 c 0,71,72
 180 518 180 518 184 520 c 1,73,-1
 41 520 l 2,74,75
 24 520 24 520 12 535 c 256,76,77
 0 548 0 548 0 568 c 256,78,79
 0 588 0 588 12 602 c 256,80,81
 24 616 24 616 41 616 c 2,82,-1
 458 616 l 2,83,84
 476 616 476 616 488 602 c 128,-1,85
 500 588 500 588 500 568 c 256,86,87
 500 548 500 548 488 535 c 0,88,89
 475 520 475 520 458 520 c 2,90,-1
 316 520 l 1,91,92
 318 518 318 518 321 515 c 0,93,94
 333.071428571 502.928571429 333.071428571 502.928571429 333.071428571 484.821428571 c 0,95,96
 333.071428571 462.083333333 333.071428571 462.083333333 321 448 c 0,97,98
 316 442 316 442 309 438 c 1,99,-1
 309 438 l 1,100,101
 316 434 316 434 321 428 c 0,102,103
 333.071428571 415 333.071428571 415 333.071428571 396.826530612 c 0,104,105
 333.071428571 374.077380952 333.071428571 374.077380952 321 361 c 0,106,107
 319 358 319 358 316 356 c 1,108,-1
 850 356 l 1,109,110
 847 358 847 358 845 361 c 0,111,112
 833 374 833 374 833 394 c 256,113,114
 833 414 833 414 845 428 c 0,115,116
 850 434 850 434 857 438 c 1,117,-1
 857 438 l 1,118,119
 850 441 850 441 845 448 c 0,120,121
 833 462 833 462 833 482 c 256,122,123
 833 502 833 502 845 515 c 0,124,125
 846 518 846 518 850 520 c 1,126,-1
 708 520 l 2,127,128
 691 520 691 520 679 535 c 0,129,130
 667 548 667 548 667 568 c 256,131,132
 667 588 667 588 679 602 c 0,133,134
 692 616 692 616 708 616 c 2,135,-1
 1125 616 l 2,136,137
 1142 616 1142 616 1154 602 c 256,138,139
 1166 588 1166 588 1166 568 c 256,140,141
 1166 548 1166 548 1154 535 c 256,142,143
 1142 520 1142 520 1125 520 c 2,144,-1
 982 520 l 1,145,146
 985 518 985 518 988 515 c 0,147,148
 1000 502 1000 502 1000 482 c 256,149,150
 1000 462 1000 462 988 448 c 0,151,152
 983 442 983 442 976 438 c 1,153,-1
 976 438 l 1,154,155
 982 434 982 434 988 428 c 0,156,157
 1000 414 1000 414 1000 394 c 256,158,159
 1000 374 1000 374 988 361 c 0,160,161
 983 355 983 355 976 352 c 1,162,-1
 976 352 l 1,163,164
 982 348 982 348 988 342 c 0,165,166
 1000 328 1000 328 1000 308 c 256,167,168
 1000 288 1000 288 988 274 c 0,169,170
 983 268 983 268 976 265 c 1,171,-1
 976 265 l 1,172,173
 982 262 982 262 988 255 c 0,174,175
 1000 241 1000 241 1000 221 c 256,176,177
 1000 202 1000 202 988 188 c 0,178,179
 983 182 983 182 976 178 c 1,180,-1
 976 178 l 1,181,182
 982 175 982 175 988 168 c 0,183,184
 1000 154 1000 154 1000 134 c 256,185,186
 1000 114 1000 114 988 100 c 0,187,188
 986 97 986 97 982 95 c 1,189,-1
 1125 95 l 2,190,191
 1142 95 1142 95 1154 81 c 256,192,193
 1166 67 1166 67 1166 47 c 256,194,195
 1166 27 1166 27 1154 14 c 256,196,197
 1142 0 1142 0 1125 0 c 2,198,-1
 708 0 l 2,199,200
 691 0 691 0 679 14 c 128,-1,201
 667 28 667 28 667 47 c 256,202,203
 667 67 667 67 679 81 c 0,204,205
 692 95 692 95 708 95 c 2,206,-1
 850 95 l 1,207,208
 847 96 847 96 845 100 c 0,209,210
 833 114 833 114 833 134 c 256,211,212
 833 154 833 154 845 168 c 0,213,214
 850 174 850 174 857 178 c 1,215,-1
 857 178 l 1,216,217
 850 182 850 182 845 188 c 0,218,219
 833 202 833 202 833 221 c 256,220,221
 833 241 833 241 845 255 c 0,222,223
 846 258 846 258 850 260 c 1,224,-1
 316 260 l 1,225,226
 318 258 318 258 321 255 c 0,227,228
 333.071428571 242 333.071428571 242 333.071428571 223.826530612 c 0,229,230
 333.071428571 202.083333333 333.071428571 202.083333333 321 188 c 0,231,232
 316 182 316 182 309 178 c 1,233,-1
 309 178 l 1,234,235
 316 175 316 175 321 168 c 0,236,237
 333.071428571 155 333.071428571 155 333.071428571 136.826530612 c 0,238,239
 333.071428571 114.083333333 333.071428571 114.083333333 321 100 c 0,240,241
 319 97 319 97 316 95 c 1,242,-1
 458 95 l 2,243,244
 476 95 476 95 488 81 c 128,-1,245
 500 67 500 67 500 47 c 256,246,247
 500 27 500 27 488 14 c 0,248,249
 475 0 475 0 458 0 c 2,250,-1
 41 0 l 2,20,21
EndSplineSet
Validated: 524293
EndChar

StartChar: I
Encoding: 73 73 41
Width: 800
VWidth: 750
Flags: W
LayerCount: 2
Fore
SplineSet
-41 -173 m 2,0,1
 -58 -173 -58 -173 -71 -160 c 0,2,3
 -83 -146 -83 -146 -83 -125 c 256,4,5
 -83 -105 -83 -105 -71 -92 c 0,6,7
 -58 -78 -58 -78 -41 -78 c 2,8,-1
 791 -78 l 2,9,10
 808 -78 808 -78 821 -92 c 0,11,12
 833 -106 833 -106 833 -125 c 256,13,14
 833 -145 833 -145 821 -160 c 0,15,16
 808.866666667 -173.066666667 808.866666667 -173.066666667 793.248888889 -173.066666667 c 0,17,18
 792.133333333 -173.066666667 792.133333333 -173.066666667 791 -173 c 2,19,-1
 -41 -173 l 2,0,1
41 0 m 2,20,21
 24 0 24 0 12 14 c 256,22,23
 0 28 0 28 0 47 c 256,24,25
 0 67 0 67 12 81 c 256,26,27
 24 95 24 95 41 95 c 2,28,-1
 184 95 l 1,29,30
 180 96 180 96 178 100 c 0,31,32
 166 114 166 114 166 134 c 256,33,34
 166 154 166 154 178 168 c 0,35,36
 182 174 182 174 190 178 c 1,37,-1
 190 178 l 1,38,39
 184 182 184 182 178 188 c 0,40,41
 166 202 166 202 166 221 c 256,42,43
 166 241 166 241 178 255 c 0,44,45
 182 261 182 261 190 265 c 1,46,-1
 190 265 l 1,47,48
 184 268 184 268 178 274 c 0,49,50
 166 288 166 288 166 308 c 256,51,52
 166 328 166 328 178 342 c 0,53,54
 182 348 182 348 190 352 c 1,55,-1
 190 352 l 1,56,57
 184 355 184 355 178 361 c 0,58,59
 166 374 166 374 166 394 c 256,60,61
 166 414 166 414 178 428 c 0,62,63
 182 434 182 434 190 438 c 1,64,-1
 190 438 l 1,65,66
 184 441 184 441 178 448 c 0,67,68
 166 462 166 462 166 482 c 256,69,70
 166 502 166 502 178 515 c 0,71,72
 180 518 180 518 184 520 c 1,73,-1
 41 520 l 2,74,75
 24 520 24 520 12 535 c 256,76,77
 0 548 0 548 0 568 c 256,78,79
 0 588 0 588 12 602 c 256,80,81
 24 616 24 616 41 616 c 2,82,-1
 458 616 l 2,83,84
 476 616 476 616 488 602 c 128,-1,85
 500 588 500 588 500 568 c 256,86,87
 500 548 500 548 488 535 c 0,88,89
 475 520 475 520 458 520 c 2,90,-1
 316 520 l 1,91,92
 318 518 318 518 321 515 c 0,93,94
 333.071428571 502.928571429 333.071428571 502.928571429 333.071428571 484.821428571 c 0,95,96
 333.071428571 462.083333333 333.071428571 462.083333333 321 448 c 0,97,98
 316 442 316 442 309 438 c 1,99,-1
 309 438 l 1,100,101
 316 434 316 434 321 428 c 0,102,103
 333.071428571 415 333.071428571 415 333.071428571 396.826530612 c 0,104,105
 333.071428571 374.077380952 333.071428571 374.077380952 321 361 c 0,106,107
 316 355 316 355 309 352 c 1,108,-1
 309 352 l 1,109,110
 316 348 316 348 321 342 c 0,111,112
 333.071428571 329 333.071428571 329 333.071428571 310.826530612 c 0,113,114
 333.071428571 288.083333333 333.071428571 288.083333333 321 274 c 0,115,116
 316 268 316 268 309 265 c 1,117,-1
 309 265 l 1,118,119
 316 262 316 262 321 255 c 0,120,121
 333.071428571 242 333.071428571 242 333.071428571 223.826530612 c 0,122,123
 333.071428571 202.083333333 333.071428571 202.083333333 321 188 c 0,124,125
 316 182 316 182 309 178 c 1,126,-1
 309 178 l 1,127,128
 316 175 316 175 321 168 c 0,129,130
 333.071428571 155 333.071428571 155 333.071428571 136.826530612 c 0,131,132
 333.071428571 114.083333333 333.071428571 114.083333333 321 100 c 0,133,134
 319 97 319 97 316 95 c 1,135,-1
 458 95 l 2,136,137
 476 95 476 95 488 81 c 128,-1,138
 500 67 500 67 500 47 c 256,139,140
 500 27 500 27 488 14 c 0,141,142
 475 0 475 0 458 0 c 2,143,-1
 41 0 l 2,20,21
EndSplineSet
Validated: 524293
EndChar

StartChar: J
Encoding: 74 74 42
Width: 1120
VWidth: 750
Flags: W
LayerCount: 2
Fore
SplineSet
-41 -173 m 2,0,1
 -58 -173 -58 -173 -71 -160 c 0,2,3
 -83 -146 -83 -146 -83 -125 c 256,4,5
 -83 -105 -83 -105 -71 -92 c 0,6,7
 -58 -78 -58 -78 -41 -78 c 2,8,-1
 1125 -78 l 2,9,10
 1142 -78 1142 -78 1154 -92 c 256,11,12
 1166 -106 1166 -106 1166 -125 c 256,13,14
 1166 -145 1166 -145 1154 -160 c 0,15,16
 1142.8 -173.066666667 1142.8 -173.066666667 1127.24444444 -173.066666667 c 0,17,18
 1126.13333333 -173.066666667 1126.13333333 -173.066666667 1125 -173 c 2,19,-1
 -41 -173 l 2,0,1
125 0 m 2,20,21
 108 0 108 0 95 14 c 0,22,23
 83 28 83 28 83 47 c 256,24,25
 83 67 83 67 95 81 c 0,26,27
 96 84 96 84 100 87 c 1,28,-1
 41 87 l 2,29,30
 39.8666666667 86.9333333333 39.8666666667 86.9333333333 38.7555555556 86.9333333333 c 0,31,32
 23.2 86.9333333333 23.2 86.9333333333 12 100 c 256,33,34
 0 114 0 114 0 134 c 256,35,36
 0 154 0 154 12 168 c 0,37,38
 17 174 17 174 24 178 c 1,39,-1
 24 178 l 1,40,41
 18 182 18 182 12 188 c 0,42,43
 0 202 0 202 0 221 c 256,44,45
 0 241 0 241 12 255 c 256,46,47
 24 268 24 268 41 268 c 2,48,-1
 125 268 l 2,49,50
 142 268 142 268 154 255 c 0,51,52
 166 241 166 241 166 221 c 256,53,54
 166 202 166 202 154 188 c 0,55,56
 148 182 148 182 142 178 c 1,57,-1
 142 178 l 1,58,59
 148 175 148 175 154 168 c 0,60,61
 166 154 166 154 166 134 c 256,62,63
 166 114 166 114 154 100 c 0,64,65
 152 97 152 97 149 95 c 1,66,-1
 434 95 l 1,67,68
 432 96 432 96 429 100 c 0,69,70
 416 114 416 114 416 134 c 256,71,72
 416 154 416 154 429 168 c 0,73,74
 434 174 434 174 440 178 c 1,75,-1
 440 178 l 1,76,77
 433 182 433 182 429 188 c 0,78,79
 416 202 416 202 416 221 c 256,80,81
 416 241 416 241 429 255 c 0,82,83
 434 261 434 261 440 265 c 1,84,-1
 440 265 l 1,85,86
 433 268 433 268 429 274 c 0,87,88
 416 288 416 288 416 308 c 256,89,90
 416 328 416 328 429 342 c 0,91,92
 434 348 434 348 440 352 c 1,93,-1
 440 352 l 1,94,95
 433 355 433 355 429 361 c 0,96,97
 416 374 416 374 416 394 c 256,98,99
 416 414 416 414 429 428 c 0,100,101
 434 434 434 434 440 438 c 1,102,-1
 440 438 l 1,103,104
 433 441 433 441 429 448 c 0,105,106
 416 462 416 462 416 482 c 256,107,108
 416 502 416 502 429 515 c 0,109,110
 431 518 431 518 434 520 c 1,111,-1
 208 520 l 2,112,113
 190 520 190 520 178 535 c 256,114,115
 166 548 166 548 166 568 c 256,116,117
 166 588 166 588 178 602 c 256,118,119
 190 616 190 616 208 616 c 2,120,-1
 791 616 l 2,121,122
 808 616 808 616 821 602 c 0,123,124
 833 588 833 588 833 568 c 256,125,126
 833 548 833 548 821 535 c 0,127,128
 808 520 808 520 791 520 c 2,129,-1
 566 520 l 1,130,131
 569 518 569 518 571 515 c 0,132,133
 583 502 583 502 583 482 c 256,134,135
 583 462 583 462 571 448 c 0,136,137
 566 442 566 442 560 438 c 1,138,-1
 560 438 l 1,139,140
 566 434 566 434 571 428 c 0,141,142
 583 414 583 414 583 394 c 256,143,144
 583 374 583 374 571 361 c 0,145,146
 566 355 566 355 560 352 c 1,147,-1
 560 352 l 1,148,149
 566 348 566 348 571 342 c 0,150,151
 583 328 583 328 583 308 c 256,152,153
 583 288 583 288 571 274 c 0,154,155
 566 268 566 268 560 265 c 1,156,-1
 560 265 l 1,157,158
 566 262 566 262 571 255 c 0,159,160
 583 241 583 241 583 221 c 256,161,162
 583 202 583 202 571 188 c 0,163,164
 566 182 566 182 560 178 c 1,165,-1
 560 178 l 1,166,167
 566 175 566 175 571 168 c 0,168,169
 583 154 583 154 583 134 c 256,170,171
 583 114 583 114 571 100 c 256,172,173
 560.733333333 86.9333333333 560.733333333 86.9333333333 544.368888889 86.9333333333 c 0,174,175
 543.2 86.9333333333 543.2 86.9333333333 542 87 c 2,176,-1
 482 87 l 1,177,178
 486 85 486 85 488 81 c 0,179,180
 500 67 500 67 500 47 c 256,181,182
 500 27 500 27 488 14 c 0,183,184
 475 0 475 0 458 0 c 2,185,-1
 125 0 l 2,20,21
EndSplineSet
Validated: 524293
EndChar

StartChar: K
Encoding: 75 75 43
Width: 1280
VWidth: 750
Flags: W
LayerCount: 2
Fore
SplineSet
-41 -173 m 2,0,1
 -58 -173 -58 -173 -71 -160 c 0,2,3
 -83 -146 -83 -146 -83 -125 c 256,4,5
 -83 -105 -83 -105 -71 -92 c 0,6,7
 -58 -78 -58 -78 -41 -78 c 2,8,-1
 1292 -78 l 2,9,10
 1309 -78 1309 -78 1321 -92 c 256,11,12
 1333 -106 1333 -106 1333 -125 c 256,13,14
 1333 -145 1333 -145 1321 -160 c 0,15,16
 1310.73333333 -173.066666667 1310.73333333 -173.066666667 1294.36888889 -173.066666667 c 0,17,18
 1293.2 -173.066666667 1293.2 -173.066666667 1292 -173 c 2,19,-1
 -41 -173 l 2,0,1
41 0 m 2,20,21
 24 0 24 0 12 14 c 256,22,23
 0 28 0 28 0 47 c 256,24,25
 0 67 0 67 12 81 c 256,26,27
 24 95 24 95 41 95 c 2,28,-1
 184 95 l 1,29,30
 180 96 180 96 178 100 c 0,31,32
 166 114 166 114 166 134 c 256,33,34
 166 154 166 154 178 168 c 0,35,36
 182 174 182 174 190 178 c 1,37,-1
 190 178 l 1,38,39
 184 182 184 182 178 188 c 0,40,41
 166 202 166 202 166 221 c 256,42,43
 166 241 166 241 178 255 c 0,44,45
 182 261 182 261 190 265 c 1,46,-1
 190 265 l 1,47,48
 184 268 184 268 178 274 c 0,49,50
 166 288 166 288 166 308 c 256,51,52
 166 328 166 328 178 342 c 0,53,54
 182 348 182 348 190 352 c 1,55,-1
 190 352 l 1,56,57
 184 355 184 355 178 361 c 0,58,59
 166 374 166 374 166 394 c 256,60,61
 166 414 166 414 178 428 c 0,62,63
 182 434 182 434 190 438 c 1,64,-1
 190 438 l 1,65,66
 184 441 184 441 178 448 c 0,67,68
 166 462 166 462 166 482 c 256,69,70
 166 502 166 502 178 515 c 0,71,72
 180 518 180 518 184 520 c 1,73,-1
 41 520 l 2,74,75
 24 520 24 520 12 535 c 256,76,77
 0 548 0 548 0 568 c 256,78,79
 0 588 0 588 12 602 c 256,80,81
 24 616 24 616 41 616 c 2,82,-1
 458 616 l 2,83,84
 476 616 476 616 488 602 c 128,-1,85
 500 588 500 588 500 568 c 256,86,87
 500 548 500 548 488 535 c 0,88,89
 475 520 475 520 458 520 c 2,90,-1
 316 520 l 1,91,92
 318 518 318 518 321 515 c 0,93,94
 333.071428571 502.928571429 333.071428571 502.928571429 333.071428571 484.821428571 c 0,95,96
 333.071428571 462.083333333 333.071428571 462.083333333 321 448 c 0,97,98
 316 442 316 442 309 438 c 1,99,-1
 309 438 l 1,100,101
 316 434 316 434 321 428 c 0,102,103
 333.071428571 415 333.071428571 415 333.071428571 396.826530612 c 0,104,105
 333.071428571 374.077380952 333.071428571 374.077380952 321 361 c 0,106,107
 319 358 319 358 316 356 c 1,108,-1
 601 356 l 1,109,110
 600 358 600 358 596 361 c 0,111,112
 583 374 583 374 583 394 c 256,113,114
 584 414 584 414 596 428 c 128,-1,115
 608 442 608 442 625 442 c 2,116,-1
 684 442 l 1,117,118
 681 444 681 444 679 448 c 0,119,120
 667 462 667 462 667 482 c 256,121,122
 667 502 667 502 679 515 c 0,123,124
 684 521 684 521 690 525 c 1,125,-1
 690 525 l 1,126,127
 684 528 684 528 679 535 c 0,128,129
 667 548 667 548 667 568 c 256,130,131
 667 588 667 588 679 602 c 0,132,133
 692 616 692 616 708 616 c 2,134,-1
 1125 616 l 2,135,136
 1142 616 1142 616 1154 602 c 256,137,138
 1166 588 1166 588 1166 568 c 256,139,140
 1166 548 1166 548 1154 535 c 256,141,142
 1142 520 1142 520 1125 520 c 2,143,-1
 815 520 l 1,144,145
 818 518 818 518 821 515 c 0,146,147
 833 502 833 502 833 482 c 256,148,149
 833 462 833 462 821 448 c 0,150,151
 808 434 808 434 791 434 c 2,152,-1
 733 434 l 1,153,154
 735 432 735 432 737 428 c 0,155,156
 750 414 750 414 750 394 c 256,157,158
 750 374 750 374 737 361 c 0,159,160
 725 347 725 347 708 347 c 2,161,-1
 649 347 l 1,162,163
 652 345 652 345 655 342 c 0,164,165
 667 328 667 328 667 308 c 256,166,167
 667 288 667 288 655 274 c 0,168,169
 653 270 653 270 649 268 c 1,170,-1
 708 268 l 2,171,172
 725 268 725 268 737 255 c 0,173,174
 750 241 750 241 750 221 c 256,175,176
 750 202 750 202 737 188 c 0,177,178
 735 185 735 185 733 182 c 1,179,-1
 791 182 l 2,180,181
 808 182 808 182 821 168 c 0,182,183
 833 154 833 154 833 134 c 256,184,185
 833 114 833 114 821 100 c 0,186,187
 819 97 819 97 815 95 c 1,188,-1
 1125 95 l 2,189,190
 1142 95 1142 95 1154 81 c 256,191,192
 1166 67 1166 67 1166 47 c 256,193,194
 1166 27 1166 27 1154 14 c 256,195,196
 1142 0 1142 0 1125 0 c 2,197,-1
 708 0 l 2,198,199
 691 0 691 0 679 14 c 128,-1,200
 667 28 667 28 667 47 c 256,201,202
 667 67 667 67 679 81 c 0,203,204
 684 87 684 87 690 91 c 1,205,-1
 690 91 l 1,206,207
 684 94 684 94 679 100 c 0,208,209
 667 114 667 114 667 134 c 256,210,211
 667 154 667 154 679 168 c 0,212,213
 681 171 681 171 684 173 c 1,214,-1
 625 173 l 2,215,216
 608 174 608 174 596 188 c 0,217,218
 583 202 583 202 583 221 c 256,219,220
 584 241 584 241 596 255 c 0,221,222
 598 258 598 258 601 260 c 1,223,-1
 316 260 l 1,224,225
 318 258 318 258 321 255 c 0,226,227
 333.071428571 242 333.071428571 242 333.071428571 223.826530612 c 0,228,229
 333.071428571 202.083333333 333.071428571 202.083333333 321 188 c 0,230,231
 316 182 316 182 309 178 c 1,232,-1
 309 178 l 1,233,234
 316 175 316 175 321 168 c 0,235,236
 333.071428571 155 333.071428571 155 333.071428571 136.826530612 c 0,237,238
 333.071428571 114.083333333 333.071428571 114.083333333 321 100 c 0,239,240
 319 97 319 97 316 95 c 1,241,-1
 458 95 l 2,242,243
 476 95 476 95 488 81 c 128,-1,244
 500 67 500 67 500 47 c 256,245,246
 500 27 500 27 488 14 c 0,247,248
 475 0 475 0 458 0 c 2,249,-1
 41 0 l 2,20,21
EndSplineSet
Validated: 524293
EndChar

StartChar: L
Encoding: 76 76 44
Width: 1120
VWidth: 750
Flags: W
LayerCount: 2
Fore
SplineSet
-41 -173 m 2,0,1
 -58 -173 -58 -173 -71 -160 c 0,2,3
 -83 -146 -83 -146 -83 -125 c 256,4,5
 -83 -105 -83 -105 -71 -92 c 0,6,7
 -58 -78 -58 -78 -41 -78 c 2,8,-1
 1125 -78 l 2,9,10
 1142 -78 1142 -78 1154 -92 c 256,11,12
 1166 -106 1166 -106 1166 -125 c 256,13,14
 1166 -145 1166 -145 1154 -160 c 0,15,16
 1142.8 -173.066666667 1142.8 -173.066666667 1127.24444444 -173.066666667 c 0,17,18
 1126.13333333 -173.066666667 1126.13333333 -173.066666667 1125 -173 c 2,19,-1
 -41 -173 l 2,0,1
41 0 m 2,20,21
 24 0 24 0 12 14 c 256,22,23
 0 28 0 28 0 47 c 256,24,25
 0 67 0 67 12 81 c 256,26,27
 24 95 24 95 41 95 c 2,28,-1
 184 95 l 1,29,30
 180 96 180 96 178 100 c 0,31,32
 166 114 166 114 166 134 c 256,33,34
 166 154 166 154 178 168 c 0,35,36
 182 174 182 174 190 178 c 1,37,-1
 190 178 l 1,38,39
 184 182 184 182 178 188 c 0,40,41
 166 202 166 202 166 221 c 256,42,43
 166 241 166 241 178 255 c 0,44,45
 182 261 182 261 190 265 c 1,46,-1
 190 265 l 1,47,48
 184 268 184 268 178 274 c 0,49,50
 166 288 166 288 166 308 c 256,51,52
 166 328 166 328 178 342 c 0,53,54
 182 348 182 348 190 352 c 1,55,-1
 190 352 l 1,56,57
 184 355 184 355 178 361 c 0,58,59
 166 374 166 374 166 394 c 256,60,61
 166 414 166 414 178 428 c 0,62,63
 182 434 182 434 190 438 c 1,64,-1
 190 438 l 1,65,66
 184 441 184 441 178 448 c 0,67,68
 166 462 166 462 166 482 c 256,69,70
 166 502 166 502 178 515 c 0,71,72
 180 518 180 518 184 520 c 1,73,-1
 41 520 l 2,74,75
 24 520 24 520 12 535 c 256,76,77
 0 548 0 548 0 568 c 256,78,79
 0 588 0 588 12 602 c 256,80,81
 24 616 24 616 41 616 c 2,82,-1
 458 616 l 2,83,84
 476 616 476 616 488 602 c 128,-1,85
 500 588 500 588 500 568 c 256,86,87
 500 548 500 548 488 535 c 0,88,89
 475 520 475 520 458 520 c 2,90,-1
 316 520 l 1,91,92
 318 518 318 518 321 515 c 0,93,94
 333.071428571 502.928571429 333.071428571 502.928571429 333.071428571 484.821428571 c 0,95,96
 333.071428571 462.083333333 333.071428571 462.083333333 321 448 c 0,97,98
 316 442 316 442 309 438 c 1,99,-1
 309 438 l 1,100,101
 316 434 316 434 321 428 c 0,102,103
 333.071428571 415 333.071428571 415 333.071428571 396.826530612 c 0,104,105
 333.071428571 374.077380952 333.071428571 374.077380952 321 361 c 0,106,107
 316 355 316 355 309 352 c 1,108,-1
 309 352 l 1,109,110
 316 348 316 348 321 342 c 0,111,112
 333.071428571 329 333.071428571 329 333.071428571 310.826530612 c 0,113,114
 333.071428571 288.083333333 333.071428571 288.083333333 321 274 c 0,115,116
 316 268 316 268 309 265 c 1,117,-1
 309 265 l 1,118,119
 316 262 316 262 321 255 c 0,120,121
 333.071428571 242 333.071428571 242 333.071428571 223.826530612 c 0,122,123
 333.071428571 202.083333333 333.071428571 202.083333333 321 188 c 0,124,125
 316 182 316 182 309 178 c 1,126,-1
 309 178 l 1,127,128
 316 175 316 175 321 168 c 0,129,130
 333.071428571 155 333.071428571 155 333.071428571 136.826530612 c 0,131,132
 333.071428571 114.083333333 333.071428571 114.083333333 321 100 c 0,133,134
 319 97 319 97 316 95 c 1,135,-1
 850 95 l 1,136,137
 847 96 847 96 845 100 c 0,138,139
 833 114 833 114 833 134 c 256,140,141
 833 154 833 154 845 168 c 0,142,143
 858 182 858 182 875 182 c 2,144,-1
 958 182 l 2,145,146
 975 182 975 182 988 168 c 0,147,148
 1000 154 1000 154 1000 134 c 256,149,150
 1000 114 1000 114 988 100 c 0,151,152
 983 94 983 94 976 91 c 1,153,-1
 976 91 l 1,154,155
 982 88 982 88 988 81 c 0,156,157
 1000 67 1000 67 1000 47 c 256,158,159
 1000 27 1000 27 988 14 c 0,160,161
 975 0 975 0 958 0 c 2,162,-1
 41 0 l 2,20,21
EndSplineSet
Validated: 524293
EndChar

StartChar: M
Encoding: 77 77 45
Width: 1440
VWidth: 750
Flags: W
LayerCount: 2
Fore
SplineSet
-41 -173 m 2,0,1
 -58 -173 -58 -173 -71 -160 c 0,2,3
 -83 -146 -83 -146 -83 -125 c 256,4,5
 -83 -105 -83 -105 -71 -92 c 0,6,7
 -58 -78 -58 -78 -41 -78 c 2,8,-1
 1458 -78 l 2,9,10
 1475 -78 1475 -78 1487 -92 c 0,11,12
 1500 -106 1500 -106 1500 -125 c 256,13,14
 1500 -145 1500 -145 1487 -160 c 0,15,16
 1475.8 -173.066666667 1475.8 -173.066666667 1460.24444444 -173.066666667 c 0,17,18
 1459.13333333 -173.066666667 1459.13333333 -173.066666667 1458 -173 c 2,19,-1
 -41 -173 l 2,0,1
41 0 m 2,20,21
 24 0 24 0 12 14 c 256,22,23
 0 28 0 28 0 47 c 256,24,25
 0 67 0 67 12 81 c 256,26,27
 24 95 24 95 41 95 c 2,28,-1
 184 95 l 1,29,30
 180 96 180 96 178 100 c 0,31,32
 166 114 166 114 166 134 c 256,33,34
 166 154 166 154 178 168 c 0,35,36
 182 174 182 174 190 178 c 1,37,-1
 190 178 l 1,38,39
 184 182 184 182 178 188 c 0,40,41
 166 202 166 202 166 221 c 256,42,43
 166 241 166 241 178 255 c 0,44,45
 182 261 182 261 190 265 c 1,46,-1
 190 265 l 1,47,48
 184 268 184 268 178 274 c 0,49,50
 166 288 166 288 166 308 c 256,51,52
 166 328 166 328 178 342 c 0,53,54
 182 348 182 348 190 352 c 1,55,-1
 190 352 l 1,56,57
 184 355 184 355 178 361 c 0,58,59
 166 374 166 374 166 394 c 256,60,61
 166 414 166 414 178 428 c 0,62,63
 182 434 182 434 190 438 c 1,64,-1
 190 438 l 1,65,66
 184 441 184 441 178 448 c 0,67,68
 166 462 166 462 166 482 c 256,69,70
 166 502 166 502 178 515 c 0,71,72
 180 518 180 518 184 520 c 1,73,-1
 41 520 l 2,74,75
 24 520 24 520 12 535 c 256,76,77
 0 548 0 548 0 568 c 256,78,79
 0 588 0 588 12 602 c 256,80,81
 24 616 24 616 41 616 c 2,82,-1
 292 616 l 2,83,84
 309 616 309 616 321 602 c 0,85,86
 333.071428571 589 333.071428571 589 333.071428571 570.826530612 c 0,87,88
 333.071428571 548.077380952 333.071428571 548.077380952 321 535 c 0,89,90
 319 532 319 532 316 530 c 1,91,-1
 458 530 l 2,92,93
 475 530 475 530 487.5 515.5 c 0,94,95
 500 502 500 502 500 482 c 256,96,97
 500 462 500 462 488 448 c 0,98,99
 486 444 486 444 482 442 c 1,100,-1
 542 442 l 2,101,102
 559 442 559 442 571 428 c 256,103,104
 583 414 583 414 583 394 c 256,105,106
 583 374 583 374 571 361 c 0,107,108
 570 358 570 358 566 356 c 1,109,-1
 625 356 l 2,110,111
 642 356 642 356 655 342 c 0,112,113
 667 328 667 328 667 308 c 256,114,115
 667 288 667 288 655 274 c 0,116,117
 653 270 653 270 649 268 c 1,118,-1
 684 268 l 1,119,120
 681 270 681 270 679 274 c 0,121,122
 667 288 667 288 667 308 c 256,123,124
 667 328 667 328 679 342 c 0,125,126
 692 356 692 356 708 356 c 2,127,-1
 767 356 l 1,128,129
 765 358 765 358 762 361 c 0,130,131
 750 374 750 374 750 394 c 256,132,133
 750 414 750 414 762 428 c 256,134,135
 774 442 774 442 791 442 c 2,136,-1
 850 442 l 1,137,138
 847 444 847 444 845 448 c 0,139,140
 833 462 833 462 833 482 c 256,141,142
 833 502 833 502 845 515 c 0,143,144
 858 530 858 530 875 530 c 2,145,-1
 1017 530 l 1,146,147
 1014 532 1014 532 1012 535 c 0,148,149
 1000 548 1000 548 1000 568 c 256,150,151
 1000 588 1000 588 1012 602 c 0,152,153
 1025 616 1025 616 1042 616 c 2,154,-1
 1292 616 l 2,155,156
 1309 616 1309 616 1321 602 c 256,157,158
 1333 588 1333 588 1333 568 c 256,159,160
 1333 548 1333 548 1321 535 c 256,161,162
 1310 520 1310 520 1292 520 c 2,163,-1
 1149 520 l 1,164,165
 1152 518 1152 518 1154 515 c 0,166,167
 1166 502 1166 502 1166 482 c 256,168,169
 1166 462 1166 462 1154 448 c 0,170,171
 1149 442 1149 442 1142 438 c 1,172,-1
 1142 438 l 1,173,174
 1148 434 1148 434 1154 428 c 0,175,176
 1166 414 1166 414 1166 394 c 256,177,178
 1166 374 1166 374 1154 361 c 0,179,180
 1149 355 1149 355 1142 352 c 1,181,-1
 1142 352 l 1,182,183
 1148 348 1148 348 1154 342 c 0,184,185
 1166 328 1166 328 1166 308 c 256,186,187
 1166 288 1166 288 1154 274 c 0,188,189
 1149 268 1149 268 1142 265 c 1,190,-1
 1142 265 l 1,191,192
 1148 262 1148 262 1154 255 c 0,193,194
 1166 241 1166 241 1166 221 c 256,195,196
 1166 202 1166 202 1154 188 c 0,197,198
 1149 182 1149 182 1142 178 c 1,199,-1
 1142 178 l 1,200,201
 1148 175 1148 175 1154 168 c 0,202,203
 1166 154 1166 154 1166 134 c 256,204,205
 1166 114 1166 114 1154 100 c 0,206,207
 1152 97 1152 97 1149 95 c 1,208,-1
 1292 95 l 2,209,210
 1309 95 1309 95 1321 81 c 256,211,212
 1333 67 1333 67 1333 47 c 256,213,214
 1333 27 1333 27 1321 14 c 256,215,216
 1310 0 1310 0 1292 0 c 2,217,-1
 875 0 l 2,218,219
 858 0 858 0 845 14 c 0,220,221
 833 28 833 28 833 47 c 256,222,223
 833 67 833 67 845 81 c 0,224,225
 858 95 858 95 875 95 c 2,226,-1
 1017 95 l 1,227,228
 1014 96 1014 96 1012 100 c 0,229,230
 1000 114 1000 114 1000 134 c 256,231,232
 1000 154 1000 154 1012 168 c 0,233,234
 1017 174 1017 174 1024 178 c 1,235,-1
 1024 178 l 1,236,237
 1017 182 1017 182 1012 188 c 0,238,239
 1000 202 1000 202 1000 221 c 256,240,241
 1000 241 1000 241 1012 255 c 0,242,243
 1017 261 1017 261 1024 265 c 1,244,-1
 1024 265 l 1,245,246
 1017 268 1017 268 1012 274 c 0,247,248
 1000 288 1000 288 1000 308 c 256,249,250
 1000 328 1000 328 1012 342 c 0,251,252
 1017 348 1017 348 1024 352 c 1,253,-1
 1024 352 l 1,254,255
 1017 355 1017 355 1012 361 c 0,256,257
 1000 374 1000 374 1000 394 c 256,258,259
 1000 414 1000 414 1012 428 c 0,260,261
 1014 431 1014 431 1017 434 c 1,262,-1
 899 434 l 1,263,264
 900 432 900 432 904 428 c 0,265,266
 916 414 916 414 916 394 c 256,267,268
 916 374 916 374 904 360 c 0,269,270
 892.8 346.933333333 892.8 346.933333333 877.244444444 346.933333333 c 0,271,272
 876.133333333 346.933333333 876.133333333 346.933333333 875 347 c 2,273,-1
 815 347 l 1,274,275
 818 345 818 345 821 342 c 0,276,277
 833 328 833 328 833 308 c 256,278,279
 833 288 833 288 821 274 c 0,280,281
 808 260 808 260 791 260 c 2,282,-1
 733 260 l 1,283,284
 735 258 735 258 737 255 c 0,285,286
 750 241 750 241 750 221 c 256,287,288
 750 202 750 202 737 188 c 0,289,290
 725 174 725 174 708 173 c 2,291,-1
 625 173 l 2,292,293
 608 174 608 174 596 188 c 0,294,295
 583 202 583 202 583 221 c 256,296,297
 584 241 584 241 596 255 c 0,298,299
 598 258 598 258 601 260 c 1,300,-1
 542 260 l 2,301,302
 525 260 525 260 512.5 274.5 c 128,-1,303
 500 289 500 289 500 308 c 256,304,305
 500 328 500 328 512 342 c 0,306,307
 514 345 514 345 518 347 c 1,308,-1
 458 347 l 2,309,310
 441 347 441 347 429 361 c 0,311,312
 416 374 416 374 416 394 c 256,313,314
 416 414 416 414 429 428 c 0,315,316
 431 431 431 431 434 434 c 1,317,-1
 316 434 l 1,318,319
 318 432 318 432 321 428 c 0,320,321
 333.071428571 415 333.071428571 415 333.071428571 396.826530612 c 0,322,323
 333.071428571 374.077380952 333.071428571 374.077380952 321 361 c 0,324,325
 316 355 316 355 309 352 c 1,326,-1
 309 352 l 1,327,328
 316 348 316 348 321 342 c 0,329,330
 333.071428571 329 333.071428571 329 333.071428571 310.826530612 c 0,331,332
 333.071428571 288.083333333 333.071428571 288.083333333 321 274 c 0,333,334
 316 268 316 268 309 265 c 1,335,-1
 309 265 l 1,336,337
 316 262 316 262 321 255 c 0,338,339
 333.071428571 242 333.071428571 242 333.071428571 223.826530612 c 0,340,341
 333.071428571 202.083333333 333.071428571 202.083333333 321 188 c 0,342,343
 316 182 316 182 309 178 c 1,344,-1
 309 178 l 1,345,346
 316 175 316 175 321 168 c 0,347,348
 333.071428571 155 333.071428571 155 333.071428571 136.826530612 c 0,349,350
 333.071428571 114.083333333 333.071428571 114.083333333 321 100 c 0,351,352
 319 97 319 97 316 95 c 1,353,-1
 458 95 l 2,354,355
 475 95 475 95 487.5 81 c 128,-1,356
 500 67 500 67 500 47 c 256,357,358
 500 27 500 27 488 14 c 0,359,360
 475 0 475 0 458 0 c 2,361,-1
 41 0 l 2,20,21
EndSplineSet
Validated: 524293
EndChar

StartChar: N
Encoding: 78 78 46
Width: 1280
VWidth: 750
Flags: W
LayerCount: 2
Fore
SplineSet
-41 -173 m 2,0,1
 -58 -173 -58 -173 -71 -160 c 0,2,3
 -83 -146 -83 -146 -83 -125 c 256,4,5
 -83 -105 -83 -105 -71 -92 c 0,6,7
 -58 -78 -58 -78 -41 -78 c 2,8,-1
 1292 -78 l 2,9,10
 1309 -78 1309 -78 1321 -92 c 256,11,12
 1333 -106 1333 -106 1333 -125 c 256,13,14
 1333 -145 1333 -145 1321 -160 c 0,15,16
 1310.73333333 -173.066666667 1310.73333333 -173.066666667 1294.36888889 -173.066666667 c 0,17,18
 1293.2 -173.066666667 1293.2 -173.066666667 1292 -173 c 2,19,-1
 -41 -173 l 2,0,1
41 0 m 2,20,21
 24 0 24 0 12 14 c 256,22,23
 0 28 0 28 0 47 c 256,24,25
 0 67 0 67 12 81 c 256,26,27
 24 95 24 95 41 95 c 2,28,-1
 184 95 l 1,29,30
 180 96 180 96 178 100 c 0,31,32
 166 114 166 114 166 134 c 256,33,34
 166 154 166 154 178 168 c 0,35,36
 182 174 182 174 190 178 c 1,37,-1
 190 178 l 1,38,39
 184 182 184 182 178 188 c 0,40,41
 166 202 166 202 166 221 c 256,42,43
 166 241 166 241 178 255 c 0,44,45
 182 261 182 261 190 265 c 1,46,-1
 190 265 l 1,47,48
 184 268 184 268 178 274 c 0,49,50
 166 288 166 288 166 308 c 256,51,52
 166 328 166 328 178 342 c 0,53,54
 182 348 182 348 190 352 c 1,55,-1
 190 352 l 1,56,57
 184 355 184 355 178 361 c 0,58,59
 166 374 166 374 166 394 c 256,60,61
 166 414 166 414 178 428 c 0,62,63
 182 434 182 434 190 438 c 1,64,-1
 190 438 l 1,65,66
 184 441 184 441 178 448 c 0,67,68
 166 462 166 462 166 482 c 256,69,70
 166 502 166 502 178 515 c 0,71,72
 180 518 180 518 184 520 c 1,73,-1
 41 520 l 2,74,75
 24 520 24 520 12 535 c 256,76,77
 0 548 0 548 0 568 c 256,78,79
 0 588 0 588 12 602 c 256,80,81
 24 616 24 616 41 616 c 2,82,-1
 292 616 l 2,83,84
 309 616 309 616 321 602 c 0,85,86
 333.071428571 589 333.071428571 589 333.071428571 570.826530612 c 0,87,88
 333.071428571 548.077380952 333.071428571 548.077380952 321 535 c 0,89,90
 319 532 319 532 316 530 c 1,91,-1
 458 530 l 2,92,93
 476 530 476 530 488 515 c 0,94,95
 500 502 500 502 500 482 c 256,96,97
 500 462 500 462 488 448 c 0,98,99
 486 444 486 444 482 442 c 1,100,-1
 542 442 l 2,101,102
 559 442 559 442 571 428 c 256,103,104
 583 414 583 414 583 394 c 256,105,106
 583 374 583 374 571 361 c 0,107,108
 570 358 570 358 566 356 c 1,109,-1
 625 356 l 2,110,111
 642 356 642 356 655 342 c 0,112,113
 667 328 667 328 667 308 c 256,114,115
 667 288 667 288 655 274 c 0,116,117
 653 270 653 270 649 268 c 1,118,-1
 708 268 l 2,119,120
 725 268 725 268 737 255 c 0,121,122
 750 241 750 241 750 221 c 256,123,124
 750 202 750 202 737 188 c 0,125,126
 735 185 735 185 733 182 c 1,127,-1
 850 182 l 1,128,129
 847 184 847 184 845 188 c 0,130,131
 833 202 833 202 833 221 c 256,132,133
 833 241 833 241 845 255 c 0,134,135
 850 261 850 261 857 265 c 1,136,-1
 857 265 l 1,137,138
 850 268 850 268 845 274 c 0,139,140
 833 288 833 288 833 308 c 256,141,142
 833 328 833 328 845 342 c 0,143,144
 850 348 850 348 857 352 c 1,145,-1
 857 352 l 1,146,147
 850 355 850 355 845 361 c 0,148,149
 833 374 833 374 833 394 c 256,150,151
 833 414 833 414 845 428 c 0,152,153
 850 434 850 434 857 438 c 1,154,-1
 857 438 l 1,155,156
 850 441 850 441 845 448 c 0,157,158
 833 462 833 462 833 482 c 256,159,160
 833 502 833 502 845 515 c 0,161,162
 846 518 846 518 850 520 c 1,163,-1
 708 520 l 2,164,165
 691 520 691 520 679 535 c 0,166,167
 667 548 667 548 667 568 c 256,168,169
 667 588 667 588 679 602 c 0,170,171
 692 616 692 616 708 616 c 2,172,-1
 1125 616 l 2,173,174
 1142 616 1142 616 1154 602 c 256,175,176
 1166 588 1166 588 1166 568 c 256,177,178
 1166 548 1166 548 1154 535 c 256,179,180
 1142 520 1142 520 1125 520 c 2,181,-1
 982 520 l 1,182,183
 985 518 985 518 988 515 c 0,184,185
 1000 502 1000 502 1000 482 c 256,186,187
 1000 462 1000 462 988 448 c 0,188,189
 983 442 983 442 976 438 c 1,190,-1
 976 438 l 1,191,192
 982 434 982 434 988 428 c 0,193,194
 1000 414 1000 414 1000 394 c 256,195,196
 1000 374 1000 374 988 361 c 0,197,198
 983 355 983 355 976 352 c 1,199,-1
 976 352 l 1,200,201
 982 348 982 348 988 342 c 0,202,203
 1000 328 1000 328 1000 308 c 256,204,205
 1000 288 1000 288 988 274 c 0,206,207
 983 268 983 268 976 265 c 1,208,-1
 976 265 l 1,209,210
 982 262 982 262 988 255 c 0,211,212
 1000 241 1000 241 1000 221 c 256,213,214
 1000 202 1000 202 988 188 c 0,215,216
 983 182 983 182 976 178 c 1,217,-1
 976 178 l 1,218,219
 982 175 982 175 988 168 c 0,220,221
 1000 154 1000 154 1000 134 c 256,222,223
 1000 114 1000 114 988 100 c 0,224,225
 986 97 986 97 982 95 c 1,226,-1
 1125 95 l 2,227,228
 1142 95 1142 95 1154 81 c 256,229,230
 1166 67 1166 67 1166 47 c 256,231,232
 1166 27 1166 27 1154 14 c 256,233,234
 1142 0 1142 0 1125 0 c 2,235,-1
 875 0 l 2,236,237
 858 0 858 0 845 14 c 0,238,239
 833 28 833 28 833 47 c 256,240,241
 833 67 833 67 845 81 c 0,242,243
 846 84 846 84 850 87 c 1,244,-1
 708 87 l 2,245,246
 706.866666667 86.9333333333 706.866666667 86.9333333333 705.755555556 86.9333333333 c 0,247,248
 690.2 86.9333333333 690.2 86.9333333333 679 100 c 0,249,250
 667 114 667 114 667 134 c 256,251,252
 667 154 667 154 679 168 c 0,253,254
 681 171 681 171 684 173 c 1,255,-1
 625 173 l 2,256,257
 608 174 608 174 596 188 c 0,258,259
 583 202 583 202 583 221 c 256,260,261
 584 241 584 241 596 255 c 0,262,263
 598 258 598 258 601 260 c 1,264,-1
 542 260 l 2,265,266
 525 260 525 260 512 274 c 0,267,268
 500 288 500 288 500 308 c 256,269,270
 500 328 500 328 512 342 c 0,271,272
 514 345 514 345 518 347 c 1,273,-1
 458 347 l 2,274,275
 441 347 441 347 429 361 c 0,276,277
 416 374 416 374 416 394 c 256,278,279
 416 414 416 414 429 428 c 0,280,281
 431 431 431 431 434 434 c 1,282,-1
 316 434 l 1,283,284
 318 432 318 432 321 428 c 0,285,286
 333.071428571 415 333.071428571 415 333.071428571 396.826530612 c 0,287,288
 333.071428571 374.077380952 333.071428571 374.077380952 321 361 c 0,289,290
 316 355 316 355 309 352 c 1,291,-1
 309 352 l 1,292,293
 316 348 316 348 321 342 c 0,294,295
 333.071428571 329 333.071428571 329 333.071428571 310.826530612 c 0,296,297
 333.071428571 288.083333333 333.071428571 288.083333333 321 274 c 0,298,299
 316 268 316 268 309 265 c 1,300,-1
 309 265 l 1,301,302
 316 262 316 262 321 255 c 0,303,304
 333.071428571 242 333.071428571 242 333.071428571 223.826530612 c 0,305,306
 333.071428571 202.083333333 333.071428571 202.083333333 321 188 c 0,307,308
 316 182 316 182 309 178 c 1,309,-1
 309 178 l 1,310,311
 316 175 316 175 321 168 c 0,312,313
 333.071428571 155 333.071428571 155 333.071428571 136.826530612 c 0,314,315
 333.071428571 114.083333333 333.071428571 114.083333333 321 100 c 0,316,317
 319 97 319 97 316 95 c 1,318,-1
 458 95 l 2,319,320
 476 95 476 95 488 81 c 128,-1,321
 500 67 500 67 500 47 c 256,322,323
 500 27 500 27 488 14 c 0,324,325
 475 0 475 0 458 0 c 2,326,-1
 41 0 l 2,20,21
EndSplineSet
Validated: 524293
EndChar

StartChar: O
Encoding: 79 79 47
Width: 1280
VWidth: 750
Flags: W
LayerCount: 2
Fore
SplineSet
-41 -173 m 2,0,1
 -58 -173 -58 -173 -71 -160 c 0,2,3
 -83 -146 -83 -146 -83 -125 c 256,4,5
 -83 -105 -83 -105 -71 -92 c 0,6,7
 -58 -78 -58 -78 -41 -78 c 2,8,-1
 1292 -78 l 2,9,10
 1309 -78 1309 -78 1321 -92 c 256,11,12
 1333 -106 1333 -106 1333 -125 c 256,13,14
 1333 -145 1333 -145 1321 -160 c 0,15,16
 1310.73333333 -173.066666667 1310.73333333 -173.066666667 1294.36888889 -173.066666667 c 0,17,18
 1293.2 -173.066666667 1293.2 -173.066666667 1292 -173 c 2,19,-1
 -41 -173 l 2,0,1
934 95 m 1,20,21
 930 96 930 96 928 100 c 0,22,23
 916 114 916 114 916 134 c 256,24,25
 916 154 916 154 928 168 c 256,26,27
 940 182 940 182 958 182 c 2,28,-1
 1017 182 l 1,29,30
 1014 184 1014 184 1012 188 c 0,31,32
 1000 202 1000 202 1000 221 c 256,33,34
 1000 241 1000 241 1012 255 c 0,35,36
 1017 261 1017 261 1024 265 c 1,37,-1
 1024 265 l 1,38,39
 1017 268 1017 268 1012 274 c 0,40,41
 1000 288 1000 288 1000 308 c 256,42,43
 1000 328 1000 328 1012 342 c 0,44,45
 1017 348 1017 348 1024 352 c 1,46,-1
 1024 352 l 1,47,48
 1017 355 1017 355 1012 361 c 0,49,50
 1000 374 1000 374 1000 394 c 256,51,52
 1000 414 1000 414 1012 428 c 0,53,54
 1014 431 1014 431 1017 434 c 1,55,-1
 958 434 l 2,56,57
 940 434 940 434 928 448 c 256,58,59
 916 462 916 462 916 482 c 256,60,61
 916 502 916 502 928 515 c 0,62,63
 930 518 930 518 934 520 c 1,64,-1
 232 520 l 1,65,66
 235 518 235 518 238 515 c 0,67,68
 250 502 250 502 250 482 c 256,69,70
 250 462 250 462 238 448 c 0,71,72
 225 434 225 434 208 434 c 2,73,-1
 149 434 l 1,74,75
 150 432 150 432 154 428 c 0,76,77
 166 414 166 414 166 394 c 256,78,79
 166 374 166 374 154 361 c 0,80,81
 148 355 148 355 142 352 c 1,82,-1
 142 352 l 1,83,84
 148 348 148 348 154 342 c 0,85,86
 166 328 166 328 166 308 c 256,87,88
 166 288 166 288 154 274 c 0,89,90
 148 268 148 268 142 265 c 1,91,-1
 142 265 l 1,92,93
 148 262 148 262 154 255 c 0,94,95
 166 241 166 241 166 221 c 256,96,97
 166 202 166 202 154 188 c 0,98,99
 152 185 152 185 149 182 c 1,100,-1
 208 182 l 2,101,102
 225 182 225 182 238 168 c 0,103,104
 250 154 250 154 250 134 c 256,105,106
 250 114 250 114 238 100 c 0,107,108
 236 97 236 97 232 95 c 1,109,-1
 934 95 l 1,20,21
208 0 m 2,110,111
 190 0 190 0 178 14 c 256,112,113
 166 28 166 28 166 47 c 256,114,115
 166 67 166 67 178 81 c 0,116,117
 180 84 180 84 184 87 c 1,118,-1
 125 87 l 2,119,120
 123.866666667 86.9333333333 123.866666667 86.9333333333 122.751111111 86.9333333333 c 0,121,122
 107.133333333 86.9333333333 107.133333333 86.9333333333 95 100 c 0,123,124
 83 114 83 114 83 134 c 256,125,126
 83 154 83 154 95 168 c 0,127,128
 96 171 96 171 100 173 c 1,129,-1
 41 173 l 2,130,131
 24 174 24 174 12 188 c 256,132,133
 0 202 0 202 0 221 c 256,134,135
 0 241 0 241 12 255 c 0,136,137
 17 261 17 261 24 265 c 1,138,-1
 24 265 l 1,139,140
 18 268 18 268 12 274 c 0,141,142
 0 288 0 288 0 308 c 256,143,144
 0 328 0 328 12 342 c 0,145,146
 17 348 17 348 24 352 c 1,147,-1
 24 352 l 1,148,149
 18 355 18 355 12 361 c 0,150,151
 0 374 0 374 0 394 c 256,152,153
 0 414 0 414 12 428 c 256,154,155
 24 442 24 442 41 442 c 2,156,-1
 100 442 l 1,157,158
 97 444 97 444 95 448 c 0,159,160
 83 462 83 462 83 482 c 256,161,162
 83 502 83 502 95 515 c 0,163,164
 108 530 108 530 125 530 c 2,165,-1
 184 530 l 1,166,167
 180 532 180 532 178 535 c 0,168,169
 166 548 166 548 166 568 c 256,170,171
 166 588 166 588 178 602 c 256,172,173
 190 616 190 616 208 616 c 2,174,-1
 958 616 l 2,175,176
 975 616 975 616 988 602 c 0,177,178
 1000 588 1000 588 1000 568 c 256,179,180
 1000 548 1000 548 988 535 c 0,181,182
 986 532 986 532 982 530 c 1,183,-1
 1042 530 l 2,184,185
 1059 530 1059 530 1071 515 c 0,186,187
 1083.07142857 502.928571429 1083.07142857 502.928571429 1083.07142857 484.821428571 c 0,188,189
 1083.07142857 462.083333333 1083.07142857 462.083333333 1071 448 c 0,190,191
 1069 444 1069 444 1066 442 c 1,192,-1
 1125 442 l 2,193,194
 1142 442 1142 442 1154 428 c 256,195,196
 1166 414 1166 414 1166 394 c 256,197,198
 1166 374 1166 374 1154 361 c 0,199,200
 1149 355 1149 355 1142 352 c 1,201,-1
 1142 352 l 1,202,203
 1148 348 1148 348 1154 342 c 0,204,205
 1166 328 1166 328 1166 308 c 256,206,207
 1166 288 1166 288 1154 274 c 0,208,209
 1149 268 1149 268 1142 265 c 1,210,-1
 1142 265 l 1,211,212
 1148 262 1148 262 1154 255 c 0,213,214
 1166 241 1166 241 1166 221 c 256,215,216
 1166 202 1166 202 1154 188 c 256,217,218
 1142 174 1142 174 1125 173 c 2,219,-1
 1066 173 l 1,220,221
 1068 171 1068 171 1071 168 c 0,222,223
 1083.07142857 155 1083.07142857 155 1083.07142857 136.826530612 c 0,224,225
 1083.07142857 114.083333333 1083.07142857 114.083333333 1071 100 c 0,226,227
 1059.8 86.9333333333 1059.8 86.9333333333 1044.24444444 86.9333333333 c 0,228,229
 1043.13333333 86.9333333333 1043.13333333 86.9333333333 1042 87 c 2,230,-1
 982 87 l 1,231,232
 985 85 985 85 988 81 c 0,233,234
 1000 67 1000 67 1000 47 c 256,235,236
 1000 27 1000 27 988 14 c 0,237,238
 975 0 975 0 958 0 c 2,239,-1
 208 0 l 2,110,111
EndSplineSet
Validated: 524293
EndChar

StartChar: P
Encoding: 80 80 48
Width: 1120
VWidth: 750
Flags: W
LayerCount: 2
Fore
SplineSet
-41 -173 m 2,0,1
 -58 -173 -58 -173 -71 -160 c 0,2,3
 -83 -146 -83 -146 -83 -125 c 256,4,5
 -83 -105 -83 -105 -71 -92 c 0,6,7
 -58 -78 -58 -78 -41 -78 c 2,8,-1
 1125 -78 l 2,9,10
 1142 -78 1142 -78 1154 -92 c 256,11,12
 1166 -106 1166 -106 1166 -125 c 256,13,14
 1166 -145 1166 -145 1154 -160 c 0,15,16
 1142.8 -173.066666667 1142.8 -173.066666667 1127.24444444 -173.066666667 c 0,17,18
 1126.13333333 -173.066666667 1126.13333333 -173.066666667 1125 -173 c 2,19,-1
 -41 -173 l 2,0,1
934 356 m 1,20,21
 930 358 930 358 928 361 c 0,22,23
 916 374 916 374 916 394 c 256,24,25
 916 414 916 414 928 428 c 0,26,27
 932 434 932 434 940 438 c 1,28,-1
 940 438 l 1,29,30
 934 441 934 441 928 448 c 0,31,32
 916 462 916 462 916 482 c 256,33,34
 916 502 916 502 928 515 c 0,35,36
 930 518 930 518 934 520 c 1,37,-1
 316 520 l 1,38,39
 318 518 318 518 321 515 c 0,40,41
 333.071428571 502.928571429 333.071428571 502.928571429 333.071428571 484.821428571 c 0,42,43
 333.071428571 462.083333333 333.071428571 462.083333333 321 448 c 0,44,45
 316 442 316 442 309 438 c 1,46,-1
 309 438 l 1,47,48
 316 434 316 434 321 428 c 0,49,50
 333.071428571 415 333.071428571 415 333.071428571 396.826530612 c 0,51,52
 333.071428571 374.077380952 333.071428571 374.077380952 321 361 c 0,53,54
 319 358 319 358 316 356 c 1,55,-1
 934 356 l 1,20,21
41 0 m 2,56,57
 24 0 24 0 12 14 c 256,58,59
 0 28 0 28 0 47 c 256,60,61
 0 67 0 67 12 81 c 256,62,63
 24 95 24 95 41 95 c 2,64,-1
 184 95 l 1,65,66
 180 96 180 96 178 100 c 0,67,68
 166 114 166 114 166 134 c 256,69,70
 166 154 166 154 178 168 c 0,71,72
 182 174 182 174 190 178 c 1,73,-1
 190 178 l 1,74,75
 184 182 184 182 178 188 c 0,76,77
 166 202 166 202 166 221 c 256,78,79
 166 241 166 241 178 255 c 0,80,81
 182 261 182 261 190 265 c 1,82,-1
 190 265 l 1,83,84
 184 268 184 268 178 274 c 0,85,86
 166 288 166 288 166 308 c 256,87,88
 166 328 166 328 178 342 c 0,89,90
 182 348 182 348 190 352 c 1,91,-1
 190 352 l 1,92,93
 184 355 184 355 178 361 c 0,94,95
 166 374 166 374 166 394 c 256,96,97
 166 414 166 414 178 428 c 0,98,99
 182 434 182 434 190 438 c 1,100,-1
 190 438 l 1,101,102
 184 441 184 441 178 448 c 0,103,104
 166 462 166 462 166 482 c 256,105,106
 166 502 166 502 178 515 c 0,107,108
 180 518 180 518 184 520 c 1,109,-1
 41 520 l 2,110,111
 24 520 24 520 12 535 c 256,112,113
 0 548 0 548 0 568 c 256,114,115
 0 588 0 588 12 602 c 256,116,117
 24 616 24 616 41 616 c 2,118,-1
 958 616 l 2,119,120
 975 616 975 616 988 602 c 0,121,122
 1000 588 1000 588 1000 568 c 256,123,124
 1000 548 1000 548 988 535 c 0,125,126
 986 532 986 532 982 530 c 1,127,-1
 1042 530 l 2,128,129
 1059 530 1059 530 1071 515 c 0,130,131
 1083.07142857 502.928571429 1083.07142857 502.928571429 1083.07142857 484.821428571 c 0,132,133
 1083.07142857 462.083333333 1083.07142857 462.083333333 1071 448 c 0,134,135
 1066 442 1066 442 1059 438 c 1,136,-1
 1059 438 l 1,137,138
 1066 434 1066 434 1071 428 c 0,139,140
 1083.07142857 415 1083.07142857 415 1083.07142857 396.826530612 c 0,141,142
 1083.07142857 374.077380952 1083.07142857 374.077380952 1071 361 c 0,143,144
 1059 347 1059 347 1042 347 c 2,145,-1
 982 347 l 1,146,147
 985 345 985 345 988 342 c 0,148,149
 1000 328 1000 328 1000 308 c 256,150,151
 1000 288 1000 288 988 274 c 0,152,153
 975 260 975 260 958 260 c 2,154,-1
 316 260 l 1,155,156
 318 258 318 258 321 255 c 0,157,158
 333.071428571 242 333.071428571 242 333.071428571 223.826530612 c 0,159,160
 333.071428571 202.083333333 333.071428571 202.083333333 321 188 c 0,161,162
 316 182 316 182 309 178 c 1,163,-1
 309 178 l 1,164,165
 316 175 316 175 321 168 c 0,166,167
 333.071428571 155 333.071428571 155 333.071428571 136.826530612 c 0,168,169
 333.071428571 114.083333333 333.071428571 114.083333333 321 100 c 0,170,171
 319 97 319 97 316 95 c 1,172,-1
 458 95 l 2,173,174
 476 95 476 95 488 81 c 128,-1,175
 500 67 500 67 500 47 c 256,176,177
 500 27 500 27 488 14 c 0,178,179
 475 0 475 0 458 0 c 2,180,-1
 41 0 l 2,56,57
EndSplineSet
Validated: 524293
EndChar

StartChar: Q
Encoding: 81 81 49
Width: 1120
VWidth: 750
Flags: W
LayerCount: 2
Fore
SplineSet
-41 -173 m 2,0,1
 -58 -173 -58 -173 -71 -160 c 0,2,3
 -83 -146 -83 -146 -83 -125 c 256,4,5
 -83 -105 -83 -105 -71 -92 c 0,6,7
 -58 -78 -58 -78 -41 -78 c 2,8,-1
 1125 -78 l 2,9,10
 1142 -78 1142 -78 1154 -92 c 256,11,12
 1166 -106 1166 -106 1166 -125 c 256,13,14
 1166 -145 1166 -145 1154 -160 c 0,15,16
 1142.8 -173.066666667 1142.8 -173.066666667 1127.24444444 -173.066666667 c 0,17,18
 1126.13333333 -173.066666667 1126.13333333 -173.066666667 1125 -173 c 2,19,-1
 -41 -173 l 2,0,1
875 0 m 2,20,21
 858 0 858 0 845 14 c 0,22,23
 833 28 833 28 833 47 c 256,24,25
 833 67 833 67 845 81 c 0,26,27
 858 95 858 95 875 95 c 2,28,-1
 958 95 l 2,29,30
 975 95 975 95 988 81 c 0,31,32
 1000 67 1000 67 1000 47 c 256,33,34
 1000 27 1000 27 988 14 c 0,35,36
 975 0 975 0 958 0 c 2,37,-1
 875 0 l 2,20,21
708 87 m 2,38,39
 706.866666667 86.9333333333 706.866666667 86.9333333333 705.755555556 86.9333333333 c 0,40,41
 690.2 86.9333333333 690.2 86.9333333333 679 100 c 0,42,43
 667 114 667 114 667 134 c 256,44,45
 667 154 667 154 679 168 c 0,46,47
 692 182 692 182 708 182 c 2,48,-1
 791 182 l 2,49,50
 808 182 808 182 821 168 c 0,51,52
 833 154 833 154 833 134 c 256,53,54
 833 114 833 114 821 100 c 0,55,56
 808.866666667 86.9333333333 808.866666667 86.9333333333 793.248888889 86.9333333333 c 0,57,58
 792.133333333 86.9333333333 792.133333333 86.9333333333 791 87 c 2,59,-1
 708 87 l 2,38,39
542 173 m 2,60,61
 525 174 525 174 512 188 c 0,62,63
 500 202 500 202 500 221 c 256,64,65
 500 241 500 241 512 255 c 0,66,67
 526 268 526 268 542 268 c 2,68,-1
 625 268 l 2,69,70
 642 268 642 268 655 255 c 0,71,72
 667 241 667 241 667 221 c 256,73,74
 667 202 667 202 655 188 c 0,75,76
 642 174 642 174 625 173 c 2,77,-1
 542 173 l 2,60,61
208 0 m 2,78,79
 190 0 190 0 178 14 c 256,80,81
 166 28 166 28 166 47 c 256,82,83
 166 67 166 67 178 81 c 0,84,85
 180 84 180 84 184 87 c 1,86,-1
 125 87 l 2,87,88
 123.866666667 86.9333333333 123.866666667 86.9333333333 122.751111111 86.9333333333 c 0,89,90
 107.133333333 86.9333333333 107.133333333 86.9333333333 95 100 c 0,91,92
 83 114 83 114 83 134 c 256,93,94
 83 154 83 154 95 168 c 0,95,96
 96 171 96 171 100 173 c 1,97,-1
 41 173 l 2,98,99
 24 174 24 174 12 188 c 256,100,101
 0 202 0 202 0 221 c 256,102,103
 0 241 0 241 12 255 c 0,104,105
 17 261 17 261 24 265 c 1,106,-1
 24 265 l 1,107,108
 18 268 18 268 12 274 c 0,109,110
 0 288 0 288 0 308 c 256,111,112
 0 328 0 328 12 342 c 0,113,114
 17 348 17 348 24 352 c 1,115,-1
 24 352 l 1,116,117
 18 355 18 355 12 361 c 0,118,119
 0 374 0 374 0 394 c 256,120,121
 0 414 0 414 12 428 c 256,122,123
 24 442 24 442 41 442 c 2,124,-1
 100 442 l 1,125,126
 97 444 97 444 95 448 c 0,127,128
 83 462 83 462 83 482 c 256,129,130
 83 502 83 502 95 515 c 0,131,132
 108 530 108 530 125 530 c 2,133,-1
 184 530 l 1,134,135
 180 532 180 532 178 535 c 0,136,137
 166 548 166 548 166 568 c 256,138,139
 166 588 166 588 178 602 c 256,140,141
 190 616 190 616 208 616 c 2,142,-1
 791 616 l 2,143,144
 808 616 808 616 821 602 c 0,145,146
 833 588 833 588 833 568 c 256,147,148
 833 548 833 548 821 535 c 0,149,150
 819 532 819 532 815 530 c 1,151,-1
 875 530 l 2,152,153
 892 530 892 530 904 515 c 0,154,155
 916 502 916 502 916 482 c 256,156,157
 916 462 916 462 904 448 c 0,158,159
 902 444 902 444 899 442 c 1,160,-1
 958 442 l 2,161,162
 975 442 975 442 988 428 c 0,163,164
 1000 414 1000 414 1000 394 c 256,165,166
 1000 374 1000 374 988 361 c 0,167,168
 983 355 983 355 976 352 c 1,169,-1
 976 352 l 1,170,171
 982 348 982 348 988 342 c 0,172,173
 1000 328 1000 328 1000 308 c 256,174,175
 1000 288 1000 288 988 274 c 0,176,177
 983 268 983 268 976 265 c 1,178,-1
 976 265 l 1,179,180
 982 262 982 262 988 255 c 0,181,182
 1000 241 1000 241 1000 221 c 256,183,184
 1000 202 1000 202 988 188 c 0,185,186
 975 174 975 174 958 173 c 2,187,-1
 875 173 l 2,188,189
 858 174 858 174 845 188 c 0,190,191
 833 202 833 202 833 221 c 256,192,193
 833 241 833 241 845 255 c 0,194,195
 850 261 850 261 857 265 c 1,196,-1
 857 265 l 1,197,198
 850 268 850 268 845 274 c 0,199,200
 833 288 833 288 833 308 c 256,201,202
 833 328 833 328 845 342 c 0,203,204
 850 348 850 348 857 352 c 1,205,-1
 857 352 l 1,206,207
 850 355 850 355 845 361 c 0,208,209
 833 374 833 374 833 394 c 256,210,211
 833 414 833 414 845 428 c 0,212,213
 846 431 846 431 850 434 c 1,214,-1
 791 434 l 2,215,216
 774 434 774 434 762 448 c 256,217,218
 750 462 750 462 750 482 c 256,219,220
 750 502 750 502 762 515 c 0,221,222
 764 518 764 518 767 520 c 1,223,-1
 232 520 l 1,224,225
 235 518 235 518 238 515 c 0,226,227
 250 502 250 502 250 482 c 256,228,229
 250 462 250 462 238 448 c 0,230,231
 225 434 225 434 208 434 c 2,232,-1
 149 434 l 1,233,234
 150 432 150 432 154 428 c 0,235,236
 166 414 166 414 166 394 c 256,237,238
 166 374 166 374 154 361 c 0,239,240
 148 355 148 355 142 352 c 1,241,-1
 142 352 l 1,242,243
 148 348 148 348 154 342 c 0,244,245
 166 328 166 328 166 308 c 256,246,247
 166 288 166 288 154 274 c 0,248,249
 148 268 148 268 142 265 c 1,250,-1
 142 265 l 1,251,252
 148 262 148 262 154 255 c 0,253,254
 166 241 166 241 166 221 c 256,255,256
 166 202 166 202 154 188 c 0,257,258
 152 185 152 185 149 182 c 1,259,-1
 208 182 l 2,260,261
 225 182 225 182 238 168 c 0,262,263
 250 154 250 154 250 134 c 256,264,265
 250 114 250 114 238 100 c 0,266,267
 236 97 236 97 232 95 c 1,268,-1
 625 95 l 2,269,270
 642 95 642 95 655 81 c 0,271,272
 667 67 667 67 667 47 c 256,273,274
 667 27 667 27 655 14 c 0,275,276
 642 0 642 0 625 0 c 2,277,-1
 208 0 l 2,78,79
EndSplineSet
Validated: 524293
EndChar

StartChar: R
Encoding: 82 82 50
Width: 1200
VWidth: 750
Flags: W
LayerCount: 2
Fore
SplineSet
-41 -173 m 2,0,1
 -58 -173 -58 -173 -71 -160 c 0,2,3
 -83 -146 -83 -146 -83 -125 c 256,4,5
 -83 -105 -83 -105 -71 -92 c 0,6,7
 -58 -78 -58 -78 -41 -78 c 2,8,-1
 1208 -78 l 2,9,10
 1226 -78 1226 -78 1238 -92 c 128,-1,11
 1250 -106 1250 -106 1250 -125 c 256,12,13
 1250 -145 1250 -145 1238 -160 c 0,14,15
 1225.86666667 -173.066666667 1225.86666667 -173.066666667 1210.24888889 -173.066666667 c 0,16,17
 1209.13333333 -173.066666667 1209.13333333 -173.066666667 1208 -173 c 2,18,-1
 -41 -173 l 2,0,1
934 356 m 1,19,20
 930 358 930 358 928 361 c 0,21,22
 916 374 916 374 916 394 c 256,23,24
 916 414 916 414 928 428 c 0,25,26
 932 434 932 434 940 438 c 1,27,-1
 940 438 l 1,28,29
 934 441 934 441 928 448 c 0,30,31
 916 462 916 462 916 482 c 256,32,33
 916 502 916 502 928 515 c 0,34,35
 930 518 930 518 934 520 c 1,36,-1
 316 520 l 1,37,38
 318 518 318 518 321 515 c 0,39,40
 333.071428571 502.928571429 333.071428571 502.928571429 333.071428571 484.821428571 c 0,41,42
 333.071428571 462.083333333 333.071428571 462.083333333 321 448 c 0,43,44
 316 442 316 442 309 438 c 1,45,-1
 309 438 l 1,46,47
 316 434 316 434 321 428 c 0,48,49
 333.071428571 415 333.071428571 415 333.071428571 396.826530612 c 0,50,51
 333.071428571 374.077380952 333.071428571 374.077380952 321 361 c 0,52,53
 319 358 319 358 316 356 c 1,54,-1
 934 356 l 1,19,20
41 0 m 2,55,56
 24 0 24 0 12 14 c 256,57,58
 0 28 0 28 0 47 c 256,59,60
 0 67 0 67 12 81 c 256,61,62
 24 95 24 95 41 95 c 2,63,-1
 184 95 l 1,64,65
 180 96 180 96 178 100 c 0,66,67
 166 114 166 114 166 134 c 256,68,69
 166 154 166 154 178 168 c 0,70,71
 182 174 182 174 190 178 c 1,72,-1
 190 178 l 1,73,74
 184 182 184 182 178 188 c 0,75,76
 166 202 166 202 166 221 c 256,77,78
 166 241 166 241 178 255 c 0,79,80
 182 261 182 261 190 265 c 1,81,-1
 190 265 l 1,82,83
 184 268 184 268 178 274 c 0,84,85
 166 288 166 288 166 308 c 256,86,87
 166 328 166 328 178 342 c 0,88,89
 182 348 182 348 190 352 c 1,90,-1
 190 352 l 1,91,92
 184 355 184 355 178 361 c 0,93,94
 166 374 166 374 166 394 c 256,95,96
 166 414 166 414 178 428 c 0,97,98
 182 434 182 434 190 438 c 1,99,-1
 190 438 l 1,100,101
 184 441 184 441 178 448 c 0,102,103
 166 462 166 462 166 482 c 256,104,105
 166 502 166 502 178 515 c 0,106,107
 180 518 180 518 184 520 c 1,108,-1
 41 520 l 2,109,110
 24 520 24 520 12 535 c 256,111,112
 0 548 0 548 0 568 c 256,113,114
 0 588 0 588 12 602 c 256,115,116
 24 616 24 616 41 616 c 2,117,-1
 958 616 l 2,118,119
 975 616 975 616 988 602 c 0,120,121
 1000 588 1000 588 1000 568 c 256,122,123
 1000 548 1000 548 988 535 c 0,124,125
 986 532 986 532 982 530 c 1,126,-1
 1042 530 l 2,127,128
 1059 530 1059 530 1071 515 c 0,129,130
 1083.07142857 502.928571429 1083.07142857 502.928571429 1083.07142857 484.821428571 c 0,131,132
 1083.07142857 462.083333333 1083.07142857 462.083333333 1071 448 c 0,133,134
 1066 442 1066 442 1059 438 c 1,135,-1
 1059 438 l 1,136,137
 1066 434 1066 434 1071 428 c 0,138,139
 1083.07142857 415 1083.07142857 415 1083.07142857 396.826530612 c 0,140,141
 1083.07142857 374.077380952 1083.07142857 374.077380952 1071 361 c 0,142,143
 1059 347 1059 347 1042 347 c 2,144,-1
 982 347 l 1,145,146
 985 345 985 345 988 342 c 0,147,148
 1000 328 1000 328 1000 308 c 256,149,150
 1000 288 1000 288 988 274 c 0,151,152
 975 260 975 260 958 260 c 2,153,-1
 815 260 l 1,154,155
 818 258 818 258 821 255 c 0,156,157
 833 241 833 241 833 221 c 256,158,159
 833 202 833 202 821 188 c 0,160,161
 819 185 819 185 815 182 c 1,162,-1
 875 182 l 2,163,164
 892 182 892 182 904 168 c 128,-1,165
 916 154 916 154 916 134 c 256,166,167
 916 114 916 114 904 100 c 0,168,169
 902 97 902 97 899 95 c 1,170,-1
 1125 95 l 2,171,172
 1142 95 1142 95 1154 81 c 256,173,174
 1166 67 1166 67 1166 47 c 256,175,176
 1166 27 1166 27 1154 14 c 256,177,178
 1142 0 1142 0 1125 0 c 2,179,-1
 875 0 l 2,180,181
 858 0 858 0 845 14 c 0,182,183
 833 28 833 28 833 47 c 256,184,185
 833 67 833 67 845 81 c 0,186,187
 846 84 846 84 850 87 c 1,188,-1
 791 87 l 2,189,190
 789.866666667 86.9333333333 789.866666667 86.9333333333 788.755555556 86.9333333333 c 0,191,192
 773.2 86.9333333333 773.2 86.9333333333 762 100 c 256,193,194
 750 114 750 114 750 134 c 256,195,196
 750 154 750 154 762 168 c 0,197,198
 764 171 764 171 767 173 c 1,199,-1
 708 173 l 2,200,201
 691 174 691 174 679 188 c 128,-1,202
 667 202 667 202 667 221 c 256,203,204
 667 241 667 241 679 255 c 0,205,206
 681 258 681 258 684 260 c 1,207,-1
 316 260 l 1,208,209
 318 258 318 258 321 255 c 0,210,211
 333.071428571 242 333.071428571 242 333.071428571 223.826530612 c 0,212,213
 333.071428571 202.083333333 333.071428571 202.083333333 321 188 c 0,214,215
 316 182 316 182 309 178 c 1,216,-1
 309 178 l 1,217,218
 316 175 316 175 321 168 c 0,219,220
 333.071428571 155 333.071428571 155 333.071428571 136.826530612 c 0,221,222
 333.071428571 114.083333333 333.071428571 114.083333333 321 100 c 0,223,224
 319 97 319 97 316 95 c 1,225,-1
 458 95 l 2,226,227
 476 95 476 95 488 81 c 128,-1,228
 500 67 500 67 500 47 c 256,229,230
 500 27 500 27 488 14 c 0,231,232
 475 0 475 0 458 0 c 2,233,-1
 41 0 l 2,55,56
EndSplineSet
Validated: 524293
EndChar

